G04 Layer_Color=32896*
%FSLAX25Y25*%
%MOIN*%
G70*
G01*
G75*
%ADD44C,0.00600*%
%ADD46C,0.00800*%
%ADD49C,0.01000*%
%ADD75C,0.00984*%
%ADD77C,0.00500*%
%ADD78C,0.01575*%
D44*
X-37179Y-42500D02*
X-34600D01*
X-46200Y-29200D02*
Y-26621D01*
X-19800Y-13980D02*
Y-11400D01*
X-10900Y-16180D02*
Y-13600D01*
X-41900Y-8200D02*
X-39320D01*
X-54879Y-25100D02*
X-52300D01*
X-29500Y-11680D02*
Y-9100D01*
X10200Y-27500D02*
X12779D01*
X14200D02*
X16780D01*
X-29300Y-47800D02*
Y-45221D01*
X-59780Y-24700D02*
X-57200D01*
X-45000Y-48079D02*
Y-45500D01*
X33300Y-14700D02*
X35879D01*
X-55159Y963D02*
Y3542D01*
X-52200Y27200D02*
Y29779D01*
X-36200Y-23500D02*
Y-20921D01*
D46*
X-53459Y16863D02*
Y25363D01*
X58300Y45099D02*
Y42600D01*
X57800Y42100D01*
X56801D01*
X56301Y42600D01*
Y45099D01*
X53801Y42100D02*
Y45099D01*
X55301Y43600D01*
X53302D01*
X-45300Y36599D02*
Y34100D01*
X-45800Y33600D01*
X-46799D01*
X-47299Y34100D01*
Y36599D01*
X-50298D02*
X-48299D01*
Y35100D01*
X-49299Y35599D01*
X-49799D01*
X-50298Y35100D01*
Y34100D01*
X-49799Y33600D01*
X-48799D01*
X-48299Y34100D01*
X50901Y74399D02*
X51401Y74899D01*
X52400D01*
X52900Y74399D01*
Y72400D01*
X52400Y71900D01*
X51401D01*
X50901Y72400D01*
X48401Y74899D02*
X49401D01*
X49901Y74399D01*
Y72400D01*
X49401Y71900D01*
X48401D01*
X47902Y72400D01*
Y74399D01*
X48401Y74899D01*
X45402Y71900D02*
Y74899D01*
X46902Y73400D01*
X44903D01*
X53301Y1499D02*
X53800Y1999D01*
X54800D01*
X55300Y1499D01*
Y-500D01*
X54800Y-1000D01*
X53800D01*
X53301Y-500D01*
X50801Y1999D02*
X51801D01*
X52301Y1499D01*
Y-500D01*
X51801Y-1000D01*
X50801D01*
X50302Y-500D01*
Y1499D01*
X50801Y1999D01*
X49302Y1499D02*
X48802Y1999D01*
X47802D01*
X47303Y1499D01*
Y999D01*
X47802Y500D01*
X48302D01*
X47802D01*
X47303Y-0D01*
Y-500D01*
X47802Y-1000D01*
X48802D01*
X49302Y-500D01*
D49*
X-39701Y14618D02*
Y16980D01*
X-37339D01*
X47701Y14618D02*
Y16980D01*
X45339D02*
X47701D01*
Y55620D02*
Y57982D01*
X45339Y55620D02*
X47701D01*
X-39701D02*
Y57982D01*
Y55620D02*
X-37339D01*
D75*
X-57029Y16062D02*
G03*
X-57029Y16062I-492J0D01*
G01*
D77*
X5508Y46293D02*
X6886D01*
X4400Y36611D02*
Y37989D01*
X4393Y33814D02*
Y35192D01*
Y30915D02*
Y32293D01*
X4400Y28111D02*
Y29489D01*
X56200Y28111D02*
Y29489D01*
X56193Y30915D02*
Y32293D01*
X56200Y36611D02*
Y37989D01*
X56193Y33814D02*
Y35192D01*
X2214Y46307D02*
X3593D01*
X1207Y-31692D02*
Y-30314D01*
X2907Y-12493D02*
Y-11114D01*
X3507Y-24692D02*
Y-23314D01*
X-59689Y-50500D02*
X-58311D01*
X-59689Y-44500D02*
X-58311D01*
X-59689Y-38500D02*
X-58311D01*
X-59689Y-32500D02*
X-58311D01*
X40100Y-21689D02*
Y-20311D01*
Y-18589D02*
Y-17211D01*
Y-15489D02*
Y-14111D01*
Y-12389D02*
Y-11011D01*
X11111Y-6100D02*
X12489D01*
X-21389D02*
X-20011D01*
X-30600Y-17389D02*
Y-16011D01*
X-37689Y-9100D02*
X-36311D01*
X-30000Y-43789D02*
Y-42411D01*
X-27689Y-51400D02*
X-26311D01*
X-45000Y-44189D02*
Y-42811D01*
X-51689Y-41500D02*
X-50311D01*
X8211Y-6100D02*
X9589D01*
X40100Y-9289D02*
Y-7911D01*
X5311Y-6100D02*
X6689D01*
X-46289Y21600D02*
X-44911D01*
X-18489Y-6100D02*
X-17111D01*
X-15589D02*
X-14211D01*
X-10889D02*
X-9511D01*
X-7989D02*
X-6611D01*
X-5089D02*
X-3711D01*
X-2089D02*
X-711D01*
X811D02*
X2189D01*
X-24289D02*
X-22911D01*
X-59394Y-18000D02*
X-58606D01*
X-31094Y-28100D02*
X-30306D01*
X-33700Y-27594D02*
Y-26806D01*
X-51600Y-33594D02*
Y-32806D01*
X-33800Y-31494D02*
Y-30706D01*
X-43094Y-32100D02*
X-42306D01*
X-37800Y-31494D02*
Y-30706D01*
X-39194Y-38200D02*
X-38406D01*
X-41194D02*
X-40406D01*
X-45800Y-37394D02*
Y-36606D01*
Y-35494D02*
Y-34706D01*
X-41194Y-34100D02*
X-40406D01*
X-39194D02*
X-38406D01*
X-37194D02*
X-36406D01*
X-35194D02*
X-34406D01*
X-51600Y-35494D02*
Y-34706D01*
Y-37394D02*
Y-36606D01*
X-33700Y-29594D02*
Y-28806D01*
X-43094Y-36200D02*
X-42306D01*
X-31107Y-34100D02*
X-30493D01*
X-31107Y-38200D02*
X-30493D01*
X-33500Y-13807D02*
Y-13193D01*
X-23707Y-48000D02*
X-23093D01*
X-47300Y-40807D02*
Y-40193D01*
X-39107Y-26400D02*
X-38493D01*
X-51800Y-19607D02*
Y-18993D01*
X-48807Y11500D02*
X-48193D01*
X-48200Y7993D02*
Y8607D01*
X19214Y-26300D02*
X20986D01*
X28214D02*
X29986D01*
X25214D02*
X26986D01*
X22214D02*
X23986D01*
X4607Y24207D02*
Y25585D01*
X-36733Y-18334D02*
X-36400Y-18001D01*
X-35733D01*
X-35400Y-18334D01*
Y-19667D01*
X-35733Y-20000D01*
X-36400D01*
X-36733Y-19667D01*
X-38732Y-20000D02*
X-37399D01*
X-38732Y-18667D01*
Y-18334D01*
X-38399Y-18001D01*
X-37733D01*
X-37399Y-18334D01*
X-39399D02*
X-39732Y-18001D01*
X-40398D01*
X-40732Y-18334D01*
Y-19667D01*
X-40398Y-20000D01*
X-39732D01*
X-39399Y-19667D01*
Y-18334D01*
X29766Y-21667D02*
X30099Y-22000D01*
Y-22667D01*
X29766Y-23000D01*
X28433D01*
X28100Y-22667D01*
Y-22000D01*
X28433Y-21667D01*
X30099Y-19668D02*
X28100D01*
Y-20667D01*
X28433Y-21001D01*
X29100D01*
X29433Y-20667D01*
Y-19668D01*
X30099Y-17668D02*
X29766Y-18335D01*
X29100Y-19001D01*
X28433D01*
X28100Y-18668D01*
Y-18002D01*
X28433Y-17668D01*
X28766D01*
X29100Y-18002D01*
Y-19001D01*
X26766Y-21667D02*
X27099Y-22000D01*
Y-22667D01*
X26766Y-23000D01*
X25433D01*
X25100Y-22667D01*
Y-22000D01*
X25433Y-21667D01*
X27099Y-19668D02*
X25100D01*
Y-20667D01*
X25433Y-21001D01*
X26100D01*
X26433Y-20667D01*
Y-19668D01*
X27099Y-17668D02*
Y-19001D01*
X26100D01*
X26433Y-18335D01*
Y-18002D01*
X26100Y-17668D01*
X25433D01*
X25100Y-18002D01*
Y-18668D01*
X25433Y-19001D01*
X23666Y-21667D02*
X23999Y-22000D01*
Y-22667D01*
X23666Y-23000D01*
X22333D01*
X22000Y-22667D01*
Y-22000D01*
X22333Y-21667D01*
X23999Y-19668D02*
X22000D01*
Y-20667D01*
X22333Y-21001D01*
X23000D01*
X23333Y-20667D01*
Y-19668D01*
X22000Y-18002D02*
X23999D01*
X23000Y-19001D01*
Y-17668D01*
X23166Y-33367D02*
X23499Y-33700D01*
Y-34367D01*
X23166Y-34700D01*
X21833D01*
X21500Y-34367D01*
Y-33700D01*
X21833Y-33367D01*
X23499Y-31368D02*
X21500D01*
Y-32367D01*
X21833Y-32701D01*
X22500D01*
X22833Y-32367D01*
Y-31368D01*
X23166Y-30701D02*
X23499Y-30368D01*
Y-29702D01*
X23166Y-29368D01*
X22833D01*
X22500Y-29702D01*
Y-30035D01*
Y-29702D01*
X22166Y-29368D01*
X21833D01*
X21500Y-29702D01*
Y-30368D01*
X21833Y-30701D01*
X-59000Y11199D02*
Y9116D01*
X-59417Y8700D01*
X-60250D01*
X-60666Y9116D01*
Y11199D01*
X-61499Y9116D02*
X-61916Y8700D01*
X-62749D01*
X-63165Y9116D01*
Y10783D01*
X-62749Y11199D01*
X-61916D01*
X-61499Y10783D01*
Y10366D01*
X-61916Y9950D01*
X-63165D01*
X-45100Y5200D02*
Y7199D01*
X-46100D01*
X-46433Y6866D01*
Y6200D01*
X-46100Y5866D01*
X-45100D01*
X-45766D02*
X-46433Y5200D01*
X-47099D02*
X-48099D01*
X-48432Y5533D01*
X-48099Y5866D01*
X-47433D01*
X-47099Y6200D01*
X-47433Y6533D01*
X-48432D01*
X-50432Y5200D02*
X-49099D01*
X-50432Y6533D01*
Y6866D01*
X-50098Y7199D01*
X-49432D01*
X-49099Y6866D01*
X-47000Y10219D02*
X-45001D01*
Y11219D01*
X-45334Y11552D01*
X-46000D01*
X-46334Y11219D01*
Y10219D01*
Y10885D02*
X-47000Y11552D01*
Y12218D02*
Y13218D01*
X-46667Y13551D01*
X-46334Y13218D01*
Y12551D01*
X-46000Y12218D01*
X-45667Y12551D01*
Y13551D01*
X-47000Y14218D02*
Y14884D01*
Y14551D01*
X-45001D01*
X-45334Y14218D01*
X-48200Y-18100D02*
Y-16101D01*
X-49200D01*
X-49533Y-16434D01*
Y-17100D01*
X-49200Y-17434D01*
X-48200D01*
X-48866D02*
X-49533Y-18100D01*
X-51532Y-16767D02*
X-50533D01*
X-50199Y-17100D01*
Y-17767D01*
X-50533Y-18100D01*
X-51532D01*
X-52199Y-16434D02*
X-52532Y-16101D01*
X-53198D01*
X-53532Y-16434D01*
Y-16767D01*
X-53198Y-17100D01*
X-52865D01*
X-53198D01*
X-53532Y-17434D01*
Y-17767D01*
X-53198Y-18100D01*
X-52532D01*
X-52199Y-17767D01*
X-60301Y18100D02*
X-62300D01*
Y19433D01*
Y20099D02*
Y21099D01*
X-61967Y21432D01*
X-61634Y21099D01*
Y20433D01*
X-61300Y20099D01*
X-60967Y20433D01*
Y21432D01*
X-62300Y23098D02*
X-60301D01*
X-61300Y22099D01*
Y23432D01*
X-42134Y17033D02*
X-41801Y16700D01*
Y16033D01*
X-42134Y15700D01*
X-43467D01*
X-43800Y16033D01*
Y16700D01*
X-43467Y17033D01*
X-43800Y17699D02*
Y18699D01*
X-43467Y19032D01*
X-43134Y18699D01*
Y18033D01*
X-42800Y17699D01*
X-42467Y18033D01*
Y19032D01*
X-43467Y19699D02*
X-43800Y20032D01*
Y20698D01*
X-43467Y21032D01*
X-42134D01*
X-41801Y20698D01*
Y20032D01*
X-42134Y19699D01*
X-42467D01*
X-42800Y20032D01*
Y21032D01*
X-58333Y29366D02*
X-58000Y29699D01*
X-57333D01*
X-57000Y29366D01*
Y28033D01*
X-57333Y27700D01*
X-58000D01*
X-58333Y28033D01*
X-58999Y27700D02*
X-59999D01*
X-60332Y28033D01*
X-59999Y28366D01*
X-59333D01*
X-58999Y28700D01*
X-59333Y29033D01*
X-60332D01*
X-60999Y29366D02*
X-61332Y29699D01*
X-61998D01*
X-62332Y29366D01*
Y29033D01*
X-61998Y28700D01*
X-62332Y28366D01*
Y28033D01*
X-61998Y27700D01*
X-61332D01*
X-60999Y28033D01*
Y28366D01*
X-61332Y28700D01*
X-60999Y29033D01*
Y29366D01*
X-61332Y28700D02*
X-61998D01*
X-60734Y833D02*
X-60401Y500D01*
Y-167D01*
X-60734Y-500D01*
X-62067D01*
X-62400Y-167D01*
Y500D01*
X-62067Y833D01*
X-62400Y1499D02*
Y2499D01*
X-62067Y2832D01*
X-61734Y2499D01*
Y1833D01*
X-61400Y1499D01*
X-61067Y1833D01*
Y2832D01*
X-60401Y3499D02*
Y4832D01*
X-60734D01*
X-62067Y3499D01*
X-62400D01*
X5267Y40666D02*
X5600Y40999D01*
X6267D01*
X6600Y40666D01*
Y39333D01*
X6267Y39000D01*
X5600D01*
X5267Y39333D01*
X4601Y39000D02*
Y40333D01*
X3601D01*
X3268Y40000D01*
Y39000D01*
X2601Y40999D02*
X1268D01*
Y40666D01*
X2601Y39333D01*
Y39000D01*
X57567Y26766D02*
X57900Y27099D01*
X58567D01*
X58900Y26766D01*
Y25433D01*
X58567Y25100D01*
X57900D01*
X57567Y25433D01*
X56901Y25100D02*
Y26433D01*
X55901D01*
X55568Y26100D01*
Y25100D01*
X53568Y27099D02*
X54235Y26766D01*
X54901Y26100D01*
Y25433D01*
X54568Y25100D01*
X53902D01*
X53568Y25433D01*
Y25766D01*
X53902Y26100D01*
X54901D01*
X57567Y40566D02*
X57900Y40899D01*
X58567D01*
X58900Y40566D01*
Y39233D01*
X58567Y38900D01*
X57900D01*
X57567Y39233D01*
X56901Y38900D02*
Y40233D01*
X55901D01*
X55568Y39900D01*
Y38900D01*
X53568Y40899D02*
X54901D01*
Y39900D01*
X54235Y40233D01*
X53902D01*
X53568Y39900D01*
Y39233D01*
X53902Y38900D01*
X54568D01*
X54901Y39233D01*
X5800Y-28100D02*
Y-26101D01*
X4800D01*
X4467Y-26434D01*
Y-27100D01*
X4800Y-27434D01*
X5800D01*
X5134D02*
X4467Y-28100D01*
X2468Y-26101D02*
Y-28100D01*
X3467D01*
X3801Y-27767D01*
Y-27100D01*
X3467Y-26767D01*
X2468D01*
X802Y-28100D02*
Y-26101D01*
X1801Y-27100D01*
X468D01*
X11800Y-12700D02*
Y-10701D01*
X10800D01*
X10467Y-11034D01*
Y-11700D01*
X10800Y-12033D01*
X11800D01*
X11134D02*
X10467Y-12700D01*
X8468Y-10701D02*
Y-12700D01*
X9467D01*
X9801Y-12367D01*
Y-11700D01*
X9467Y-11367D01*
X8468D01*
X7801Y-12700D02*
X7135D01*
X7468D01*
Y-10701D01*
X7801Y-11034D01*
X-3000Y-31700D02*
Y-29701D01*
X-4000D01*
X-4333Y-30034D01*
Y-30700D01*
X-4000Y-31034D01*
X-3000D01*
X-3666D02*
X-4333Y-31700D01*
X-6332Y-29701D02*
Y-31700D01*
X-5333D01*
X-4999Y-31367D01*
Y-30700D01*
X-5333Y-30367D01*
X-6332D01*
X-6999Y-30034D02*
X-7332Y-29701D01*
X-7998D01*
X-8332Y-30034D01*
Y-31367D01*
X-7998Y-31700D01*
X-7332D01*
X-6999Y-31367D01*
Y-30034D01*
X-24300Y-54200D02*
X-22301D01*
Y-53200D01*
X-22634Y-52867D01*
X-23300D01*
X-23633Y-53200D01*
Y-54200D01*
Y-53534D02*
X-24300Y-52867D01*
Y-51201D02*
X-22301D01*
X-23300Y-52201D01*
Y-50868D01*
X-35900Y-14900D02*
Y-12901D01*
X-36900D01*
X-37233Y-13234D01*
Y-13900D01*
X-36900Y-14233D01*
X-35900D01*
X-36566D02*
X-37233Y-14900D01*
X-37899Y-13234D02*
X-38233Y-12901D01*
X-38899D01*
X-39232Y-13234D01*
Y-13567D01*
X-38899Y-13900D01*
X-38566D01*
X-38899D01*
X-39232Y-14233D01*
Y-14567D01*
X-38899Y-14900D01*
X-38233D01*
X-37899Y-14567D01*
X31766Y-14967D02*
X32099Y-15300D01*
Y-15967D01*
X31766Y-16300D01*
X30433D01*
X30100Y-15967D01*
Y-15300D01*
X30433Y-14967D01*
X32099Y-14301D02*
X30100D01*
Y-13301D01*
X30433Y-12968D01*
X30766D01*
X31100D01*
X31433Y-13301D01*
Y-14301D01*
X32099Y-10968D02*
Y-12301D01*
X31100D01*
X31433Y-11635D01*
Y-11302D01*
X31100Y-10968D01*
X30433D01*
X30100Y-11302D01*
Y-11968D01*
X30433Y-12301D01*
X31766Y-10302D02*
X32099Y-9969D01*
Y-9302D01*
X31766Y-8969D01*
X30433D01*
X30100Y-9302D01*
Y-9969D01*
X30433Y-10302D01*
X31766D01*
X41867Y-5134D02*
X42200Y-4801D01*
X42867D01*
X43200Y-5134D01*
Y-6467D01*
X42867Y-6800D01*
X42200D01*
X41867Y-6467D01*
X41201Y-4801D02*
Y-6800D01*
X40201D01*
X39868Y-6467D01*
Y-6134D01*
Y-5800D01*
X40201Y-5467D01*
X41201D01*
X38202Y-6800D02*
Y-4801D01*
X39201Y-5800D01*
X37868D01*
X37202Y-4801D02*
X35869D01*
Y-5134D01*
X37202Y-6467D01*
Y-6800D01*
X-50234Y-48867D02*
X-49901Y-49200D01*
Y-49867D01*
X-50234Y-50200D01*
X-51567D01*
X-51900Y-49867D01*
Y-49200D01*
X-51567Y-48867D01*
X-50234Y-48201D02*
X-49901Y-47867D01*
Y-47201D01*
X-50234Y-46868D01*
X-50567D01*
X-50900Y-47201D01*
X-51234Y-46868D01*
X-51567D01*
X-51900Y-47201D01*
Y-47867D01*
X-51567Y-48201D01*
X-51234D01*
X-50900Y-47867D01*
X-50567Y-48201D01*
X-50234D01*
X-50900Y-47867D02*
Y-47201D01*
X-50234Y-46201D02*
X-49901Y-45868D01*
Y-45202D01*
X-50234Y-44868D01*
X-51567D01*
X-51900Y-45202D01*
Y-45868D01*
X-51567Y-46201D01*
X-50234D01*
X-43933Y-49934D02*
X-43600Y-49601D01*
X-42933D01*
X-42600Y-49934D01*
Y-51267D01*
X-42933Y-51600D01*
X-43600D01*
X-43933Y-51267D01*
X-44599Y-49601D02*
X-45932D01*
Y-49934D01*
X-44599Y-51267D01*
Y-51600D01*
X-46599Y-51267D02*
X-46932Y-51600D01*
X-47598D01*
X-47932Y-51267D01*
Y-49934D01*
X-47598Y-49601D01*
X-46932D01*
X-46599Y-49934D01*
Y-50267D01*
X-46932Y-50600D01*
X-47932D01*
X-26334Y-59067D02*
X-26001Y-59400D01*
Y-60067D01*
X-26334Y-60400D01*
X-27667D01*
X-28000Y-60067D01*
Y-59400D01*
X-27667Y-59067D01*
X-26001Y-57068D02*
Y-58401D01*
X-27000D01*
X-26667Y-57734D01*
Y-57401D01*
X-27000Y-57068D01*
X-27667D01*
X-28000Y-57401D01*
Y-58067D01*
X-27667Y-58401D01*
X-26334Y-56401D02*
X-26001Y-56068D01*
Y-55402D01*
X-26334Y-55068D01*
X-26667D01*
X-27000Y-55402D01*
X-27334Y-55068D01*
X-27667D01*
X-28000Y-55402D01*
Y-56068D01*
X-27667Y-56401D01*
X-27334D01*
X-27000Y-56068D01*
X-26667Y-56401D01*
X-26334D01*
X-27000Y-56068D02*
Y-55402D01*
X-35733Y-47734D02*
X-35400Y-47401D01*
X-34733D01*
X-34400Y-47734D01*
Y-49067D01*
X-34733Y-49400D01*
X-35400D01*
X-35733Y-49067D01*
X-37732Y-47401D02*
X-36399D01*
Y-48400D01*
X-37066Y-48067D01*
X-37399D01*
X-37732Y-48400D01*
Y-49067D01*
X-37399Y-49400D01*
X-36733D01*
X-36399Y-49067D01*
X-38399Y-47401D02*
X-39732D01*
Y-47734D01*
X-38399Y-49067D01*
Y-49400D01*
X-22533Y-42534D02*
X-22200Y-42201D01*
X-21533D01*
X-21200Y-42534D01*
Y-43867D01*
X-21533Y-44200D01*
X-22200D01*
X-22533Y-43867D01*
X-24532Y-42201D02*
X-23199D01*
Y-43200D01*
X-23866Y-42867D01*
X-24199D01*
X-24532Y-43200D01*
Y-43867D01*
X-24199Y-44200D01*
X-23533D01*
X-23199Y-43867D01*
X-26532Y-42201D02*
X-25865Y-42534D01*
X-25199Y-43200D01*
Y-43867D01*
X-25532Y-44200D01*
X-26198D01*
X-26532Y-43867D01*
Y-43534D01*
X-26198Y-43200D01*
X-25199D01*
X16766Y-21267D02*
X17099Y-21600D01*
Y-22267D01*
X16766Y-22600D01*
X15433D01*
X15100Y-22267D01*
Y-21600D01*
X15433Y-21267D01*
X17099Y-20601D02*
X15100D01*
Y-19601D01*
X15433Y-19268D01*
X15766D01*
X16100D01*
X16433Y-19601D01*
Y-20601D01*
X16766Y-18601D02*
X17099Y-18268D01*
Y-17602D01*
X16766Y-17268D01*
X16433D01*
X16100Y-17602D01*
Y-17935D01*
Y-17602D01*
X15766Y-17268D01*
X15433D01*
X15100Y-17602D01*
Y-18268D01*
X15433Y-18601D01*
X16766Y-16602D02*
X17099Y-16269D01*
Y-15602D01*
X16766Y-15269D01*
X15433D01*
X15100Y-15602D01*
Y-16269D01*
X15433Y-16602D01*
X16766D01*
X8966Y-28567D02*
X9299Y-28900D01*
Y-29567D01*
X8966Y-29900D01*
X7633D01*
X7300Y-29567D01*
Y-28900D01*
X7633Y-28567D01*
X9299Y-27901D02*
X7300D01*
Y-26901D01*
X7633Y-26568D01*
X7966D01*
X8300D01*
X8633Y-26901D01*
Y-27901D01*
X8966Y-25901D02*
X9299Y-25568D01*
Y-24902D01*
X8966Y-24568D01*
X8633D01*
X8300Y-24902D01*
Y-25235D01*
Y-24902D01*
X7966Y-24568D01*
X7633D01*
X7300Y-24902D01*
Y-25568D01*
X7633Y-25901D01*
X7300Y-23902D02*
Y-23235D01*
Y-23569D01*
X9299D01*
X8966Y-23902D01*
X-35066Y-4133D02*
X-35399Y-3800D01*
Y-3133D01*
X-35066Y-2800D01*
X-33733D01*
X-33400Y-3133D01*
Y-3800D01*
X-33733Y-4133D01*
X-35066Y-4799D02*
X-35399Y-5133D01*
Y-5799D01*
X-35066Y-6132D01*
X-34733D01*
X-34400Y-5799D01*
Y-5466D01*
Y-5799D01*
X-34066Y-6132D01*
X-33733D01*
X-33400Y-5799D01*
Y-5133D01*
X-33733Y-4799D01*
X-33400Y-7798D02*
X-35399D01*
X-34400Y-6799D01*
Y-8132D01*
X-27233Y-6534D02*
X-26900Y-6201D01*
X-26233D01*
X-25900Y-6534D01*
Y-7867D01*
X-26233Y-8200D01*
X-26900D01*
X-27233Y-7867D01*
X-27899Y-6534D02*
X-28233Y-6201D01*
X-28899D01*
X-29232Y-6534D01*
Y-6867D01*
X-28899Y-7200D01*
X-28566D01*
X-28899D01*
X-29232Y-7534D01*
Y-7867D01*
X-28899Y-8200D01*
X-28233D01*
X-27899Y-7867D01*
X-29899Y-6534D02*
X-30232Y-6201D01*
X-30898D01*
X-31232Y-6534D01*
Y-6867D01*
X-30898Y-7200D01*
X-30565D01*
X-30898D01*
X-31232Y-7534D01*
Y-7867D01*
X-30898Y-8200D01*
X-30232D01*
X-29899Y-7867D01*
X-23133Y-16034D02*
X-22800Y-15701D01*
X-22133D01*
X-21800Y-16034D01*
Y-17367D01*
X-22133Y-17700D01*
X-22800D01*
X-23133Y-17367D01*
X-23799Y-16034D02*
X-24133Y-15701D01*
X-24799D01*
X-25132Y-16034D01*
Y-16367D01*
X-24799Y-16700D01*
X-24466D01*
X-24799D01*
X-25132Y-17033D01*
Y-17367D01*
X-24799Y-17700D01*
X-24133D01*
X-23799Y-17367D01*
X-27132Y-17700D02*
X-25799D01*
X-27132Y-16367D01*
Y-16034D01*
X-26798Y-15701D01*
X-26132D01*
X-25799Y-16034D01*
X-49734Y-23967D02*
X-49401Y-24300D01*
Y-24967D01*
X-49734Y-25300D01*
X-51067D01*
X-51400Y-24967D01*
Y-24300D01*
X-51067Y-23967D01*
X-51400Y-23301D02*
Y-22634D01*
Y-22967D01*
X-49401D01*
X-49734Y-23301D01*
X-51400Y-20635D02*
X-49401D01*
X-50400Y-21634D01*
Y-20302D01*
X-43234Y-9467D02*
X-42901Y-9800D01*
Y-10467D01*
X-43234Y-10800D01*
X-44567D01*
X-44900Y-10467D01*
Y-9800D01*
X-44567Y-9467D01*
X-44900Y-8801D02*
Y-8134D01*
Y-8467D01*
X-42901D01*
X-43234Y-8801D01*
Y-7135D02*
X-42901Y-6801D01*
Y-6135D01*
X-43234Y-5802D01*
X-43567D01*
X-43900Y-6135D01*
Y-6468D01*
Y-6135D01*
X-44234Y-5802D01*
X-44567D01*
X-44900Y-6135D01*
Y-6801D01*
X-44567Y-7135D01*
X-9533Y-17634D02*
X-9200Y-17301D01*
X-8533D01*
X-8200Y-17634D01*
Y-18967D01*
X-8533Y-19300D01*
X-9200D01*
X-9533Y-18967D01*
X-10199Y-19300D02*
X-10866D01*
X-10533D01*
Y-17301D01*
X-10199Y-17634D01*
X-11866Y-19300D02*
X-12532D01*
X-12199D01*
Y-17301D01*
X-11866Y-17634D01*
X-10433Y-10234D02*
X-10100Y-9901D01*
X-9433D01*
X-9100Y-10234D01*
Y-11567D01*
X-9433Y-11900D01*
X-10100D01*
X-10433Y-11567D01*
X-11099Y-11900D02*
X-11766D01*
X-11433D01*
Y-9901D01*
X-11099Y-10234D01*
X-14098Y-11900D02*
X-12765D01*
X-14098Y-10567D01*
Y-10234D01*
X-13765Y-9901D01*
X-13099D01*
X-12765Y-10234D01*
X-45533Y-30534D02*
X-45200Y-30201D01*
X-44533D01*
X-44200Y-30534D01*
Y-31867D01*
X-44533Y-32200D01*
X-45200D01*
X-45533Y-31867D01*
X-46199Y-32200D02*
X-46866D01*
X-46533D01*
Y-30201D01*
X-46199Y-30534D01*
X-47866D02*
X-48199Y-30201D01*
X-48865D01*
X-49198Y-30534D01*
Y-30867D01*
X-48865Y-31200D01*
X-49198Y-31534D01*
Y-31867D01*
X-48865Y-32200D01*
X-48199D01*
X-47866Y-31867D01*
Y-31534D01*
X-48199Y-31200D01*
X-47866Y-30867D01*
Y-30534D01*
X-48199Y-31200D02*
X-48865D01*
X-51933Y-30134D02*
X-51600Y-29801D01*
X-50933D01*
X-50600Y-30134D01*
Y-31467D01*
X-50933Y-31800D01*
X-51600D01*
X-51933Y-31467D01*
X-52599Y-31800D02*
X-53266D01*
X-52933D01*
Y-29801D01*
X-52599Y-30134D01*
X-54265Y-29801D02*
X-55598D01*
Y-30134D01*
X-54265Y-31467D01*
Y-31800D01*
X-38534Y-44367D02*
X-38201Y-44700D01*
Y-45367D01*
X-38534Y-45700D01*
X-39867D01*
X-40200Y-45367D01*
Y-44700D01*
X-39867Y-44367D01*
X-38201Y-42368D02*
X-40200D01*
Y-43367D01*
X-39867Y-43701D01*
X-39200D01*
X-38867Y-43367D01*
Y-42368D01*
X-40200Y-41701D02*
Y-41035D01*
Y-41368D01*
X-38201D01*
X-38534Y-41701D01*
X-24333Y-26434D02*
X-24000Y-26101D01*
X-23333D01*
X-23000Y-26434D01*
Y-27767D01*
X-23333Y-28100D01*
X-24000D01*
X-24333Y-27767D01*
X-26332Y-26101D02*
Y-28100D01*
X-25333D01*
X-24999Y-27767D01*
Y-27100D01*
X-25333Y-26767D01*
X-26332D01*
X-28332Y-28100D02*
X-26999D01*
X-28332Y-26767D01*
Y-26434D01*
X-27998Y-26101D01*
X-27332D01*
X-26999Y-26434D01*
X-27900Y-41200D02*
X-25901D01*
Y-40200D01*
X-26234Y-39867D01*
X-26900D01*
X-27234Y-40200D01*
Y-41200D01*
Y-40534D02*
X-27900Y-39867D01*
X-25901Y-37868D02*
X-27900D01*
Y-38867D01*
X-27567Y-39201D01*
X-26900D01*
X-26567Y-38867D01*
Y-37868D01*
X-27900Y-35868D02*
Y-37201D01*
X-26567Y-35868D01*
X-26234D01*
X-25901Y-36202D01*
Y-36868D01*
X-26234Y-37201D01*
X-28157Y-34400D02*
X-26158D01*
Y-33400D01*
X-26491Y-33067D01*
X-27158D01*
X-27491Y-33400D01*
Y-34400D01*
Y-33734D02*
X-28157Y-33067D01*
X-26158Y-31068D02*
X-28157D01*
Y-32067D01*
X-27824Y-32401D01*
X-27158D01*
X-26825Y-32067D01*
Y-31068D01*
X-26491Y-30401D02*
X-26158Y-30068D01*
Y-29402D01*
X-26491Y-29068D01*
X-26825D01*
X-27158Y-29402D01*
Y-29735D01*
Y-29402D01*
X-27491Y-29068D01*
X-27824D01*
X-28157Y-29402D01*
Y-30068D01*
X-27824Y-30401D01*
X49567Y-11934D02*
X49900Y-11601D01*
X50567D01*
X50900Y-11934D01*
Y-13267D01*
X50567Y-13600D01*
X49900D01*
X49567Y-13267D01*
X48901Y-11601D02*
Y-13600D01*
X47901D01*
X47568Y-13267D01*
Y-12934D01*
Y-12600D01*
X47901Y-12267D01*
X48901D01*
X45902Y-13600D02*
Y-11601D01*
X46901Y-12600D01*
X45568D01*
X44902Y-11934D02*
X44569Y-11601D01*
X43902D01*
X43569Y-11934D01*
Y-12267D01*
X43902Y-12600D01*
X44236D01*
X43902D01*
X43569Y-12934D01*
Y-13267D01*
X43902Y-13600D01*
X44569D01*
X44902Y-13267D01*
X49567Y-14834D02*
X49900Y-14501D01*
X50567D01*
X50900Y-14834D01*
Y-16167D01*
X50567Y-16500D01*
X49900D01*
X49567Y-16167D01*
X48901Y-14501D02*
Y-16500D01*
X47901D01*
X47568Y-16167D01*
Y-15834D01*
Y-15500D01*
X47901Y-15167D01*
X48901D01*
X45902Y-16500D02*
Y-14501D01*
X46901Y-15500D01*
X45568D01*
X43902Y-16500D02*
Y-14501D01*
X44902Y-15500D01*
X43569D01*
X49567Y-17734D02*
X49900Y-17401D01*
X50567D01*
X50900Y-17734D01*
Y-19067D01*
X50567Y-19400D01*
X49900D01*
X49567Y-19067D01*
X48901Y-17401D02*
Y-19400D01*
X47901D01*
X47568Y-19067D01*
Y-18733D01*
Y-18400D01*
X47901Y-18067D01*
X48901D01*
X45902Y-19400D02*
Y-17401D01*
X46901Y-18400D01*
X45568D01*
X43569Y-17401D02*
X44902D01*
Y-18400D01*
X44236Y-18067D01*
X43902D01*
X43569Y-18400D01*
Y-19067D01*
X43902Y-19400D01*
X44569D01*
X44902Y-19067D01*
X42567Y-23234D02*
X42900Y-22901D01*
X43567D01*
X43900Y-23234D01*
Y-24567D01*
X43567Y-24900D01*
X42900D01*
X42567Y-24567D01*
X41901Y-22901D02*
Y-24900D01*
X40901D01*
X40568Y-24567D01*
Y-24234D01*
Y-23900D01*
X40901Y-23567D01*
X41901D01*
X38902Y-24900D02*
Y-22901D01*
X39901Y-23900D01*
X38568D01*
X36569Y-22901D02*
X37236Y-23234D01*
X37902Y-23900D01*
Y-24567D01*
X37569Y-24900D01*
X36902D01*
X36569Y-24567D01*
Y-24234D01*
X36902Y-23900D01*
X37902D01*
X-61534Y-32267D02*
X-61201Y-32600D01*
Y-33267D01*
X-61534Y-33600D01*
X-62867D01*
X-63200Y-33267D01*
Y-32600D01*
X-62867Y-32267D01*
X-61201Y-31601D02*
X-63200D01*
Y-30601D01*
X-62867Y-30268D01*
X-62534D01*
X-62200D01*
X-61867Y-30601D01*
Y-31601D01*
X-61201Y-29601D02*
Y-28268D01*
X-61534D01*
X-62867Y-29601D01*
X-63200D01*
X-61534Y-27602D02*
X-61201Y-27269D01*
Y-26602D01*
X-61534Y-26269D01*
X-62867D01*
X-63200Y-26602D01*
Y-27269D01*
X-62867Y-27602D01*
X-61534D01*
Y-39967D02*
X-61201Y-40300D01*
Y-40967D01*
X-61534Y-41300D01*
X-62867D01*
X-63200Y-40967D01*
Y-40300D01*
X-62867Y-39967D01*
X-61201Y-39301D02*
X-63200D01*
Y-38301D01*
X-62867Y-37968D01*
X-62534D01*
X-62200D01*
X-61867Y-38301D01*
Y-39301D01*
X-61201Y-37301D02*
Y-35968D01*
X-61534D01*
X-62867Y-37301D01*
X-63200D01*
Y-35302D02*
Y-34635D01*
Y-34969D01*
X-61201D01*
X-61534Y-35302D01*
Y-48867D02*
X-61201Y-49200D01*
Y-49867D01*
X-61534Y-50200D01*
X-62867D01*
X-63200Y-49867D01*
Y-49200D01*
X-62867Y-48867D01*
X-61201Y-48201D02*
X-63200D01*
Y-47201D01*
X-62867Y-46868D01*
X-62534D01*
X-62200D01*
X-61867Y-47201D01*
Y-48201D01*
X-61201Y-46201D02*
Y-44868D01*
X-61534D01*
X-62867Y-46201D01*
X-63200D01*
Y-42869D02*
Y-44202D01*
X-61867Y-42869D01*
X-61534D01*
X-61201Y-43202D01*
Y-43869D01*
X-61534Y-44202D01*
Y-57667D02*
X-61201Y-58000D01*
Y-58667D01*
X-61534Y-59000D01*
X-62867D01*
X-63200Y-58667D01*
Y-58000D01*
X-62867Y-57667D01*
X-61201Y-57001D02*
X-63200D01*
Y-56001D01*
X-62867Y-55668D01*
X-62534D01*
X-62200D01*
X-61867Y-56001D01*
Y-57001D01*
X-61201Y-55001D02*
Y-53668D01*
X-61534D01*
X-62867Y-55001D01*
X-63200D01*
X-61534Y-53002D02*
X-61201Y-52669D01*
Y-52002D01*
X-61534Y-51669D01*
X-61867D01*
X-62200Y-52002D01*
Y-52336D01*
Y-52002D01*
X-62534Y-51669D01*
X-62867D01*
X-63200Y-52002D01*
Y-52669D01*
X-62867Y-53002D01*
X9500Y21300D02*
Y23299D01*
X8500D01*
X8167Y22966D01*
Y22300D01*
X8500Y21967D01*
X9500D01*
X8833D02*
X8167Y21300D01*
X7501D02*
Y22633D01*
X6501D01*
X6168Y22300D01*
Y21300D01*
X4168Y22966D02*
X4502Y23299D01*
X5168D01*
X5501Y22966D01*
Y21633D01*
X5168Y21300D01*
X4502D01*
X4168Y21633D01*
Y22300D01*
X4835D01*
D78*
X-36945Y16980D02*
G03*
X-36945Y16980I-394J0D01*
G01*
X45732Y55620D02*
G03*
X45732Y55620I-394J0D01*
G01*
M02*
