G04 Layer_Color=49087*
%FSLAX25Y25*%
%MOIN*%
G70*
G01*
G75*
%ADD130C,0.00591*%
%ADD131C,0.00050*%
%ADD132C,0.02000*%
D130*
X4394Y9500D02*
G03*
X4394Y9500I-394J0D01*
G01*
Y63100D02*
G03*
X4394Y63100I-394J0D01*
G01*
D131*
X-194677Y-206168D02*
G03*
X-194677Y-206168I-2J0D01*
G01*
X-194690D02*
G03*
X-194690Y-206168I-2J0D01*
G01*
X-194702D02*
G03*
X-194702Y-206168I-2J0D01*
G01*
X-194713D02*
G03*
X-194713Y-206168I-2J0D01*
G01*
X-194726D02*
G03*
X-194726Y-206168I-2J0D01*
G01*
X-194677Y-206174D02*
G03*
X-194677Y-206174I-2J0D01*
G01*
X-194690D02*
G03*
X-194690Y-206174I-2J0D01*
G01*
X-194702D02*
G03*
X-194702Y-206174I-2J0D01*
G01*
X-194713D02*
G03*
X-194713Y-206174I-2J0D01*
G01*
X-194726D02*
G03*
X-194726Y-206174I-2J0D01*
G01*
X-194671Y-206180D02*
G03*
X-194671Y-206180I-2J0D01*
G01*
X-194684D02*
G03*
X-194684Y-206180I-2J0D01*
G01*
X-194695D02*
G03*
X-194695Y-206180I-2J0D01*
G01*
X-194708D02*
G03*
X-194708Y-206180I-2J0D01*
G01*
X-194720D02*
G03*
X-194720Y-206180I-2J0D01*
G01*
X-194731D02*
G03*
X-194731Y-206180I-2J0D01*
G01*
X-194677Y-206186D02*
G03*
X-194677Y-206186I-2J0D01*
G01*
X-194690D02*
G03*
X-194690Y-206186I-2J0D01*
G01*
X-194702D02*
G03*
X-194702Y-206186I-2J0D01*
G01*
X-194713D02*
G03*
X-194713Y-206186I-2J0D01*
G01*
X-194726D02*
G03*
X-194726Y-206186I-2J0D01*
G01*
X-194738D02*
G03*
X-194738Y-206186I-2J0D01*
G01*
X-194677Y-206192D02*
G03*
X-194677Y-206192I-2J0D01*
G01*
X-194690D02*
G03*
X-194690Y-206192I-2J0D01*
G01*
X-194702D02*
G03*
X-194702Y-206192I-2J0D01*
G01*
X-194713D02*
G03*
X-194713Y-206192I-2J0D01*
G01*
X-194726D02*
G03*
X-194726Y-206192I-2J0D01*
G01*
X-194738D02*
G03*
X-194738Y-206192I-2J0D01*
G01*
X-194749D02*
G03*
X-194749Y-206192I-2J0D01*
G01*
X-194690Y-206198D02*
G03*
X-194690Y-206198I-2J0D01*
G01*
X-194702D02*
G03*
X-194702Y-206198I-2J0D01*
G01*
X-194713D02*
G03*
X-194713Y-206198I-2J0D01*
G01*
X-194726D02*
G03*
X-194726Y-206198I-2J0D01*
G01*
X-194738D02*
G03*
X-194738Y-206198I-2J0D01*
G01*
X-194749D02*
G03*
X-194749Y-206198I-2J0D01*
G01*
X-194690Y-206204D02*
G03*
X-194690Y-206204I-2J0D01*
G01*
X-194702D02*
G03*
X-194702Y-206204I-2J0D01*
G01*
X-194713D02*
G03*
X-194713Y-206204I-2J0D01*
G01*
X-194726D02*
G03*
X-194726Y-206204I-2J0D01*
G01*
X-194738D02*
G03*
X-194738Y-206204I-2J0D01*
G01*
X-194749D02*
G03*
X-194749Y-206204I-2J0D01*
G01*
X-194695Y-206210D02*
G03*
X-194695Y-206210I-2J0D01*
G01*
X-194708D02*
G03*
X-194708Y-206210I-2J0D01*
G01*
X-194720D02*
G03*
X-194720Y-206210I-2J0D01*
G01*
X-194731D02*
G03*
X-194731Y-206210I-2J0D01*
G01*
X-194744D02*
G03*
X-194744Y-206210I-2J0D01*
G01*
X-194690Y-206216D02*
G03*
X-194690Y-206216I-2J0D01*
G01*
X-194702D02*
G03*
X-194702Y-206216I-2J0D01*
G01*
X-194713D02*
G03*
X-194713Y-206216I-2J0D01*
G01*
X-194726D02*
G03*
X-194726Y-206216I-2J0D01*
G01*
X-194738D02*
G03*
X-194738Y-206216I-2J0D01*
G01*
X-194749D02*
G03*
X-194749Y-206216I-2J0D01*
G01*
X-194702Y-206222D02*
G03*
X-194702Y-206222I-2J0D01*
G01*
X-194713D02*
G03*
X-194713Y-206222I-2J0D01*
G01*
X-194726D02*
G03*
X-194726Y-206222I-2J0D01*
G01*
X-194738D02*
G03*
X-194738Y-206222I-2J0D01*
G01*
X-194749D02*
G03*
X-194749Y-206222I-2J0D01*
G01*
X-194702Y-206228D02*
G03*
X-194702Y-206228I-2J0D01*
G01*
X-194713D02*
G03*
X-194713Y-206228I-2J0D01*
G01*
X-194726D02*
G03*
X-194726Y-206228I-2J0D01*
G01*
X-194738D02*
G03*
X-194738Y-206228I-2J0D01*
G01*
X-194749D02*
G03*
X-194749Y-206228I-2J0D01*
G01*
X-194708Y-206234D02*
G03*
X-194708Y-206234I-2J0D01*
G01*
X-194720D02*
G03*
X-194720Y-206234I-2J0D01*
G01*
X-194731D02*
G03*
X-194731Y-206234I-2J0D01*
G01*
X-194744D02*
G03*
X-194744Y-206234I-2J0D01*
G01*
X-194702Y-206240D02*
G03*
X-194702Y-206240I-2J0D01*
G01*
X-194713D02*
G03*
X-194713Y-206240I-2J0D01*
G01*
X-194726D02*
G03*
X-194726Y-206240I-2J0D01*
G01*
X-194738D02*
G03*
X-194738Y-206240I-2J0D01*
G01*
X-194749D02*
G03*
X-194749Y-206240I-2J0D01*
G01*
X-194713Y-206246D02*
G03*
X-194713Y-206246I-2J0D01*
G01*
X-194726D02*
G03*
X-194726Y-206246I-2J0D01*
G01*
X-194738D02*
G03*
X-194738Y-206246I-2J0D01*
G01*
X-194749D02*
G03*
X-194749Y-206246I-2J0D01*
G01*
X-194713Y-206252D02*
G03*
X-194713Y-206252I-2J0D01*
G01*
X-194726D02*
G03*
X-194726Y-206252I-2J0D01*
G01*
X-194738D02*
G03*
X-194738Y-206252I-2J0D01*
G01*
X-194749D02*
G03*
X-194749Y-206252I-2J0D01*
G01*
X-194637Y-206192D02*
G03*
X-194635Y-206186I-13J7D01*
G01*
X-194688Y-206275D02*
G03*
X-194674Y-206267I0J15D01*
G01*
X-194775Y-206260D02*
G03*
X-194760Y-206275I15J0D01*
G01*
X-194771Y-206178D02*
G03*
X-194775Y-206189I11J-11D01*
G01*
X-194731Y-206145D02*
G03*
X-194742Y-206149I0J-15D01*
G01*
X-194635Y-206160D02*
G03*
X-194650Y-206145I-15J0D01*
G01*
X-194744Y-206252D02*
G03*
X-194744Y-206252I-2J0D01*
G01*
X-194731D02*
G03*
X-194731Y-206252I-2J0D01*
G01*
X-194720D02*
G03*
X-194720Y-206252I-2J0D01*
G01*
X-194708D02*
G03*
X-194708Y-206252I-2J0D01*
G01*
X-194744Y-206246D02*
G03*
X-194744Y-206246I-2J0D01*
G01*
X-194731D02*
G03*
X-194731Y-206246I-2J0D01*
G01*
X-194720D02*
G03*
X-194720Y-206246I-2J0D01*
G01*
X-194708D02*
G03*
X-194708Y-206246I-2J0D01*
G01*
X-194744Y-206240D02*
G03*
X-194744Y-206240I-2J0D01*
G01*
X-194731D02*
G03*
X-194731Y-206240I-2J0D01*
G01*
X-194720D02*
G03*
X-194720Y-206240I-2J0D01*
G01*
X-194708D02*
G03*
X-194708Y-206240I-2J0D01*
G01*
X-194749Y-206234D02*
G03*
X-194749Y-206234I-2J0D01*
G01*
X-194738D02*
G03*
X-194738Y-206234I-2J0D01*
G01*
X-194726D02*
G03*
X-194726Y-206234I-2J0D01*
G01*
X-194713D02*
G03*
X-194713Y-206234I-2J0D01*
G01*
X-194702D02*
G03*
X-194702Y-206234I-2J0D01*
G01*
X-194744Y-206228D02*
G03*
X-194744Y-206228I-2J0D01*
G01*
X-194731D02*
G03*
X-194731Y-206228I-2J0D01*
G01*
X-194720D02*
G03*
X-194720Y-206228I-2J0D01*
G01*
X-194708D02*
G03*
X-194708Y-206228I-2J0D01*
G01*
X-194695D02*
G03*
X-194695Y-206228I-2J0D01*
G01*
X-194744Y-206222D02*
G03*
X-194744Y-206222I-2J0D01*
G01*
X-194731D02*
G03*
X-194731Y-206222I-2J0D01*
G01*
X-194720D02*
G03*
X-194720Y-206222I-2J0D01*
G01*
X-194708D02*
G03*
X-194708Y-206222I-2J0D01*
G01*
X-194695D02*
G03*
X-194695Y-206222I-2J0D01*
G01*
X-194744Y-206216D02*
G03*
X-194744Y-206216I-2J0D01*
G01*
X-194731D02*
G03*
X-194731Y-206216I-2J0D01*
G01*
X-194720D02*
G03*
X-194720Y-206216I-2J0D01*
G01*
X-194708D02*
G03*
X-194708Y-206216I-2J0D01*
G01*
X-194695D02*
G03*
X-194695Y-206216I-2J0D01*
G01*
X-194749Y-206210D02*
G03*
X-194749Y-206210I-2J0D01*
G01*
X-194738D02*
G03*
X-194738Y-206210I-2J0D01*
G01*
X-194726D02*
G03*
X-194726Y-206210I-2J0D01*
G01*
X-194713D02*
G03*
X-194713Y-206210I-2J0D01*
G01*
X-194702D02*
G03*
X-194702Y-206210I-2J0D01*
G01*
X-194690D02*
G03*
X-194690Y-206210I-2J0D01*
G01*
X-194744Y-206204D02*
G03*
X-194744Y-206204I-2J0D01*
G01*
X-194731D02*
G03*
X-194731Y-206204I-2J0D01*
G01*
X-194720D02*
G03*
X-194720Y-206204I-2J0D01*
G01*
X-194708D02*
G03*
X-194708Y-206204I-2J0D01*
G01*
X-194695D02*
G03*
X-194695Y-206204I-2J0D01*
G01*
X-194684D02*
G03*
X-194684Y-206204I-2J0D01*
G01*
X-194744Y-206198D02*
G03*
X-194744Y-206198I-2J0D01*
G01*
X-194731D02*
G03*
X-194731Y-206198I-2J0D01*
G01*
X-194720D02*
G03*
X-194720Y-206198I-2J0D01*
G01*
X-194708D02*
G03*
X-194708Y-206198I-2J0D01*
G01*
X-194695D02*
G03*
X-194695Y-206198I-2J0D01*
G01*
X-194684D02*
G03*
X-194684Y-206198I-2J0D01*
G01*
X-194744Y-206192D02*
G03*
X-194744Y-206192I-2J0D01*
G01*
X-194731D02*
G03*
X-194731Y-206192I-2J0D01*
G01*
X-194720D02*
G03*
X-194720Y-206192I-2J0D01*
G01*
X-194708D02*
G03*
X-194708Y-206192I-2J0D01*
G01*
X-194695D02*
G03*
X-194695Y-206192I-2J0D01*
G01*
X-194684D02*
G03*
X-194684Y-206192I-2J0D01*
G01*
X-194744Y-206186D02*
G03*
X-194744Y-206186I-2J0D01*
G01*
X-194731D02*
G03*
X-194731Y-206186I-2J0D01*
G01*
X-194720D02*
G03*
X-194720Y-206186I-2J0D01*
G01*
X-194708D02*
G03*
X-194708Y-206186I-2J0D01*
G01*
X-194695D02*
G03*
X-194695Y-206186I-2J0D01*
G01*
X-194684D02*
G03*
X-194684Y-206186I-2J0D01*
G01*
X-194738Y-206180D02*
G03*
X-194738Y-206180I-2J0D01*
G01*
X-194726D02*
G03*
X-194726Y-206180I-2J0D01*
G01*
X-194713D02*
G03*
X-194713Y-206180I-2J0D01*
G01*
X-194702D02*
G03*
X-194702Y-206180I-2J0D01*
G01*
X-194690D02*
G03*
X-194690Y-206180I-2J0D01*
G01*
X-194677D02*
G03*
X-194677Y-206180I-2J0D01*
G01*
X-194731Y-206174D02*
G03*
X-194731Y-206174I-2J0D01*
G01*
X-194720D02*
G03*
X-194720Y-206174I-2J0D01*
G01*
X-194708D02*
G03*
X-194708Y-206174I-2J0D01*
G01*
X-194695D02*
G03*
X-194695Y-206174I-2J0D01*
G01*
X-194684D02*
G03*
X-194684Y-206174I-2J0D01*
G01*
X-194671D02*
G03*
X-194671Y-206174I-2J0D01*
G01*
X-194720Y-206168D02*
G03*
X-194720Y-206168I-2J0D01*
G01*
X-194708D02*
G03*
X-194708Y-206168I-2J0D01*
G01*
X-194695D02*
G03*
X-194695Y-206168I-2J0D01*
G01*
X-194684D02*
G03*
X-194684Y-206168I-2J0D01*
G01*
X-194765Y-206211D02*
G03*
X-194765Y-206211I-4J0D01*
G01*
X-194652Y-206216D02*
G03*
X-194652Y-206216I-4J0D01*
G01*
X-194654Y-206151D02*
G03*
X-194654Y-206151I-4J0D01*
G01*
X-194731Y-206152D02*
G03*
X-194731Y-206152I-4J0D01*
G01*
X-194689Y-206269D02*
G03*
X-194689Y-206269I-4J0D01*
G01*
X-194763Y-206266D02*
G03*
X-194763Y-206266I-4J0D01*
G01*
X-194672Y-206205D02*
G03*
X-194672Y-206205I-3J0D01*
G01*
X-194670Y-206163D02*
G03*
X-194670Y-206163I-3J0D01*
G01*
X-194745Y-206264D02*
G03*
X-194745Y-206264I-3J0D01*
G01*
X-194752Y-206178D02*
G03*
X-194752Y-206178I-3J0D01*
G01*
X-194724Y-206263D02*
G03*
X-194724Y-206263I-3J0D01*
G01*
X-194677Y-206218D02*
G03*
X-194677Y-206218I-3J0D01*
G01*
X-194739Y-206166D02*
G03*
X-194739Y-206166I-3J0D01*
G01*
X-194761Y-206195D02*
G03*
X-194761Y-206195I-3J0D01*
G01*
Y-206237D02*
G03*
X-194761Y-206237I-3J0D01*
G01*
X-194700Y-206273D02*
G03*
X-194700Y-206273I-1J0D01*
G01*
X-194678Y-206229D02*
G03*
X-194678Y-206229I-1J0D01*
G01*
X-194658Y-206221D02*
G03*
X-194658Y-206221I-1J0D01*
G01*
X-194681Y-206267D02*
G03*
X-194681Y-206267I-1J0D01*
G01*
X-194651Y-206208D02*
G03*
X-194651Y-206208I-1J0D01*
G01*
X-194644Y-206202D02*
G03*
X-194644Y-206202I-1J0D01*
G01*
X-194654Y-206158D02*
G03*
X-194654Y-206158I-1J0D01*
G01*
X-194649Y-206149D02*
G03*
X-194649Y-206149I-1J0D01*
G01*
X-194673D02*
G03*
X-194673Y-206149I-1J0D01*
G01*
X-194726Y-206148D02*
G03*
X-194726Y-206148I-1J0D01*
G01*
X-194635Y-206185D02*
Y-206160D01*
X-194674Y-206267D02*
X-194637Y-206192D01*
X-194760Y-206275D02*
X-194688D01*
X-194775Y-206260D02*
Y-206189D01*
X-194771Y-206178D02*
X-194742Y-206149D01*
X-194731Y-206145D02*
X-194650D01*
X-194725Y-206156D02*
X-194676D01*
Y-206149D01*
X-194725D02*
X-194676D01*
X-194725Y-206156D02*
Y-206149D01*
X-194649Y-206198D02*
X-194642D01*
Y-206149D01*
X-194649D02*
X-194642D01*
X-194649Y-206198D02*
Y-206149D01*
X-194663Y-206208D02*
X-194656D01*
Y-206159D01*
X-194663D02*
X-194656D01*
X-194663Y-206208D02*
Y-206159D01*
X-194690Y-206262D02*
X-194668Y-206218D01*
X-194690Y-206262D02*
X-194683Y-206265D01*
X-194661Y-206221D01*
X-194668Y-206218D02*
X-194661Y-206221D01*
X-194710Y-206270D02*
X-194704Y-206273D01*
X-194682Y-206230D01*
X-194688Y-206227D02*
X-194682Y-206230D01*
X-194710Y-206270D02*
X-194688Y-206227D01*
D132*
X-42475Y22800D02*
Y49800D01*
Y22800D02*
X-1475D01*
Y49800D01*
X-42475D02*
X-1475D01*
X10525D02*
X51525D01*
Y22800D02*
Y49800D01*
X10525Y22800D02*
X51525D01*
X10525D02*
Y49800D01*
M02*
