G04 Layer_Physical_Order=4*
G04 Layer_Color=128*
%FSLAX25Y25*%
%MOIN*%
G70*
G01*
G75*
%ADD49C,0.01000*%
%ADD58C,0.01600*%
%ADD59C,0.02000*%
%ADD60C,0.04000*%
%ADD61C,0.03562*%
%ADD62C,0.05137*%
%ADD63O,0.05728X0.03168*%
%ADD64O,0.03365X0.04547*%
%ADD65C,0.01800*%
%ADD66C,0.02200*%
G36*
X-12047Y-77500D02*
X-65000D01*
Y-53500D01*
X-12047D01*
Y-77500D01*
D02*
G37*
D49*
X-46700Y800D02*
X-38900Y8600D01*
X-58600Y800D02*
X-46700D01*
X-34300Y23400D02*
X46600D01*
X-38900Y18800D02*
X-34300Y23400D01*
X-65400Y800D02*
X-58600D01*
X-38900Y8600D02*
Y18800D01*
D58*
X60200Y31500D02*
D03*
X1700Y50200D02*
D03*
X-32000Y-4000D02*
D03*
X-33600Y-2800D02*
D03*
X-47647Y48074D02*
D03*
X60200Y34200D02*
D03*
X1600Y65000D02*
D03*
X-8400Y61900D02*
D03*
X-6400Y26300D02*
D03*
X-46800Y29600D02*
D03*
X-34832Y-19320D02*
D03*
X-43900Y26200D02*
D03*
X44500Y31900D02*
D03*
X-35000Y-17400D02*
D03*
X-34832Y-15383D02*
D03*
X-52548Y-15383D02*
D03*
X-39000Y51200D02*
D03*
X-45700Y28500D02*
D03*
X-40500Y53500D02*
D03*
X2899Y44331D02*
D03*
X-9100Y32000D02*
D03*
X-2200Y35500D02*
D03*
X8400Y34500D02*
D03*
Y31500D02*
D03*
X44800Y37100D02*
D03*
X-5000Y40700D02*
D03*
X48100Y40600D02*
D03*
X51500Y35500D02*
D03*
X-9500Y28300D02*
D03*
X43400Y28400D02*
D03*
X45700Y26300D02*
D03*
X-6000Y46300D02*
D03*
X48000Y32000D02*
D03*
X46100D02*
D03*
X-7000D02*
D03*
X-5000D02*
D03*
X40400Y6500D02*
D03*
X38400D02*
D03*
X36400D02*
D03*
X34500D02*
D03*
X32500D02*
D03*
X30500D02*
D03*
X28500D02*
D03*
X26600D02*
D03*
X24600D02*
D03*
X22700D02*
D03*
X20700D02*
D03*
X12800Y7300D02*
D03*
X41000Y27800D02*
D03*
X39400D02*
D03*
X37800D02*
D03*
X36200D02*
D03*
X34600D02*
D03*
X33000D02*
D03*
X31400D02*
D03*
X29800D02*
D03*
X28200D02*
D03*
X26600D02*
D03*
X25000D02*
D03*
X23400D02*
D03*
X21800D02*
D03*
X20200D02*
D03*
X18600D02*
D03*
X-13900Y6900D02*
D03*
X-6900Y11900D02*
D03*
Y6500D02*
D03*
X-8800D02*
D03*
X-16900Y-1700D02*
D03*
X-18600D02*
D03*
X-11200Y27800D02*
D03*
X-12800D02*
D03*
X-14400D02*
D03*
X-16000D02*
D03*
X-17600D02*
D03*
X-19200D02*
D03*
X-20800D02*
D03*
X-22400D02*
D03*
X-24000D02*
D03*
X-25600D02*
D03*
X-27200D02*
D03*
X-28800D02*
D03*
X-30400D02*
D03*
X-32000D02*
D03*
X-33600D02*
D03*
X-19083Y-15383D02*
D03*
Y-17352D02*
D03*
X-25000Y-17352D02*
D03*
X-19083Y-39006D02*
D03*
X-17115Y-37037D02*
D03*
X-23020D02*
D03*
X-19083D02*
D03*
X-59000Y-48728D02*
D03*
Y-46272D02*
D03*
Y-36728D02*
D03*
Y-34272D02*
D03*
X-6228Y-56500D02*
D03*
X11500Y-49200D02*
D03*
X29068Y-32314D02*
D03*
X-39800Y-17300D02*
D03*
X-42706Y-21289D02*
D03*
X-32863D02*
D03*
X-30827Y-39342D02*
D03*
X-28926Y-37037D02*
D03*
X9709Y-68500D02*
D03*
X15335Y-62501D02*
D03*
X15925Y-68500D02*
D03*
Y-65500D02*
D03*
X21075Y-59000D02*
D03*
X4500Y-49800D02*
D03*
X-15000Y-53900D02*
D03*
X-17115Y-48848D02*
D03*
Y-50817D02*
D03*
X260Y-70075D02*
D03*
X-1315Y-65350D02*
D03*
X1835Y-57476D02*
D03*
X-34832Y-33100D02*
D03*
X8000Y-46000D02*
D03*
X-1500Y-45900D02*
D03*
X-10400Y-54000D02*
D03*
X8134Y-60626D02*
D03*
Y-59051D02*
D03*
X8134Y-55400D02*
D03*
X9700D02*
D03*
X11200Y-57500D02*
D03*
X19468Y-62501D02*
D03*
X-4499Y-48032D02*
D03*
X-1315Y-63776D02*
D03*
X9709Y-65350D02*
D03*
X4984Y-60626D02*
D03*
X-24989Y-21289D02*
D03*
X-32863Y-35069D02*
D03*
X-23020Y-19320D02*
D03*
X-19083Y-46880D02*
D03*
X-30895Y-40974D02*
D03*
X-23020D02*
D03*
X-28926D02*
D03*
X-24989Y-39006D02*
D03*
Y-37037D02*
D03*
X-28926Y-35069D02*
D03*
X-38769Y-37037D02*
D03*
X-32863D02*
D03*
X-28926Y-33100D02*
D03*
X-36800D02*
D03*
Y-31132D02*
D03*
X-28926D02*
D03*
X-23020Y-29163D02*
D03*
X-28926D02*
D03*
X-36800D02*
D03*
X-38769D02*
D03*
X-28926Y-27194D02*
D03*
X-30895Y-25226D02*
D03*
X-28926D02*
D03*
X-24989D02*
D03*
Y-19320D02*
D03*
X-23020Y-15383D02*
D03*
X-24989D02*
D03*
Y-13415D02*
D03*
X-36800Y-25226D02*
D03*
X-38769Y-15383D02*
D03*
X-44674Y-25226D02*
D03*
Y-35069D02*
D03*
X-40737Y-37037D02*
D03*
X-44674D02*
D03*
Y-39006D02*
D03*
Y-40974D02*
D03*
Y-21289D02*
D03*
X-46643D02*
D03*
X-42706Y-19320D02*
D03*
X-44674D02*
D03*
X-54517D02*
D03*
X-56485D02*
D03*
X-54517Y-17352D02*
D03*
X-48611Y-13415D02*
D03*
X9709Y-62201D02*
D03*
Y-63776D02*
D03*
X260Y-68500D02*
D03*
X-1315Y-57476D02*
D03*
X260D02*
D03*
X-40737Y-29163D02*
D03*
X-34832Y-31132D02*
D03*
X-38769Y-25226D02*
D03*
X-36800Y-27194D02*
D03*
X-32500Y-7600D02*
D03*
X-59000Y-19083D02*
D03*
X-32863Y-19320D02*
D03*
X-34832Y-25226D02*
D03*
X-21052Y-33100D02*
D03*
X-46643Y-17352D02*
D03*
X-48611Y-15383D02*
D03*
X-50580D02*
D03*
X-48611Y-21289D02*
D03*
Y-19320D02*
D03*
X-50580Y-35069D02*
D03*
Y-21289D02*
D03*
Y-19320D02*
D03*
X-19083Y-27194D02*
D03*
Y-23257D02*
D03*
X-23020D02*
D03*
Y-21289D02*
D03*
X-24989Y-23257D02*
D03*
X-21052D02*
D03*
X-17115Y-19320D02*
D03*
Y-21289D02*
D03*
X-23020Y-39006D02*
D03*
Y-33100D02*
D03*
X-24989Y-35069D02*
D03*
Y-33100D02*
D03*
X-19083D02*
D03*
Y-35069D02*
D03*
X-56485Y-15383D02*
D03*
Y-17352D02*
D03*
X-54517Y-13415D02*
D03*
Y-15383D02*
D03*
X-17115Y-29163D02*
D03*
X-24989D02*
D03*
X-23020Y-31132D02*
D03*
X-17115Y-25226D02*
D03*
X-17115Y-31132D02*
D03*
X-17100Y-27200D02*
D03*
X-23020Y-27194D02*
D03*
X-50600Y-11900D02*
D03*
X-52548Y-13415D02*
D03*
X18700Y6500D02*
D03*
X14800D02*
D03*
X16800D02*
D03*
X-9000Y37100D02*
D03*
X44500Y-432D02*
D03*
X-28900Y-49100D02*
D03*
X-22800Y12000D02*
D03*
X-22600Y8800D02*
D03*
X-28200Y7200D02*
D03*
X-26500D02*
D03*
X-24500D02*
D03*
X-4900Y75000D02*
D03*
X-6800D02*
D03*
X-8800D02*
D03*
X-10800D02*
D03*
X-12700D02*
D03*
X-14700D02*
D03*
X-16700D02*
D03*
X-18600D02*
D03*
X-20600D02*
D03*
X-24500D02*
D03*
X-22500D02*
D03*
X-26500D02*
D03*
X-28500D02*
D03*
X-30400D02*
D03*
X-32400D02*
D03*
X12900D02*
D03*
X14800D02*
D03*
X16800D02*
D03*
X18800D02*
D03*
X20800D02*
D03*
X22700D02*
D03*
X24700D02*
D03*
X26600D02*
D03*
X28600D02*
D03*
X30600D02*
D03*
X32500D02*
D03*
X34500D02*
D03*
X36500D02*
D03*
X38500D02*
D03*
X40400D02*
D03*
X-58100Y48100D02*
D03*
X-57800Y45100D02*
D03*
X55700Y49300D02*
D03*
X46800D02*
D03*
Y46300D02*
D03*
X8700Y60700D02*
D03*
X-40737Y-35069D02*
D03*
X-38769D02*
D03*
X-11200Y44500D02*
D03*
X-14400D02*
D03*
X-12800D02*
D03*
X-16000D02*
D03*
X-17600D02*
D03*
X-19200D02*
D03*
X-20800D02*
D03*
X-22400D02*
D03*
X-24000D02*
D03*
X-25600D02*
D03*
X-27200D02*
D03*
X-28800D02*
D03*
X-30400D02*
D03*
X-33600D02*
D03*
X-32000D02*
D03*
X18600D02*
D03*
X25000D02*
D03*
X26600D02*
D03*
X28200D02*
D03*
X29800D02*
D03*
X31400D02*
D03*
X33000D02*
D03*
X34600D02*
D03*
X36200D02*
D03*
X37800D02*
D03*
X39400D02*
D03*
X41000D02*
D03*
X20200Y44800D02*
D03*
X21800D02*
D03*
X23400D02*
D03*
X-43500Y55400D02*
D03*
X-12400Y6900D02*
D03*
X-10800D02*
D03*
D59*
X46000Y-67400D02*
D03*
X39000D02*
D03*
D60*
X-65000Y-72500D02*
G03*
X-60000Y-77500I5000J0D01*
G01*
X60000D02*
G03*
X65000Y-72500I0J5000D01*
G01*
Y72500D02*
G03*
X60000Y77500I-5000J0D01*
G01*
X-60000Y77500D02*
G03*
X-65000Y72500I125J-5125D01*
G01*
X-65000Y-72500D02*
Y72500D01*
X-65000Y72500D02*
X-65000Y72500D01*
X-60000Y77500D02*
X60000D01*
X60000Y77500D02*
X60000Y77500D01*
X65000Y-72500D02*
Y72500D01*
X60000Y-77500D02*
Y-77500D01*
X-60000D02*
X60000D01*
X-60000D02*
X-60000Y-77500D01*
D61*
X46520Y3594D02*
D03*
X-38520D02*
D03*
Y69006D02*
D03*
X46520D02*
D03*
D62*
X59000Y9963D02*
D03*
X57900Y-49937D02*
D03*
D63*
X59291Y-1720D02*
D03*
Y-29280D02*
D03*
D64*
X48661Y-5658D02*
D03*
Y-25343D02*
D03*
D65*
X-12500Y-6400D02*
D03*
X3800Y-6300D02*
D03*
X44000Y62600D02*
D03*
X20173Y-36949D02*
D03*
X56157Y58700D02*
D03*
Y62200D02*
D03*
X-53400Y4900D02*
D03*
X-52300Y3000D02*
D03*
X-3500Y50000D02*
D03*
X-27200Y21400D02*
D03*
X-49346Y28500D02*
D03*
X14082Y64800D02*
D03*
X27800Y-7300D02*
D03*
X18000Y-3500D02*
D03*
Y-5500D02*
D03*
X15500Y-8900D02*
D03*
X29100Y64818D02*
D03*
X24100D02*
D03*
X19100D02*
D03*
X-48900Y21600D02*
D03*
Y24200D02*
D03*
X56157Y65700D02*
D03*
X55074Y69700D02*
D03*
X-51500Y57000D02*
D03*
Y60500D02*
D03*
Y64000D02*
D03*
Y69000D02*
D03*
X-40100Y-2000D02*
D03*
X32900Y-3500D02*
D03*
X-13700Y20800D02*
D03*
X-15300Y21700D02*
D03*
X-29800Y21400D02*
D03*
X34600Y-17554D02*
D03*
X41872Y-8600D02*
D03*
Y-11700D02*
D03*
Y-14800D02*
D03*
Y-17900D02*
D03*
Y-21000D02*
D03*
X11800Y-4328D02*
D03*
X8900D02*
D03*
X6000D02*
D03*
X-1400D02*
D03*
X-17800Y-4300D02*
D03*
X-5200Y-65500D02*
D03*
X1276Y-33799D02*
D03*
Y-36949D02*
D03*
X-1874D02*
D03*
X1276Y-40098D02*
D03*
X7500Y-31600D02*
D03*
X15500Y-30158D02*
D03*
X4425Y-40098D02*
D03*
Y-33799D02*
D03*
X1276Y-21201D02*
D03*
X-1874Y-40098D02*
D03*
Y-33799D02*
D03*
X-8173Y-40098D02*
D03*
Y-33799D02*
D03*
Y-36949D02*
D03*
X-5024Y-40098D02*
D03*
Y-21201D02*
D03*
X-8173D02*
D03*
X13874Y-40098D02*
D03*
X17024Y-36949D02*
D03*
Y-33799D02*
D03*
X13874D02*
D03*
Y-36949D02*
D03*
X-5024D02*
D03*
Y-33799D02*
D03*
X20173Y-40098D02*
D03*
Y-33799D02*
D03*
Y-18051D02*
D03*
X17024Y-14902D02*
D03*
X13874Y-21201D02*
D03*
Y-18051D02*
D03*
X10724Y-21201D02*
D03*
Y-18051D02*
D03*
Y-14902D02*
D03*
X7575Y-21201D02*
D03*
X4425Y-18051D02*
D03*
X-1874Y-21201D02*
D03*
X1276Y-14902D02*
D03*
X7575Y-18051D02*
D03*
Y-40098D02*
D03*
X-12500Y-4500D02*
D03*
X-29000Y-4000D02*
D03*
Y-6500D02*
D03*
X1276Y-18051D02*
D03*
X10724Y-36949D02*
D03*
X7575Y-33799D02*
D03*
X1000Y21500D02*
D03*
X3000D02*
D03*
X20100Y-27875D02*
D03*
X26100D02*
D03*
X3800Y-4300D02*
D03*
X34100Y60600D02*
D03*
X39300Y62600D02*
D03*
D66*
X42500Y-67400D02*
D03*
M02*
