M48
;Layer_Color=9474304
;FILE_FORMAT=2:5
INCH
;TYPE=PLATED
T1F00S00C0.00400
T2F00S00C0.00600
T3F00S00C0.00800
T4F00S00C0.01000
T7F00S00C0.03937
%
T01
X-0059000Y-0052272
X-0056485Y-0050817
X-0054517
X-0046643Y-0052785
X-0038769
X-0026957
X-0017115
Y-0050817
X-0015000Y-0053900
X-0010400Y-0054000
X-0009772Y-0056500
X-0006228
X-0001315Y-0057476
Y-0059051
X0000260Y-0057476
X0001835
X0003409Y-0059051
X0004984Y-0060626
X0008134
X0009709
Y-0062201
Y-0063776
Y-0065350
Y-0068500
X0011283Y-0066925
X0006559
X0006600Y-0062200
X0008134Y-0059051
X0008134Y-0055400
X0009700
X0011200Y-0057500
X0011500Y-0052800
X0016100Y-0052900
X0017925Y-0059000
X0021075
X0019468Y-0062501
X0019075Y-0065500
Y-0068500
X0015925
Y-0065500
X0015335Y-0062501
X-0001315Y-0063776
Y-0065350
X0000260Y-0068500
Y-0070075
X0001835Y-0068500
X-0009700Y-0060625
X-0007500Y-0048031
X-0004499Y-0048032
X-0001500Y-0045900
X0001500Y-0048200
X0004500Y-0049800
X0008000Y-0046000
X0011500Y-0049200
X0021637Y-0047547
X0029068Y-0032314
X0028500Y0006500
X0026600
X0024600
X0022700
X0020700
X0018700
X0016800
X0014800
X0012800Y0007300
X0030500Y0006500
X0032500
X0034500
X0036400
X0038400
X0040400
X0044500Y-0000432
X0045700Y0026300
X0043400Y0028400
X0041000Y0027800
X0039400
X0037800
X0036200
X0034600
X0033000
X0031400
X0029800
X0028200
X0026600
X0025000
X0023400
X0021800
X0020200
X0018600
X0015900Y0036600
X0008400Y0034500
Y0031500
X0006172Y0028800
X0006568Y0024901
X-0000800Y0028900
X-0005000Y0032000
X-0007000
X-0009100
X-0009500Y0028300
X-0011200Y0027800
X-0012800
X-0014400
X-0016000
X-0017600
X-0019200
X-0020800
X-0022400
X-0024000
X-0025600
X-0027200
X-0028800
X-0030400
X-0032000
X-0033600
X-0037600Y0037900
X-0033600Y0044500
X-0032000
X-0030400
X-0028800
X-0027200
X-0025600
X-0024000
X-0022400
X-0020800
X-0019200
X-0017600
X-0016000
X-0014400
X-0012800
X-0011200
X-0006000Y0046300
X-0000228
X0002899Y0044331
X0006200
X0006200Y0036800
X-0003000Y0037100
X-0002200Y0035500
X-0005000Y0040700
X-0009000Y0037100
X-0006400Y0026300
X-0006900Y0011900
Y0006500
X-0008800
X-0010800Y0006900
X-0012400
X-0013900
X-0022600Y0008800
X-0022800Y0012000
X-0024500Y0007200
X-0026500
X-0028200
X-0032000Y-0004000
X-0033600Y-0002800
X-0032500Y-0007600
X-0030895Y-0013415
X-0034832Y-0015383
X-0035000Y-0017400
X-0034832Y-0019320
X-0036800
X-0032863
Y-0021289
Y-0025226
X-0030895
X-0028926
Y-0027194
Y-0029163
Y-0031132
Y-0033100
Y-0035069
Y-0037037
Y-0039006
Y-0040974
X-0030895
X-0030827Y-0039342
X-0032863Y-0037037
X-0034832
X-0036800
Y-0035069
X-0034832
Y-0033100
X-0036800
Y-0031132
X-0034832
X-0032863
Y-0033100
Y-0035069
Y-0029163
X-0036800
Y-0027194
Y-0025226
X-0034832
X-0024989
Y-0023257
Y-0021289
Y-0019320
X-0026957
X-0025000Y-0017352
X-0024989Y-0015383
Y-0013415
X-0023020Y-0015383
X-0019083
Y-0017352
X-0017115Y-0019320
Y-0021289
Y-0023257
X-0019083
X-0021052
X-0023020
Y-0021289
Y-0019320
Y-0025226
Y-0027194
Y-0029163
X-0024989
Y-0033100
Y-0035069
Y-0037037
Y-0039006
X-0023020
Y-0037037
Y-0035069
Y-0033100
X-0021052
X-0019083
Y-0035069
Y-0037037
Y-0039006
X-0017115Y-0037037
Y-0033100
Y-0031132
Y-0029163
X-0017100Y-0027200
X-0019083Y-0027194
X-0017115Y-0025226
X-0023020Y-0031132
Y-0040974
Y-0044911
X-0019083Y-0046880
X-0017115Y-0048848
Y-0042943
X-0028900Y-0049100
X-0030900Y-0049200
X-0017115Y-0013415
X-0016900Y-0001700
X-0018600
X0001700Y0050200
X0001600Y0065000
X0005601Y0064368
X0008700Y0060700
X-0008400Y0061900
X-0008800Y0075000
X-0006800
X-0004900
X-0010800
X-0012700
X-0014700
X-0016700
X-0018600
X-0020600
X-0022500
X-0024500
X-0026500
X-0028500
X-0030400
X-0032400
X-0031999Y0064468
X0012900Y0075000
X0014800
X0016800
X0018800
X0020800
X0022700
X0024700
X0026600
X0028600
X0030600
X0032500
X0034500
X0036500
X0038500
X0040400
X0041000Y0044500
X0039400
X0037800
X0036200
X0034600
X0033000
X0031400
X0029800
X0028200
X0026600
X0025000
X0023400Y0044800
X0021800
X0020200
X0018600Y0044500
X0046800Y0046300
Y0049300
X0055700
Y0046300
X0060400Y0038100
X0060200Y0034200
Y0031500
Y0028500
X0049569Y0028400
X0048000Y0032000
X0046100
X0044500Y0031900
X0044800Y0037100
X0050000
X0051500Y0035500
X0048100Y0040600
X-0039000Y0051200
X-0040500Y0053500
X-0043500Y0055400
X-0047700Y0053083
X-0047647Y0048074
X-0049616
X-0050639Y0041753
X-0050600Y0040200
X-0050639Y0038653
X-0046800Y0029600
X-0045700Y0028500
X-0043900Y0026200
X-0052800Y0025028
X-0049381Y0008312
X-0050600Y-0011900
X-0052548Y-0013415
X-0054517
Y-0015383
Y-0017352
Y-0019320
X-0056485
Y-0017352
Y-0015383
Y-0013415
X-0052548Y-0015383
X-0050580Y-0015383
X-0048611
Y-0013415
X-0044674
Y-0019320
X-0046643
Y-0017352
X-0048611Y-0019320
Y-0021289
X-0046643
X-0044674
X-0042706
Y-0019320
X-0039800Y-0017300
X-0038769Y-0015383
X-0038800Y-0023257
X-0038769Y-0025226
Y-0029163
Y-0031132
Y-0033100
Y-0035069
Y-0037037
X-0040737
Y-0035069
Y-0033100
Y-0031132
Y-0029163
X-0042706Y-0025226
X-0044674
X-0048611
Y-0023257
X-0050580Y-0021289
Y-0019320
X-0052600Y-0025200
X-0054517Y-0035069
X-0056485
X-0059000Y-0034272
Y-0036728
Y-0040272
Y-0042728
X-0056485Y-0042943
X-0054517
Y-0046880
X-0056485
X-0059000Y-0046272
Y-0048728
X-0056485Y-0039006
X-0054517
X-0048611Y-0037037
X-0044674
Y-0039006
Y-0040974
X-0042706
X-0038769Y-0044911
X-0048611Y-0042943
X-0050580Y-0035069
X-0044674
X-0059000Y-0030728
Y-0019083
X-0061600Y-0016900
X-0057800Y0045100
X-0058100Y0048100
X-0055211Y0052053
T02
X-0008772Y-0068500
Y-0065500
X-0005200
X-0005024Y-0040098
X-0008173
Y-0036949
X-0005024
X-0001874
X0001276
Y-0033799
X0004425
X0007575
X0007500Y-0031600
X0013874Y-0033799
X0017024
Y-0036949
X0020173
Y-0040098
X0017024
X0013874
X0010724
X0007575
X0004425
X0001276
X-0001874
Y-0033799
X-0005024
X-0008173
Y-0021201
X-0005024
X-0001874
X0001276
Y-0018051
X0004425
Y-0014902
X0001276
X0007575
X0010724
X0013874
X0017024
X0020173
Y-0018051
Y-0021201
X0020100Y-0024725
Y-0027875
X0020173Y-0033799
X0015500Y-0030158
Y-0024843
X0013874Y-0021201
X0010724
Y-0018051
X0013874
X0007575
Y-0021201
X0009000Y-0007900
X0011800
Y-0004328
X0008900
X0006000
X0003800Y-0004300
Y-0006300
X-0001400Y-0007900
Y-0004328
X-0012500Y-0004500
Y-0006400
X-0017800Y-0007900
Y-0004300
X-0029000Y-0004000
Y-0006500
X-0029800Y0009200
X-0027000Y0009900
X-0018600Y0009700
X-0015300
Y0021700
X-0013700Y0020800
X-0027200Y0021400
X-0029800
X0001000Y0021500
X0003000
X0000900Y0009600
X-0001000
X-0008173Y-0014902
X0015500Y-0008900
X0018000Y-0005500
Y-0003500
X0025500
X0027800Y-0007300
X0032900Y-0003500
X0034600Y-0011846
X0038328Y-0011700
Y-0008600
X0041872
Y-0011700
Y-0014800
Y-0017900
Y-0021000
X0038328
Y-0017900
Y-0014800
X0034600Y-0017554
X0026100Y-0024725
Y-0027875
X0013874Y-0036949
X0010724
X0047200Y-0010400
X0049300
X0049272Y0023400
X0028500Y0030600
X0028548Y0042000
X0029100Y0064818
X0024100
X0019100
X0014082Y0064800
X0034100Y0060600
X0039300Y0062600
X0044000
X0049000Y0055600
X0056157Y0058700
Y0062200
Y0065700
X0059700
Y0062200
Y0058700
X0060783Y0069700
X0055074
X-0003500Y0050000
X-0008000
X0005400Y0040300
X-0049346Y0028500
X-0048900Y0024200
Y0021600
X-0055500Y0028500
X-0057100Y0009800
X-0053300
X-0053400Y0004900
X-0052300Y0003000
X-0052800Y-0001600
X-0048800Y-0005000
X-0040000Y-0005342
X-0040100Y-0002000
X-0045728Y0057000
Y0060500
Y0064000
X-0051500
Y0060500
Y0057000
X-0057272
Y0060500
Y0064000
X-0059854Y0069000
X-0051500
X-0043146
T03
X0039000Y-0067400
X0046000
X0036968Y-0039782
X0034468
X0032100Y-0027122
X0029068Y-0024811
T04
X0042500Y-0067400
T07
X0057900Y-0049937
Y-0042063
X0059000Y0009963
Y0017837
M30
