G04 Layer_Physical_Order=1*
G04 Layer_Color=65280*
%FSLAX25Y25*%
%MOIN*%
G70*
G01*
G75*
%ADD10R,0.00984X0.01181*%
%ADD11R,0.03150X0.03150*%
%ADD12R,0.02913X0.09449*%
%ADD13R,0.01968X0.01968*%
%ADD14R,0.01654X0.02165*%
%ADD15R,0.01968X0.01968*%
%ADD16R,0.02756X0.03150*%
%ADD17R,0.03150X0.02756*%
%ADD18R,0.02165X0.01654*%
%ADD19R,0.01181X0.01181*%
%ADD20R,0.01968X0.01575*%
%ADD21R,0.02756X0.09055*%
%ADD22R,0.01181X0.01575*%
%ADD23R,0.06299X0.03937*%
%ADD24R,0.04724X0.04331*%
%ADD25C,0.00709*%
%ADD26C,0.00866*%
%ADD27R,0.04331X0.04724*%
%ADD28R,0.03150X0.01378*%
%ADD29R,0.01378X0.03150*%
%ADD30R,0.09842X0.09842*%
%ADD31R,0.05591X0.02402*%
%ADD32R,0.00984X0.02461*%
G04:AMPARAMS|DCode=33|XSize=24.61mil|YSize=9.84mil|CornerRadius=2.46mil|HoleSize=0mil|Usage=FLASHONLY|Rotation=90.000|XOffset=0mil|YOffset=0mil|HoleType=Round|Shape=RoundedRectangle|*
%AMROUNDEDRECTD33*
21,1,0.02461,0.00492,0,0,90.0*
21,1,0.01968,0.00984,0,0,90.0*
1,1,0.00492,0.00246,0.00984*
1,1,0.00492,0.00246,-0.00984*
1,1,0.00492,-0.00246,-0.00984*
1,1,0.00492,-0.00246,0.00984*
%
%ADD33ROUNDEDRECTD33*%
%ADD34R,0.03150X0.03150*%
%ADD35R,0.04000X0.10000*%
%ADD36R,0.01968X0.01181*%
%ADD37C,0.01772*%
%ADD38C,0.00984*%
%ADD39R,0.05000X0.03937*%
%ADD40C,0.00886*%
%ADD41R,0.05315X0.01575*%
%ADD42C,0.00400*%
%ADD43C,0.01200*%
%ADD44C,0.00600*%
%ADD45C,0.00300*%
%ADD46C,0.00800*%
%ADD47C,0.01500*%
%ADD48C,0.00900*%
%ADD49C,0.01000*%
%ADD50R,0.06102X0.06476*%
%ADD51R,0.06102X0.05905*%
%ADD52C,0.01968*%
%ADD53C,0.05905*%
%ADD54O,0.06102X0.03543*%
%ADD55O,0.03543X0.04921*%
%ADD56C,0.01000*%
%ADD57C,0.01400*%
%ADD58C,0.01600*%
%ADD59C,0.02000*%
G36*
X-11500Y-7500D02*
X-15800D01*
Y5400D01*
X-11500D01*
Y-7500D01*
D02*
G37*
G36*
X-3736D02*
X-7736D01*
X-7536Y1700D01*
X-4800Y4900D01*
X-3736D01*
Y-7500D01*
D02*
G37*
G36*
X-20000Y-7469D02*
X-23936D01*
Y1831D01*
X-21200Y4800D01*
X-21100Y5531D01*
X-20000D01*
Y-7469D01*
D02*
G37*
G36*
X-34500Y-8500D02*
X-38436D01*
Y1000D01*
X-35600Y3000D01*
Y3500D01*
Y5531D01*
X-34500D01*
Y-8500D01*
D02*
G37*
G36*
X-26000D02*
X-30500D01*
Y5400D01*
X-26000D01*
Y-8500D01*
D02*
G37*
G36*
X5500Y-7512D02*
X418D01*
Y5500D01*
X5500D01*
Y-7512D01*
D02*
G37*
G36*
X-26500Y13000D02*
X-33000D01*
Y14100D01*
X-30500Y16000D01*
Y22300D01*
X-26500D01*
Y13000D01*
D02*
G37*
G36*
X-12000D02*
X-18500D01*
Y14100D01*
X-16300Y16000D01*
Y22500D01*
X-12000D01*
Y13000D01*
D02*
G37*
G36*
X4000D02*
X-2200D01*
Y14046D01*
X-200Y15908D01*
Y22500D01*
X4000D01*
Y13000D01*
D02*
G37*
G36*
X-34000Y14046D02*
Y10500D01*
X-27000D01*
Y8500D01*
X-35500D01*
X-37454Y15500D01*
Y17500D01*
X-34000D01*
Y14046D01*
D02*
G37*
G36*
X-2900Y14173D02*
Y10627D01*
X4100D01*
Y8627D01*
X-4400D01*
X-6354Y15627D01*
Y17627D01*
X-2900D01*
Y14173D01*
D02*
G37*
G36*
X-19100Y14200D02*
Y10654D01*
X-12100D01*
Y8654D01*
X-20600D01*
X-22554Y15654D01*
Y17654D01*
X-19100D01*
Y14200D01*
D02*
G37*
D10*
X16119Y38212D02*
D03*
X18481D02*
D03*
X16119Y30612D02*
D03*
X18481D02*
D03*
X16119Y34312D02*
D03*
X18481D02*
D03*
Y41912D02*
D03*
X16119D02*
D03*
D11*
X28548Y34400D02*
D03*
X22052D02*
D03*
Y30600D02*
D03*
X28548D02*
D03*
Y42000D02*
D03*
X22052D02*
D03*
Y38200D02*
D03*
X28548D02*
D03*
D12*
X34000Y62718D02*
D03*
X29000D02*
D03*
X24000D02*
D03*
X19000D02*
D03*
X14000D02*
D03*
X39000Y62600D02*
D03*
X44000D02*
D03*
X49000D02*
D03*
X-18402Y68854D02*
D03*
Y53382D02*
D03*
X-13402Y68854D02*
D03*
Y53382D02*
D03*
X1598Y68854D02*
D03*
X-3402D02*
D03*
X-8402D02*
D03*
Y53382D02*
D03*
X-3402D02*
D03*
X1598D02*
D03*
X-23638Y68854D02*
D03*
Y53382D02*
D03*
D13*
X49231Y49301D02*
D03*
X53168D02*
D03*
X-831Y29000D02*
D03*
X-4769D02*
D03*
X49468Y42500D02*
D03*
X45531D02*
D03*
X41932Y-36301D02*
D03*
X45869D02*
D03*
X-18932Y47001D02*
D03*
X-22869D02*
D03*
X57968Y35001D02*
D03*
X54031D02*
D03*
X49569Y28400D02*
D03*
X45632D02*
D03*
X-7668Y43000D02*
D03*
X-3731D02*
D03*
X4468Y35001D02*
D03*
X532D02*
D03*
X19468Y-62501D02*
D03*
X15531D02*
D03*
D14*
X-45728Y60500D02*
D03*
X-49272D02*
D03*
X-53728Y57000D02*
D03*
X-57272D02*
D03*
X-53728Y64000D02*
D03*
X-57272D02*
D03*
X-45728D02*
D03*
X-49272D02*
D03*
X-4572Y26300D02*
D03*
X-1028D02*
D03*
X45728Y23400D02*
D03*
X49272D02*
D03*
X-51668Y52053D02*
D03*
X-55211D02*
D03*
X-49272Y57000D02*
D03*
X-45728D02*
D03*
X52972Y46300D02*
D03*
X49428D02*
D03*
X-3772D02*
D03*
X-228D02*
D03*
X21272Y-59000D02*
D03*
X17728D02*
D03*
X19272Y-65500D02*
D03*
X15728D02*
D03*
Y-68500D02*
D03*
X19272D02*
D03*
X-9772Y-56500D02*
D03*
X-6228D02*
D03*
X-8772Y-68500D02*
D03*
X-5228D02*
D03*
Y-65500D02*
D03*
X-8772D02*
D03*
X-53728Y60500D02*
D03*
X-57272D02*
D03*
X59700Y58700D02*
D03*
X56157D02*
D03*
Y65700D02*
D03*
X59700D02*
D03*
Y62200D02*
D03*
X56157D02*
D03*
D15*
X29068Y-36251D02*
D03*
Y-32314D02*
D03*
X32100Y-31058D02*
D03*
Y-27121D02*
D03*
X29500Y-39832D02*
D03*
Y-43769D02*
D03*
X35100Y-31058D02*
D03*
Y-27121D02*
D03*
X38401Y-21032D02*
D03*
Y-24969D02*
D03*
X-1500Y-48031D02*
D03*
Y-51968D02*
D03*
X-4499Y-48031D02*
D03*
Y-51968D02*
D03*
X-42101Y10768D02*
D03*
Y6831D02*
D03*
X8700Y63669D02*
D03*
Y59732D02*
D03*
X-31999Y60532D02*
D03*
Y64468D02*
D03*
X5601Y64368D02*
D03*
Y60431D02*
D03*
X-32000Y57468D02*
D03*
Y53531D02*
D03*
X-38001D02*
D03*
Y57468D02*
D03*
X-35001D02*
D03*
Y53531D02*
D03*
X35601Y-4369D02*
D03*
Y-432D02*
D03*
X15200Y-6469D02*
D03*
Y-2531D02*
D03*
X-10501Y-48031D02*
D03*
Y-51968D02*
D03*
X4499D02*
D03*
Y-48031D02*
D03*
X7999D02*
D03*
Y-51968D02*
D03*
X1500D02*
D03*
Y-48031D02*
D03*
X40501Y15969D02*
D03*
Y12032D02*
D03*
X34201Y16169D02*
D03*
Y12231D02*
D03*
D16*
X57954Y39400D02*
D03*
X52246D02*
D03*
X38823Y-47782D02*
D03*
X33114D02*
D03*
X-354Y39400D02*
D03*
X5354D02*
D03*
X-19854Y16500D02*
D03*
X-14146D02*
D03*
X-3854D02*
D03*
X1854D02*
D03*
X-34854D02*
D03*
X-29146D02*
D03*
X55074Y69700D02*
D03*
X60783D02*
D03*
X-43146Y69000D02*
D03*
X-48854D02*
D03*
X-59854D02*
D03*
X-54146D02*
D03*
D17*
X-11500Y4146D02*
D03*
Y9854D02*
D03*
X4764Y4146D02*
D03*
Y9854D02*
D03*
X-26000Y4146D02*
D03*
Y9854D02*
D03*
D18*
X29068Y-24811D02*
D03*
Y-28354D02*
D03*
X-52800Y25028D02*
D03*
Y28572D02*
D03*
X-43000Y-5272D02*
D03*
Y-1728D02*
D03*
X-59000Y-5272D02*
D03*
Y-1728D02*
D03*
X11500Y-52772D02*
D03*
Y-49228D02*
D03*
X-7500Y-48028D02*
D03*
Y-51572D02*
D03*
D19*
X-47700Y53083D02*
D03*
Y50917D02*
D03*
D20*
X42500Y-43050D02*
D03*
Y-39900D02*
D03*
X38400Y-30675D02*
D03*
Y-27525D02*
D03*
D21*
X-37024Y-3831D02*
D03*
X-27976D02*
D03*
X-21524Y-2831D02*
D03*
X-12476D02*
D03*
X-6260D02*
D03*
X2788D02*
D03*
D22*
X-35059Y5563D02*
D03*
X-32500D02*
D03*
X-29941D02*
D03*
Y13437D02*
D03*
X-32500D02*
D03*
X-35059D02*
D03*
X-20559Y5563D02*
D03*
X-18000D02*
D03*
X-15441D02*
D03*
Y13437D02*
D03*
X-18000D02*
D03*
X-20559D02*
D03*
X-4295Y5563D02*
D03*
X-1736D02*
D03*
X823D02*
D03*
Y13437D02*
D03*
X-1736D02*
D03*
X-4295D02*
D03*
D23*
X-32500Y9500D02*
D03*
X-18000D02*
D03*
X-1736D02*
D03*
D24*
X-54193Y-520D02*
D03*
X-54193Y-6032D02*
D03*
X-47501Y-520D02*
D03*
Y-6032D02*
D03*
D25*
X-1315Y-57476D02*
D03*
X260D02*
D03*
X1835D02*
D03*
X3409D02*
D03*
X4984D02*
D03*
X6559D02*
D03*
X8134D02*
D03*
X9709D02*
D03*
X-1315Y-59051D02*
D03*
X3409D02*
D03*
X4984D02*
D03*
X6559D02*
D03*
X8134D02*
D03*
X9709D02*
D03*
X11283D02*
D03*
X-1315Y-60626D02*
D03*
X4984D02*
D03*
X6559D02*
D03*
X8134D02*
D03*
X9709D02*
D03*
X11283D02*
D03*
X-1315Y-62201D02*
D03*
X8134D02*
D03*
X9709D02*
D03*
X11283D02*
D03*
X-1315Y-63776D02*
D03*
X260D02*
D03*
X1835D02*
D03*
X8134D02*
D03*
X9709D02*
D03*
X11283D02*
D03*
X-1315Y-65350D02*
D03*
X260D02*
D03*
X1835D02*
D03*
X8134D02*
D03*
X9709D02*
D03*
X11283D02*
D03*
X-1315Y-66925D02*
D03*
X260D02*
D03*
X1835D02*
D03*
X3409D02*
D03*
X4984D02*
D03*
X6559D02*
D03*
X8134D02*
D03*
X9709D02*
D03*
X11283D02*
D03*
X-1315Y-68500D02*
D03*
X260D02*
D03*
X1835D02*
D03*
X3409D02*
D03*
X4984D02*
D03*
X6559D02*
D03*
X8134D02*
D03*
X9709D02*
D03*
X11283D02*
D03*
X260Y-70075D02*
D03*
X1835D02*
D03*
X3409D02*
D03*
X4984D02*
D03*
X6559D02*
D03*
X8134D02*
D03*
X9709D02*
D03*
D26*
X-9700Y-62200D02*
D03*
X-7731D02*
D03*
X-9700Y-60625D02*
D03*
X-5763Y-62200D02*
D03*
Y-60625D02*
D03*
D27*
X21637Y-47547D02*
D03*
X16125Y-47547D02*
D03*
X21637Y-54240D02*
D03*
X16125D02*
D03*
D28*
X-42726Y35279D02*
D03*
Y37247D02*
D03*
Y39216D02*
D03*
Y41184D02*
D03*
Y43153D02*
D03*
Y45121D02*
D03*
X-58474D02*
D03*
Y43153D02*
D03*
Y41184D02*
D03*
Y39216D02*
D03*
Y37247D02*
D03*
Y35279D02*
D03*
D29*
X-55521Y32326D02*
D03*
X-53553D02*
D03*
X-51584D02*
D03*
X-49616D02*
D03*
X-47647D02*
D03*
X-45679D02*
D03*
X-55521Y48074D02*
D03*
X-53553D02*
D03*
X-51584D02*
D03*
X-49616D02*
D03*
X-47647D02*
D03*
X-45679D02*
D03*
D30*
X-50600Y40200D02*
D03*
D31*
X35969Y-39882D02*
D03*
D32*
X37937Y-36290D02*
D03*
X35969D02*
D03*
X34000D02*
D03*
X37937Y-43475D02*
D03*
X35969D02*
D03*
D33*
X34000D02*
D03*
D34*
X45900Y-49648D02*
D03*
Y-43152D02*
D03*
D35*
X-21000Y-63390D02*
D03*
X-47000D02*
D03*
D36*
X20200Y-1531D02*
D03*
Y-3500D02*
D03*
Y-5469D02*
D03*
X23153D02*
D03*
Y-1531D02*
D03*
Y-3500D02*
D03*
X27747D02*
D03*
Y-5469D02*
D03*
Y-1531D02*
D03*
X30700D02*
D03*
Y-3500D02*
D03*
Y-5469D02*
D03*
D37*
X-8173Y-40098D02*
D03*
Y-36949D02*
D03*
Y-33799D02*
D03*
Y-21201D02*
D03*
Y-18051D02*
D03*
Y-14902D02*
D03*
X20173D02*
D03*
Y-18051D02*
D03*
Y-21201D02*
D03*
Y-33799D02*
D03*
Y-36949D02*
D03*
Y-40098D02*
D03*
X17024Y-14902D02*
D03*
Y-18051D02*
D03*
Y-21201D02*
D03*
Y-33799D02*
D03*
Y-36949D02*
D03*
Y-40098D02*
D03*
X13874Y-14902D02*
D03*
Y-18051D02*
D03*
Y-21201D02*
D03*
Y-33799D02*
D03*
Y-36949D02*
D03*
Y-40098D02*
D03*
X10724Y-14902D02*
D03*
Y-18051D02*
D03*
Y-21201D02*
D03*
Y-33799D02*
D03*
Y-36949D02*
D03*
Y-40098D02*
D03*
X7575Y-14902D02*
D03*
Y-18051D02*
D03*
Y-21201D02*
D03*
Y-33799D02*
D03*
Y-36949D02*
D03*
Y-40098D02*
D03*
X4425Y-14902D02*
D03*
Y-18051D02*
D03*
Y-21201D02*
D03*
Y-33799D02*
D03*
Y-36949D02*
D03*
Y-40098D02*
D03*
X1276Y-14902D02*
D03*
Y-18051D02*
D03*
Y-21201D02*
D03*
Y-33799D02*
D03*
Y-36949D02*
D03*
Y-40098D02*
D03*
X-1874Y-14902D02*
D03*
Y-18051D02*
D03*
Y-21201D02*
D03*
Y-33799D02*
D03*
Y-36949D02*
D03*
Y-40098D02*
D03*
X-5024Y-14902D02*
D03*
Y-18051D02*
D03*
Y-21201D02*
D03*
Y-33799D02*
D03*
Y-36949D02*
D03*
Y-40098D02*
D03*
D38*
X-56485Y-52785D02*
D03*
Y-50817D02*
D03*
Y-48848D02*
D03*
Y-46880D02*
D03*
Y-44911D02*
D03*
Y-42943D02*
D03*
Y-40974D02*
D03*
Y-39006D02*
D03*
Y-37037D02*
D03*
Y-35069D02*
D03*
Y-33100D02*
D03*
Y-31132D02*
D03*
Y-29163D02*
D03*
Y-27194D02*
D03*
Y-25226D02*
D03*
Y-23257D02*
D03*
Y-21289D02*
D03*
Y-19320D02*
D03*
Y-17352D02*
D03*
Y-15383D02*
D03*
Y-13415D02*
D03*
X-54517Y-52785D02*
D03*
Y-50817D02*
D03*
Y-48848D02*
D03*
Y-46880D02*
D03*
Y-44911D02*
D03*
Y-42943D02*
D03*
Y-40974D02*
D03*
Y-39006D02*
D03*
Y-37037D02*
D03*
Y-35069D02*
D03*
Y-33100D02*
D03*
Y-31132D02*
D03*
Y-29163D02*
D03*
Y-27194D02*
D03*
Y-25226D02*
D03*
Y-23257D02*
D03*
Y-21289D02*
D03*
Y-19320D02*
D03*
Y-17352D02*
D03*
Y-15383D02*
D03*
Y-13415D02*
D03*
X-52548Y-52785D02*
D03*
Y-50817D02*
D03*
Y-42943D02*
D03*
Y-33100D02*
D03*
Y-23257D02*
D03*
Y-15383D02*
D03*
Y-13415D02*
D03*
X-50580Y-52785D02*
D03*
Y-50817D02*
D03*
Y-46880D02*
D03*
Y-44911D02*
D03*
Y-42943D02*
D03*
Y-40974D02*
D03*
Y-39006D02*
D03*
Y-37037D02*
D03*
Y-35069D02*
D03*
Y-33100D02*
D03*
Y-31132D02*
D03*
Y-29163D02*
D03*
Y-27194D02*
D03*
Y-25226D02*
D03*
Y-23257D02*
D03*
Y-21289D02*
D03*
Y-19320D02*
D03*
Y-15383D02*
D03*
Y-13415D02*
D03*
X-48611Y-52785D02*
D03*
Y-50817D02*
D03*
Y-46880D02*
D03*
Y-44911D02*
D03*
Y-42943D02*
D03*
Y-40974D02*
D03*
Y-39006D02*
D03*
Y-37037D02*
D03*
Y-35069D02*
D03*
Y-33100D02*
D03*
Y-31132D02*
D03*
Y-29163D02*
D03*
Y-27194D02*
D03*
Y-25226D02*
D03*
Y-23257D02*
D03*
Y-21289D02*
D03*
Y-19320D02*
D03*
Y-15383D02*
D03*
Y-13415D02*
D03*
X-46643Y-52785D02*
D03*
Y-50817D02*
D03*
Y-48848D02*
D03*
Y-46880D02*
D03*
Y-44911D02*
D03*
Y-21289D02*
D03*
Y-19320D02*
D03*
Y-17352D02*
D03*
Y-15383D02*
D03*
Y-13415D02*
D03*
X-44674Y-52785D02*
D03*
Y-50817D02*
D03*
Y-46880D02*
D03*
Y-44911D02*
D03*
Y-40974D02*
D03*
Y-39006D02*
D03*
Y-37037D02*
D03*
Y-35069D02*
D03*
Y-33100D02*
D03*
Y-31132D02*
D03*
Y-29163D02*
D03*
Y-27194D02*
D03*
Y-25226D02*
D03*
Y-21289D02*
D03*
Y-19320D02*
D03*
Y-15383D02*
D03*
Y-13415D02*
D03*
X-42706Y-52785D02*
D03*
Y-50817D02*
D03*
Y-46880D02*
D03*
Y-44911D02*
D03*
Y-40974D02*
D03*
Y-25226D02*
D03*
Y-21289D02*
D03*
Y-19320D02*
D03*
Y-15383D02*
D03*
Y-13415D02*
D03*
X-40737Y-52785D02*
D03*
Y-50817D02*
D03*
Y-46880D02*
D03*
Y-44911D02*
D03*
Y-40974D02*
D03*
Y-37037D02*
D03*
Y-35069D02*
D03*
Y-33100D02*
D03*
Y-31132D02*
D03*
Y-29163D02*
D03*
Y-25226D02*
D03*
Y-21289D02*
D03*
Y-19320D02*
D03*
Y-15383D02*
D03*
Y-13415D02*
D03*
X-38769Y-52785D02*
D03*
Y-50817D02*
D03*
Y-46880D02*
D03*
Y-44911D02*
D03*
Y-40974D02*
D03*
Y-37037D02*
D03*
Y-35069D02*
D03*
Y-33100D02*
D03*
Y-31132D02*
D03*
Y-29163D02*
D03*
Y-25226D02*
D03*
Y-21289D02*
D03*
Y-19320D02*
D03*
Y-15383D02*
D03*
Y-13415D02*
D03*
X-36800Y-52785D02*
D03*
Y-50817D02*
D03*
Y-48848D02*
D03*
Y-46880D02*
D03*
Y-44911D02*
D03*
Y-40974D02*
D03*
Y-37037D02*
D03*
Y-35069D02*
D03*
Y-33100D02*
D03*
Y-31132D02*
D03*
Y-29163D02*
D03*
Y-25226D02*
D03*
Y-21289D02*
D03*
Y-19320D02*
D03*
Y-17352D02*
D03*
Y-15383D02*
D03*
Y-13415D02*
D03*
X-34832Y-52785D02*
D03*
Y-50817D02*
D03*
Y-46880D02*
D03*
Y-44911D02*
D03*
Y-40974D02*
D03*
Y-37037D02*
D03*
Y-35069D02*
D03*
Y-33100D02*
D03*
Y-31132D02*
D03*
Y-29163D02*
D03*
Y-25226D02*
D03*
Y-21289D02*
D03*
Y-19320D02*
D03*
Y-15383D02*
D03*
Y-13415D02*
D03*
X-32863Y-52785D02*
D03*
Y-50817D02*
D03*
Y-46880D02*
D03*
Y-44911D02*
D03*
Y-40974D02*
D03*
Y-37037D02*
D03*
Y-35069D02*
D03*
Y-33100D02*
D03*
Y-31132D02*
D03*
Y-29163D02*
D03*
Y-25226D02*
D03*
Y-21289D02*
D03*
Y-19320D02*
D03*
Y-15383D02*
D03*
Y-13415D02*
D03*
X-30895Y-52785D02*
D03*
Y-50817D02*
D03*
Y-46880D02*
D03*
Y-44911D02*
D03*
Y-40974D02*
D03*
Y-25226D02*
D03*
Y-21289D02*
D03*
Y-19320D02*
D03*
Y-15383D02*
D03*
Y-13415D02*
D03*
X-28926Y-52785D02*
D03*
Y-50817D02*
D03*
Y-46880D02*
D03*
Y-44911D02*
D03*
Y-40974D02*
D03*
Y-39006D02*
D03*
Y-37037D02*
D03*
Y-35069D02*
D03*
Y-33100D02*
D03*
Y-31132D02*
D03*
Y-29163D02*
D03*
Y-27194D02*
D03*
Y-25226D02*
D03*
Y-21289D02*
D03*
Y-19320D02*
D03*
Y-15383D02*
D03*
Y-13415D02*
D03*
X-26957Y-52785D02*
D03*
Y-50817D02*
D03*
Y-48848D02*
D03*
Y-46880D02*
D03*
Y-44911D02*
D03*
Y-21289D02*
D03*
Y-19320D02*
D03*
Y-17352D02*
D03*
Y-15383D02*
D03*
Y-13415D02*
D03*
X-24989Y-52785D02*
D03*
Y-50817D02*
D03*
Y-46880D02*
D03*
Y-44911D02*
D03*
Y-42943D02*
D03*
Y-40974D02*
D03*
Y-39006D02*
D03*
Y-37037D02*
D03*
Y-35069D02*
D03*
Y-33100D02*
D03*
Y-31132D02*
D03*
Y-29163D02*
D03*
Y-27194D02*
D03*
Y-25226D02*
D03*
Y-23257D02*
D03*
Y-21289D02*
D03*
Y-19320D02*
D03*
Y-15383D02*
D03*
Y-13415D02*
D03*
X-23020Y-52785D02*
D03*
Y-50817D02*
D03*
Y-46880D02*
D03*
Y-44911D02*
D03*
Y-42943D02*
D03*
Y-40974D02*
D03*
Y-39006D02*
D03*
Y-37037D02*
D03*
Y-35069D02*
D03*
Y-33100D02*
D03*
Y-31132D02*
D03*
Y-29163D02*
D03*
Y-27194D02*
D03*
Y-25226D02*
D03*
Y-23257D02*
D03*
Y-21289D02*
D03*
Y-19320D02*
D03*
Y-15383D02*
D03*
Y-13415D02*
D03*
X-21052Y-52785D02*
D03*
Y-50817D02*
D03*
Y-42943D02*
D03*
Y-33100D02*
D03*
Y-23257D02*
D03*
Y-15383D02*
D03*
Y-13415D02*
D03*
X-19083Y-52785D02*
D03*
Y-50817D02*
D03*
Y-48848D02*
D03*
Y-46880D02*
D03*
Y-44911D02*
D03*
Y-42943D02*
D03*
Y-40974D02*
D03*
Y-39006D02*
D03*
Y-37037D02*
D03*
Y-35069D02*
D03*
Y-33100D02*
D03*
Y-31132D02*
D03*
Y-29163D02*
D03*
Y-27194D02*
D03*
Y-25226D02*
D03*
Y-23257D02*
D03*
Y-21289D02*
D03*
Y-19320D02*
D03*
Y-17352D02*
D03*
Y-15383D02*
D03*
Y-13415D02*
D03*
X-17115Y-52785D02*
D03*
Y-50817D02*
D03*
Y-48848D02*
D03*
Y-46880D02*
D03*
Y-44911D02*
D03*
Y-42943D02*
D03*
Y-40974D02*
D03*
Y-39006D02*
D03*
Y-37037D02*
D03*
Y-35069D02*
D03*
Y-33100D02*
D03*
Y-31132D02*
D03*
Y-29163D02*
D03*
Y-27194D02*
D03*
Y-25226D02*
D03*
Y-23257D02*
D03*
Y-21289D02*
D03*
Y-19320D02*
D03*
Y-17352D02*
D03*
Y-15383D02*
D03*
Y-13415D02*
D03*
D39*
X57900Y-67200D02*
D03*
X27900D02*
D03*
D40*
X48084Y34332D02*
D03*
X46116D02*
D03*
X48084Y36300D02*
D03*
X46116D02*
D03*
Y38269D02*
D03*
X48084D02*
D03*
X-5016D02*
D03*
X-6984D02*
D03*
Y36300D02*
D03*
X-5016D02*
D03*
X-6984Y34332D02*
D03*
X-5016D02*
D03*
D41*
X48661Y-20618D02*
D03*
Y-18059D02*
D03*
Y-10382D02*
D03*
Y-12941D02*
D03*
Y-15500D02*
D03*
D42*
X45700Y23928D02*
Y26300D01*
Y23928D02*
X45728Y23900D01*
X-54193Y-693D02*
Y-520D01*
X-55228Y-1728D02*
X-54193Y-693D01*
X22600Y100D02*
X23153Y-453D01*
X4468Y38514D02*
X5354Y39400D01*
X4468Y35001D02*
Y38514D01*
X-7668Y43000D02*
X-6984Y42315D01*
X-47700Y48127D02*
Y50917D01*
X-58100Y-9600D02*
X-54532Y-6032D01*
X-58100Y-17706D02*
Y-9600D01*
Y-17706D02*
X-56485Y-19320D01*
X-36900Y55400D02*
X-35032Y53531D01*
X-35001D01*
X-7032Y60431D02*
X5601D01*
X-8402Y61802D02*
X-7032Y60431D01*
X-8402Y61802D02*
Y68854D01*
X-6400Y26300D02*
X-4572D01*
X-47647Y30447D02*
X-46800Y29600D01*
X-47647Y30447D02*
Y32326D01*
X-43647Y35253D02*
X-42700D01*
X-43900Y35000D02*
X-43647Y35253D01*
X-43900Y26200D02*
Y35000D01*
X53300Y35732D02*
X53532Y35500D01*
X23153Y-1531D02*
Y-453D01*
X16800Y-4300D02*
X18000Y-5500D01*
X31085Y-1916D02*
X33616D01*
X30700Y-1531D02*
X31085Y-1916D01*
X33616D02*
X34100Y-2400D01*
X27747Y-7247D02*
Y-5469D01*
X18032D02*
X20200D01*
X18000Y-3500D02*
X20200D01*
X15499Y-8900D02*
Y-6469D01*
X-39000Y51200D02*
X-34332D01*
X-32000Y53531D01*
X-45700Y28500D02*
Y32226D01*
X-45739Y32265D02*
X-45700Y32226D01*
X-58100Y48074D02*
X-55521D01*
X-19100Y62600D02*
X-18402Y63298D01*
X-33600Y62600D02*
X-19100D01*
X-28631Y57469D02*
X-25200Y60900D01*
X-31999Y57469D02*
X-28631D01*
X-25200Y60900D02*
X-15900D01*
X-32000Y57468D02*
X-31999Y57469D01*
Y60532D01*
X-32046Y68854D02*
X-23638D01*
X-38001Y62900D02*
X-32046Y68854D01*
X-38001Y57468D02*
Y62900D01*
X-40468Y53531D02*
X-38001D01*
X-55211Y52053D02*
X-53839D01*
X-53553Y51766D01*
Y48074D02*
Y51766D01*
X-51668Y48158D02*
Y52053D01*
X-15900Y60900D02*
X-13402Y63398D01*
Y68854D01*
X-18402Y63298D02*
Y68854D01*
X-3402Y63502D02*
Y68854D01*
Y63502D02*
X-2369Y62468D01*
X-5000Y38284D02*
Y40700D01*
X-354Y39400D02*
X532Y38514D01*
Y35001D02*
Y38514D01*
X32Y35500D02*
X532Y35001D01*
X-2200Y35500D02*
X32D01*
X-2200D02*
Y35783D01*
X-3800Y36300D02*
X-3000Y37100D01*
X-5016Y36300D02*
X-3800D01*
X57968Y39386D02*
X59254Y38100D01*
X57968Y35001D02*
Y39386D01*
X59254Y38100D02*
X60400D01*
X52546Y39300D02*
X53300Y38546D01*
Y35732D02*
Y38546D01*
X49200Y36300D02*
X50000Y37100D01*
X48084Y36300D02*
X49200D01*
X53168Y49301D02*
X55700D01*
X48084Y38269D02*
Y40516D01*
X48000Y32000D02*
Y34247D01*
X48084Y34332D01*
X43400Y28400D02*
X45631D01*
X-1028Y26300D02*
Y28803D01*
X-9500Y28300D02*
X-5468D01*
X-4769Y29000D01*
X-6000Y46300D02*
X-3772D01*
X-3731Y42500D02*
Y46260D01*
X49468Y42500D02*
Y46260D01*
X45531Y42500D02*
X46116Y41915D01*
Y38269D02*
Y41915D01*
Y32016D02*
Y34332D01*
Y36300D02*
X48084Y34332D01*
X-6984Y32016D02*
Y34332D01*
Y36300D02*
X-5016Y34332D01*
Y32016D02*
Y34332D01*
X-6984Y38269D02*
Y42315D01*
X23153Y-3500D02*
X25500D01*
X27747D01*
X30700D02*
X32900D01*
X27747Y-253D02*
X28200Y200D01*
X27747Y-1531D02*
Y-253D01*
X35069Y-5100D02*
X35100Y-5068D01*
X31069Y-5100D02*
X35069D01*
X30700Y-5469D02*
X31069Y-5100D01*
X16131Y-7100D02*
X22400D01*
X23153Y-6347D01*
Y-5469D01*
X16000Y-1832D02*
X20200D01*
X-15790Y-16410D02*
X-6532D01*
X-5200Y-65500D02*
Y-63776D01*
X-14200Y-35400D02*
X2876D01*
X-16510Y-38400D02*
X5400D01*
X6000Y-37800D01*
X2876Y-35400D02*
X4425Y-36949D01*
X-16289Y-41800D02*
X8400D01*
X-6532Y-16410D02*
X-5024Y-14902D01*
X-8222Y-18100D02*
X-8173Y-18051D01*
X-14000Y-18100D02*
X-8222D01*
X-15799Y-33799D02*
X-8173D01*
X17024Y-25676D02*
Y-21201D01*
X12595Y-30105D02*
X17024Y-25676D01*
X8822Y-26252D02*
X13874Y-21201D01*
X-17115Y-50817D02*
Y-48848D01*
X4501Y-49799D02*
Y-48032D01*
X-15000Y-53900D02*
Y-48800D01*
X-14232Y-48032D01*
X-10499D01*
X-4100Y-13000D02*
X-3500Y-13600D01*
Y-16500D02*
Y-13600D01*
X-5024Y-18024D02*
X-3500Y-16500D01*
X8000Y-48032D02*
Y-46000D01*
X-1500Y-48032D02*
Y-45900D01*
X-10400Y-54000D02*
Y-52069D01*
X8000Y-53701D02*
X9700Y-55400D01*
X8000Y-53701D02*
Y-51969D01*
X4668Y-54168D02*
Y-51968D01*
Y-54168D02*
X5900Y-55400D01*
X8100D01*
X3083Y-54000D02*
X6559Y-57476D01*
X-1000Y-54000D02*
X3083D01*
X1500Y-51968D02*
X4668D01*
X-1500Y-53500D02*
X-1000Y-54000D01*
X-1500Y-53500D02*
Y-51969D01*
X-4499D02*
X-1500D01*
X-7500Y-53500D02*
Y-51572D01*
X9200Y-41000D02*
Y-38574D01*
X8400Y-41800D02*
X9200Y-41000D01*
X7575Y-36949D02*
X9200Y-38574D01*
X6000Y-37800D02*
Y-36100D01*
X6800Y-35300D01*
X15400Y-19675D02*
X17024Y-18051D01*
X-1874D02*
X-300Y-16477D01*
X-9900Y-13000D02*
X-4100D01*
X-12284Y-15383D02*
X-9900Y-13000D01*
X-17115Y-15383D02*
X-12284D01*
X-11200Y-19600D02*
X-273D01*
X-5024Y-18051D02*
Y-18024D01*
X-14532Y-35069D02*
X-14200Y-35400D01*
X-17115Y-35069D02*
X-14532D01*
X-273Y-19600D02*
X1276Y-18051D01*
X9224Y-35300D02*
X10724Y-33799D01*
X6800Y-35300D02*
X9224D01*
X-17115Y-40974D02*
X-16289Y-41800D01*
X-17115Y-39006D02*
X-16510Y-38400D01*
X-300Y-16477D02*
Y-13300D01*
X-5763Y-60625D02*
X-1316D01*
X-5763Y-62200D02*
X-1316D01*
X-19810D02*
X-9700D01*
X-21000Y-63390D02*
X-19810Y-62200D01*
X-47501Y-520D02*
X-46489Y-1531D01*
X-47720Y-520D02*
X-47501D01*
X-50900Y-3700D02*
X-47720Y-520D01*
X-54532Y-6032D02*
X-54193D01*
X-1874Y-14902D02*
Y-13526D01*
X15400Y-22300D02*
Y-19675D01*
X-50900Y-9600D02*
Y-3700D01*
X-53500Y-12200D02*
X-50900Y-9600D01*
X3409Y-57476D02*
Y-56109D01*
X2100Y-54800D02*
X3409Y-56109D01*
X-7500Y-53500D02*
X-6200Y-54800D01*
X2100D01*
X-3300Y-12100D02*
X-1874Y-13526D01*
X-14100Y-12100D02*
X-3300D01*
X-16257Y-14357D02*
X-14100Y-12200D01*
X-15800Y-24200D02*
X-11200Y-19600D01*
X-15600Y-26252D02*
X8822D01*
X-16200Y-20300D02*
X-14000Y-18100D01*
X-16042Y-34042D02*
X-15799Y-33799D01*
X-16450Y-28150D02*
X9550D01*
X15400Y-22300D01*
X-56485Y-15383D02*
Y-15285D01*
X-19083Y-13415D02*
X-16769Y-11100D01*
X-2500D01*
X-300Y-13300D01*
X-15605Y-30105D02*
X12595D01*
X42669Y15969D02*
X44537Y17837D01*
X40501Y15969D02*
X42669D01*
X34201Y16169D02*
X36231D01*
X38400Y14000D01*
X48661Y-15500D02*
X52300D01*
X44537Y17837D02*
X59000D01*
X48661Y-12941D02*
X51859D01*
X52300Y-15500D02*
X53800Y-14000D01*
Y6700D01*
X51859Y-12941D02*
X52800Y-12000D01*
X46500Y14000D02*
X53800Y6700D01*
X38400Y14000D02*
X46500D01*
X34201Y12231D02*
X36968D01*
X42400Y6800D01*
X52972Y46300D02*
X55700D01*
X46800Y49300D02*
X49231D01*
X46800Y46300D02*
X49428D01*
X-2369Y62468D02*
X7468D01*
X7501D02*
X8700Y63669D01*
X11772Y-49228D02*
X13453Y-47547D01*
X16125D01*
X-7731Y-63262D02*
Y-62200D01*
Y-63262D02*
X-7218Y-63776D01*
X-1315D01*
X-35001Y57468D02*
Y61199D01*
X-33600Y62600D01*
X44800Y-17218D02*
X45282Y-17700D01*
X48302D01*
X48661Y-18059D01*
X42400Y4100D02*
Y6800D01*
X44800Y-17218D02*
Y-4600D01*
X46300Y-3100D01*
Y200D01*
X42400Y4100D02*
X46300Y200D01*
X40501Y12032D02*
X47069D01*
X52800Y6300D01*
Y-12000D02*
Y6300D01*
X28200Y200D02*
X34969D01*
X35601Y-432D01*
X44500D01*
X34100Y-2400D02*
X36900D01*
X37700Y-3200D01*
X27800Y-7300D02*
X36100D01*
X37700Y-5700D01*
Y-3200D01*
X13200Y-3700D02*
X13800Y-4300D01*
X16800D01*
X13200Y-3700D02*
Y-600D01*
X13900Y100D01*
X22600D01*
X-43500Y55400D02*
X-36900D01*
D43*
X49000Y55600D02*
Y62600D01*
X28548Y42000D02*
Y42300D01*
Y38200D02*
Y42000D01*
X28500Y30600D02*
Y34248D01*
X28448Y34300D02*
X28500Y34248D01*
X28548Y34400D02*
Y38200D01*
X-13402Y53382D02*
X-8402D01*
X42500Y-67400D02*
X46000D01*
X39000D02*
X42500D01*
X28100D02*
X39000D01*
D44*
X14800Y47900D02*
X24000Y57100D01*
X14800Y39531D02*
Y47900D01*
Y39531D02*
X16119Y38212D01*
X12200Y55500D02*
X13788Y57088D01*
X12200Y32300D02*
Y55500D01*
Y32300D02*
X13888Y30612D01*
X13500Y51600D02*
X19000Y57100D01*
X13500Y35200D02*
Y51600D01*
Y35200D02*
X14388Y34312D01*
X16119D01*
X29000Y57100D02*
Y62718D01*
X18800Y46900D02*
X29000Y57100D01*
X17700Y46900D02*
X18800D01*
X19000Y57100D02*
Y62718D01*
X13788Y57088D02*
Y62506D01*
X13888Y30612D02*
X16119D01*
Y45319D02*
X17700Y46900D01*
X16119Y41912D02*
Y45319D01*
X24000Y57100D02*
Y62718D01*
X18481Y34312D02*
X21964D01*
X18481Y38212D02*
X22040D01*
X18481Y30612D02*
X22040D01*
X-59000Y-1728D02*
X-55228D01*
X-42101Y10768D02*
Y24000D01*
X-51500Y57000D02*
X-49272D01*
X-53728D02*
X-51500D01*
Y69000D02*
X-48854D01*
X-51500Y60500D02*
X-49272D01*
X-53728D02*
X-51500D01*
Y64000D02*
X-49272D01*
X-53728D02*
X-51500D01*
X-54146Y69000D02*
X-51500D01*
X-40100Y-2000D02*
Y300D01*
X-42101Y2300D02*
X-40100Y300D01*
X-42101Y2300D02*
Y6831D01*
X18481Y41912D02*
X21964D01*
X-50600Y40200D02*
X-49616Y41184D01*
Y48074D01*
X-53553Y43153D02*
X-50600Y40200D01*
X-53553Y43153D02*
Y48074D01*
X-53253Y28529D02*
Y32326D01*
X6601Y-62201D02*
X8134D01*
X9709Y-58991D02*
X11200Y-57500D01*
X9709Y-59051D02*
Y-58991D01*
X-2350Y-65350D02*
X-1315D01*
X-2800Y-65800D02*
X-2350Y-65350D01*
X-5425Y-68500D02*
X-3300D01*
X-2800Y-68000D01*
Y-65800D01*
X-46489Y-1531D02*
X-43000D01*
X-59000Y-5469D02*
X-54757D01*
X-54193Y-6032D01*
X-46937Y-5469D02*
X-43000D01*
X35969Y-43475D02*
Y-43375D01*
X42124Y-39882D02*
X42500Y-39506D01*
X-55147Y35653D02*
X-50600Y40200D01*
X-58100Y35653D02*
X-55147D01*
X32100Y-31255D02*
Y-31059D01*
X-54517Y-23257D02*
X-54517D01*
X29068Y-32314D02*
Y-28157D01*
X30582Y-47782D02*
X33016D01*
X29500Y-46700D02*
X30582Y-47782D01*
X29500Y-46700D02*
Y-43951D01*
X29068Y-36290D02*
X34000D01*
X32100D02*
Y-31100D01*
X-30900Y-49200D02*
X-30895Y-49194D01*
Y-46880D01*
X-58474Y45100D02*
X-57800D01*
X35969Y-36290D02*
Y-31927D01*
X35100Y-31059D02*
X35969Y-31927D01*
X-32200Y49500D02*
X-22869D01*
X-42101Y24000D02*
X-35600Y30500D01*
Y46100D01*
X-32200Y49500D01*
D45*
X53532Y35500D02*
X54031Y35001D01*
X51500Y35500D02*
X53532D01*
X-35800Y-18200D02*
X-35000Y-17400D01*
X-35800Y-20321D02*
Y-18200D01*
Y-20321D02*
X-34832Y-21289D01*
X-35300Y-17400D02*
X-35000D01*
X-53500Y-18304D02*
Y-12200D01*
X-21900Y-17800D02*
X-20500Y-16400D01*
X-23535Y-14365D02*
X-16265D01*
X-15800Y-16400D02*
X-15790Y-16410D01*
X-20500Y-16400D02*
X-15800D01*
X-21900Y-22137D02*
Y-17800D01*
X-24005Y-14835D02*
X-23535Y-14365D01*
X-24005Y-20295D02*
Y-14835D01*
X-16100Y-34100D02*
X-16042Y-34042D01*
X-26100Y-34100D02*
X-16100D01*
X-26900Y-33300D02*
X-26100Y-34100D01*
X-39795Y-20347D02*
Y-17305D01*
X-40737Y-21289D02*
X-39795Y-20347D01*
X-39800Y-17300D02*
X-39795Y-17305D01*
X-18989Y-21289D02*
X-18000Y-20300D01*
X-19083Y-21289D02*
X-18989D01*
X-19083Y-29316D02*
Y-29163D01*
X-26900Y-33300D02*
Y-25168D01*
X-54517Y-19320D02*
X-53500Y-18304D01*
X-14100Y-12200D02*
Y-12100D01*
X-26957Y-21289D02*
X-26000Y-20332D01*
X-24989Y-31132D02*
X-23963Y-30105D01*
X-24989Y-21289D02*
X-24000Y-20300D01*
X-16265Y-14365D02*
X-16257Y-14357D01*
X-19083Y-25226D02*
Y-25084D01*
X-23963Y-30105D02*
X-23955Y-30113D01*
X-21913D01*
X-23020Y-23257D02*
X-21900Y-22137D01*
X-26900Y-25168D02*
X-24989Y-23257D01*
X-18000Y-20300D02*
X-16200D01*
X-19083Y-25084D02*
X-18207Y-24207D01*
X-15808D02*
X-15800Y-24200D01*
X-18207Y-24207D02*
X-15808D01*
X-26000Y-20332D02*
Y-18352D01*
X-25000Y-17352D01*
X-20102Y-26245D02*
X-15608D01*
X-15613Y-30113D02*
X-15605Y-30105D01*
X-19083Y-29316D02*
X-18287Y-30113D01*
X-15613D01*
X-21905Y-30105D02*
X-19937Y-28137D01*
X-19923Y-28150D01*
X-16450D01*
X-23020Y-29163D02*
X-20102Y-26245D01*
X-50580Y-13415D02*
Y-11920D01*
X27900Y-67200D02*
X28000Y-67300D01*
X7468Y62468D02*
X7501D01*
X11500Y-49228D02*
X11772D01*
X21100Y-58828D02*
X21272Y-59000D01*
X21100Y-58828D02*
Y-54777D01*
X21637Y-54240D01*
D46*
X-23638Y53382D02*
X-22869Y52613D01*
Y47001D02*
Y52613D01*
X37937Y-43475D02*
X38329Y-43082D01*
X-18000Y5563D02*
Y9500D01*
X-1736Y5600D02*
Y9900D01*
X34000Y-43475D02*
Y-39990D01*
X-32524Y5663D02*
Y9600D01*
X38329Y-43082D02*
X42500D01*
X-54517Y-23257D02*
X-52600Y-25174D01*
Y-25300D02*
Y-25174D01*
X45968Y-43084D02*
Y-36301D01*
X36968Y-50282D02*
X45266D01*
X45900Y-49648D01*
X37937Y-46959D02*
X38953Y-47975D01*
X37937Y-46959D02*
Y-43475D01*
X35969Y-49282D02*
X36968Y-50282D01*
X35969Y-49282D02*
Y-43475D01*
X37937Y-36290D02*
Y-31138D01*
Y-36290D02*
X42021D01*
X37937Y-31138D02*
X38400Y-30675D01*
X48661Y-20618D02*
X55000D01*
X38400Y-30675D02*
X52725D01*
X55000Y-28400D02*
Y5963D01*
X59000Y9963D01*
X52725Y-30675D02*
X55000Y-28400D01*
X-18932Y47001D02*
Y52852D01*
X-18402Y53382D01*
X38401Y-27439D02*
Y-24868D01*
X38669Y-24600D01*
X32100Y-27122D02*
X34732D01*
D47*
X35969Y-39882D02*
X42124D01*
X29500Y-39814D02*
X35901D01*
X58000Y-66300D02*
Y-49900D01*
D48*
X-36800Y-27194D02*
X-34832Y-29163D01*
D49*
X42500Y-44814D02*
Y-43050D01*
Y-44814D02*
X44069Y-46382D01*
X54482D01*
X58000Y-49900D01*
D50*
X59291Y-27793D02*
D03*
X59291Y-3207D02*
D03*
D51*
X59291Y-19437D02*
D03*
X59291Y-11563D02*
D03*
D52*
X46520Y3594D02*
D03*
X-38520D02*
D03*
Y69006D02*
D03*
X46520D02*
D03*
D53*
X59000Y9963D02*
D03*
Y17837D02*
D03*
X57900Y-42063D02*
D03*
Y-49937D02*
D03*
D54*
X59291Y-1720D02*
D03*
Y-29280D02*
D03*
D55*
X48661Y-5658D02*
D03*
Y-25343D02*
D03*
D56*
X60200Y28500D02*
D03*
Y31500D02*
D03*
X15900Y36600D02*
D03*
X6200Y44331D02*
D03*
X1700Y50200D02*
D03*
X-32000Y-4000D02*
D03*
X-33600Y-2800D02*
D03*
X-49616Y48074D02*
D03*
X-47647D02*
D03*
X60200Y34200D02*
D03*
X1600Y65000D02*
D03*
X-8400Y61900D02*
D03*
X-6400Y26300D02*
D03*
X-46800Y29600D02*
D03*
X-34832Y-19320D02*
D03*
X-800Y28900D02*
D03*
X-43900Y26200D02*
D03*
X44500Y31900D02*
D03*
X-35000Y-17400D02*
D03*
X-34832Y-15383D02*
D03*
X-52548Y-15383D02*
D03*
X-61600Y-16900D02*
D03*
X-37600Y37900D02*
D03*
X5601Y64368D02*
D03*
X-39000Y51200D02*
D03*
X-52800Y25028D02*
D03*
X-45700Y28500D02*
D03*
X-31999Y64468D02*
D03*
X-40500Y53500D02*
D03*
X-50639Y38653D02*
D03*
Y41753D02*
D03*
X-50600Y40200D02*
D03*
X-55211Y52053D02*
D03*
X-47700Y53083D02*
D03*
X6172Y28800D02*
D03*
X2899Y44331D02*
D03*
X-228Y46300D02*
D03*
X6200Y36800D02*
D03*
X-9100Y32000D02*
D03*
X-2200Y35500D02*
D03*
X8400Y34500D02*
D03*
Y31500D02*
D03*
X-3000Y37100D02*
D03*
X44800D02*
D03*
X-5000Y40700D02*
D03*
X60400Y38100D02*
D03*
X50000Y37100D02*
D03*
X48100Y40600D02*
D03*
X51500Y35500D02*
D03*
X49569Y28400D02*
D03*
X-9500Y28300D02*
D03*
X43400Y28400D02*
D03*
X45700Y26300D02*
D03*
X-6000Y46300D02*
D03*
X48000Y32000D02*
D03*
X46100D02*
D03*
X-7000D02*
D03*
X-5000D02*
D03*
X40400Y6500D02*
D03*
X38400D02*
D03*
X36400D02*
D03*
X34500D02*
D03*
X32500D02*
D03*
X30500D02*
D03*
X28500D02*
D03*
X26600D02*
D03*
X24600D02*
D03*
X22700D02*
D03*
X20700D02*
D03*
X12800Y7300D02*
D03*
X41000Y27800D02*
D03*
X39400D02*
D03*
X37800D02*
D03*
X36200D02*
D03*
X34600D02*
D03*
X33000D02*
D03*
X31400D02*
D03*
X29800D02*
D03*
X28200D02*
D03*
X26600D02*
D03*
X25000D02*
D03*
X23400D02*
D03*
X21800D02*
D03*
X20200D02*
D03*
X18600D02*
D03*
X-13900Y6900D02*
D03*
X-6900Y11900D02*
D03*
Y6500D02*
D03*
X-8800D02*
D03*
X-16900Y-1700D02*
D03*
X-18600D02*
D03*
X-11200Y27800D02*
D03*
X-12800D02*
D03*
X-14400D02*
D03*
X-16000D02*
D03*
X-17600D02*
D03*
X-19200D02*
D03*
X-20800D02*
D03*
X-22400D02*
D03*
X-24000D02*
D03*
X-25600D02*
D03*
X-27200D02*
D03*
X-28800D02*
D03*
X-30400D02*
D03*
X-32000D02*
D03*
X-33600D02*
D03*
X-19083Y-15383D02*
D03*
Y-17352D02*
D03*
X-25000Y-17352D02*
D03*
X-19083Y-39006D02*
D03*
X-17115Y-37037D02*
D03*
X-23020D02*
D03*
X-19083D02*
D03*
X-17115Y-23257D02*
D03*
X-59000Y-52272D02*
D03*
Y-48728D02*
D03*
Y-46272D02*
D03*
Y-42728D02*
D03*
Y-40272D02*
D03*
Y-36728D02*
D03*
Y-34272D02*
D03*
Y-30728D02*
D03*
X-9772Y-56500D02*
D03*
X-6228D02*
D03*
X11500Y-52800D02*
D03*
Y-49200D02*
D03*
X29068Y-32314D02*
D03*
X-39800Y-17300D02*
D03*
X-42706Y-21289D02*
D03*
X-32863D02*
D03*
X-30827Y-39342D02*
D03*
X-28926Y-37037D02*
D03*
X19075Y-68500D02*
D03*
X9709D02*
D03*
X15335Y-62501D02*
D03*
X15925Y-68500D02*
D03*
X19075Y-65500D02*
D03*
X15925D02*
D03*
X21075Y-59000D02*
D03*
X17925D02*
D03*
X1500Y-48200D02*
D03*
X-42706Y-40974D02*
D03*
X4500Y-49800D02*
D03*
X-15000Y-53900D02*
D03*
X-17115Y-52785D02*
D03*
Y-48848D02*
D03*
Y-50817D02*
D03*
X260Y-70075D02*
D03*
X-1315Y-65350D02*
D03*
X3409Y-59051D02*
D03*
X-1315D02*
D03*
X1835Y-57476D02*
D03*
X-34832Y-37037D02*
D03*
Y-35069D02*
D03*
Y-33100D02*
D03*
X8000Y-46000D02*
D03*
X-1500Y-45900D02*
D03*
X-10400Y-54000D02*
D03*
X8134Y-60626D02*
D03*
Y-59051D02*
D03*
X8134Y-55400D02*
D03*
X9700D02*
D03*
X9709Y-60626D02*
D03*
X11200Y-57500D02*
D03*
X16100Y-52900D02*
D03*
X21637Y-47547D02*
D03*
X19468Y-62501D02*
D03*
X-7500Y-48031D02*
D03*
X-4499Y-48032D02*
D03*
X-1315Y-63776D02*
D03*
X6559Y-66925D02*
D03*
X11283D02*
D03*
X9709Y-65350D02*
D03*
X4984Y-60626D02*
D03*
X-24989Y-21289D02*
D03*
X-32863Y-35069D02*
D03*
X-23020Y-19320D02*
D03*
X-19083Y-46880D02*
D03*
X-17115Y-13415D02*
D03*
X-23020Y-44911D02*
D03*
X-30895Y-40974D02*
D03*
X-23020D02*
D03*
X-28926D02*
D03*
X-24989Y-39006D02*
D03*
X-28926D02*
D03*
X-24989Y-37037D02*
D03*
X-28926Y-35069D02*
D03*
X-38769Y-37037D02*
D03*
X-36800D02*
D03*
X-32863D02*
D03*
X-28926Y-33100D02*
D03*
X-32863D02*
D03*
X-36800D02*
D03*
X-38769D02*
D03*
Y-31132D02*
D03*
X-36800D02*
D03*
X-32863D02*
D03*
X-28926D02*
D03*
X-23020Y-29163D02*
D03*
X-28926D02*
D03*
X-32863D02*
D03*
X-36800D02*
D03*
X-38769D02*
D03*
X-28926Y-27194D02*
D03*
X-30895Y-25226D02*
D03*
X-28926D02*
D03*
X-24989D02*
D03*
Y-19320D02*
D03*
X-23020Y-15383D02*
D03*
X-24989D02*
D03*
Y-13415D02*
D03*
X-36800Y-19320D02*
D03*
Y-25226D02*
D03*
X-38769Y-15383D02*
D03*
X-42706Y-25226D02*
D03*
X-44674D02*
D03*
X-40737Y-33100D02*
D03*
X-44674Y-35069D02*
D03*
X-40737Y-37037D02*
D03*
X-44674D02*
D03*
Y-39006D02*
D03*
Y-40974D02*
D03*
X-54517Y-50817D02*
D03*
X-56485D02*
D03*
X-54517Y-46880D02*
D03*
X-56485D02*
D03*
X-54517Y-42943D02*
D03*
X-56485D02*
D03*
Y-39006D02*
D03*
X-54517D02*
D03*
Y-35069D02*
D03*
X-56485D02*
D03*
X-44674Y-21289D02*
D03*
X-46643D02*
D03*
X-42706Y-19320D02*
D03*
X-44674D02*
D03*
X-54517D02*
D03*
X-56485D02*
D03*
X-54517Y-17352D02*
D03*
X-44674Y-13415D02*
D03*
X-48611D02*
D03*
X9709Y-62201D02*
D03*
X6600Y-62200D02*
D03*
X9709Y-63776D02*
D03*
X260Y-68500D02*
D03*
X1835D02*
D03*
X-1315Y-57476D02*
D03*
X260D02*
D03*
X-9700Y-60625D02*
D03*
X-40737Y-29163D02*
D03*
Y-31132D02*
D03*
X-26957Y-52785D02*
D03*
X-38769D02*
D03*
Y-44911D02*
D03*
X-34832Y-31132D02*
D03*
X-30895Y-13415D02*
D03*
X-32863Y-25226D02*
D03*
X-38800Y-23257D02*
D03*
X-38769Y-25226D02*
D03*
X-36800Y-27194D02*
D03*
X-46643Y-52785D02*
D03*
X-32500Y-7600D02*
D03*
X-59000Y-19083D02*
D03*
X-17115Y-42943D02*
D03*
X-26957Y-19320D02*
D03*
X-49381Y8312D02*
D03*
X-52600Y-25200D02*
D03*
X-32863Y-19320D02*
D03*
X-34832Y-25226D02*
D03*
X-21052Y-33100D02*
D03*
X-46643Y-17352D02*
D03*
X-48611Y-15383D02*
D03*
X-50580D02*
D03*
X-48611Y-42943D02*
D03*
Y-37037D02*
D03*
Y-25226D02*
D03*
Y-23257D02*
D03*
Y-21289D02*
D03*
Y-19320D02*
D03*
X-50580Y-35069D02*
D03*
Y-21289D02*
D03*
Y-19320D02*
D03*
X-19083Y-27194D02*
D03*
Y-23257D02*
D03*
X-23020D02*
D03*
Y-21289D02*
D03*
X-24989Y-23257D02*
D03*
X-21052D02*
D03*
X-17115Y-19320D02*
D03*
Y-21289D02*
D03*
X-46643Y-19320D02*
D03*
X-23020Y-35069D02*
D03*
Y-39006D02*
D03*
Y-33100D02*
D03*
X-24989Y-35069D02*
D03*
Y-33100D02*
D03*
X-19083D02*
D03*
Y-35069D02*
D03*
X-17115Y-33100D02*
D03*
X-56485Y-13415D02*
D03*
Y-15383D02*
D03*
Y-17352D02*
D03*
X-54517Y-13415D02*
D03*
Y-15383D02*
D03*
X-17115Y-29163D02*
D03*
X-24989D02*
D03*
X-23020Y-31132D02*
D03*
X-17115Y-25226D02*
D03*
X-23020Y-25226D02*
D03*
X-17115Y-31132D02*
D03*
X-17100Y-27200D02*
D03*
X-23020Y-27194D02*
D03*
X-50600Y-11900D02*
D03*
X-52548Y-13415D02*
D03*
X18700Y6500D02*
D03*
X14800D02*
D03*
X16800D02*
D03*
X-9000Y37100D02*
D03*
X44500Y-432D02*
D03*
X6568Y24901D02*
D03*
X-28900Y-49100D02*
D03*
X-22800Y12000D02*
D03*
X-22600Y8800D02*
D03*
X-28200Y7200D02*
D03*
X-26500D02*
D03*
X-24500D02*
D03*
X-4900Y75000D02*
D03*
X-6800D02*
D03*
X-8800D02*
D03*
X-10800D02*
D03*
X-12700D02*
D03*
X-14700D02*
D03*
X-16700D02*
D03*
X-18600D02*
D03*
X-20600D02*
D03*
X-24500D02*
D03*
X-22500D02*
D03*
X-26500D02*
D03*
X-28500D02*
D03*
X-30400D02*
D03*
X-32400D02*
D03*
X12900D02*
D03*
X14800D02*
D03*
X16800D02*
D03*
X18800D02*
D03*
X20800D02*
D03*
X22700D02*
D03*
X24700D02*
D03*
X26600D02*
D03*
X28600D02*
D03*
X30600D02*
D03*
X32500D02*
D03*
X34500D02*
D03*
X36500D02*
D03*
X38500D02*
D03*
X40400D02*
D03*
X-30900Y-49200D02*
D03*
X-58100Y48100D02*
D03*
X-57800Y45100D02*
D03*
X55700Y49300D02*
D03*
Y46300D02*
D03*
X46800Y49300D02*
D03*
Y46300D02*
D03*
X8700Y60700D02*
D03*
X-40737Y-35069D02*
D03*
X-38769D02*
D03*
X-36800D02*
D03*
X-11200Y44500D02*
D03*
X-14400D02*
D03*
X-12800D02*
D03*
X-16000D02*
D03*
X-17600D02*
D03*
X-19200D02*
D03*
X-20800D02*
D03*
X-22400D02*
D03*
X-24000D02*
D03*
X-25600D02*
D03*
X-27200D02*
D03*
X-28800D02*
D03*
X-30400D02*
D03*
X-33600D02*
D03*
X-32000D02*
D03*
X18600D02*
D03*
X25000D02*
D03*
X26600D02*
D03*
X28200D02*
D03*
X29800D02*
D03*
X31400D02*
D03*
X33000D02*
D03*
X34600D02*
D03*
X36200D02*
D03*
X37800D02*
D03*
X39400D02*
D03*
X41000D02*
D03*
X20200Y44800D02*
D03*
X21800D02*
D03*
X23400D02*
D03*
X-43500Y55400D02*
D03*
X-12400Y6900D02*
D03*
X-10800D02*
D03*
D57*
X-12500Y-6400D02*
D03*
X3800Y-6300D02*
D03*
X-1400Y-7900D02*
D03*
X-17800D02*
D03*
X44000Y62600D02*
D03*
X49000Y55600D02*
D03*
X28548Y42000D02*
D03*
X28500Y30600D02*
D03*
X-48800Y-5000D02*
D03*
X-52800Y-1600D02*
D03*
X-29800Y9200D02*
D03*
X-27000Y9900D02*
D03*
X56157Y58700D02*
D03*
Y62200D02*
D03*
X-53400Y4900D02*
D03*
X-52300Y3000D02*
D03*
X49272Y23400D02*
D03*
X-3500Y50000D02*
D03*
X-8000D02*
D03*
X-27200Y21400D02*
D03*
X-15300Y9700D02*
D03*
X-49346Y28500D02*
D03*
X-55500D02*
D03*
X14082Y64800D02*
D03*
X5400Y40300D02*
D03*
X27800Y-7300D02*
D03*
X18000Y-3500D02*
D03*
Y-5500D02*
D03*
X15500Y-8900D02*
D03*
X29100Y64818D02*
D03*
X24100D02*
D03*
X19100D02*
D03*
X-48900Y21600D02*
D03*
Y24200D02*
D03*
X59700Y58700D02*
D03*
Y62200D02*
D03*
Y65700D02*
D03*
X56157D02*
D03*
X60783Y69700D02*
D03*
X55074D02*
D03*
X-45728Y60500D02*
D03*
X-51500Y57000D02*
D03*
X-45728Y64000D02*
D03*
X-43146Y69000D02*
D03*
X-59854D02*
D03*
X-57272Y64000D02*
D03*
Y60500D02*
D03*
Y57000D02*
D03*
X-45728D02*
D03*
X-51500Y60500D02*
D03*
Y64000D02*
D03*
Y69000D02*
D03*
X-40100Y-2000D02*
D03*
X25500Y-3500D02*
D03*
X32900D02*
D03*
X11800Y-7900D02*
D03*
X9000D02*
D03*
X-13700Y20800D02*
D03*
X-15300Y21700D02*
D03*
X-29800Y21400D02*
D03*
X34600Y-17554D02*
D03*
Y-11846D02*
D03*
X41872Y-8600D02*
D03*
X38328D02*
D03*
X41872Y-11700D02*
D03*
X38328D02*
D03*
X41872Y-14800D02*
D03*
X38328D02*
D03*
X41872Y-17900D02*
D03*
X38328Y-21000D02*
D03*
X41872D02*
D03*
X11800Y-4328D02*
D03*
X8900D02*
D03*
X6000D02*
D03*
X-1400D02*
D03*
X-17800Y-4300D02*
D03*
X-8772Y-68500D02*
D03*
Y-65500D02*
D03*
X-5200D02*
D03*
X7500Y-31600D02*
D03*
X15500Y-30158D02*
D03*
X-12500Y-4500D02*
D03*
X-29000Y-4000D02*
D03*
Y-6500D02*
D03*
X-40000Y-5342D02*
D03*
X1000Y21500D02*
D03*
X3000D02*
D03*
X15500Y-24843D02*
D03*
X20100Y-24725D02*
D03*
Y-27875D02*
D03*
X26100Y-24725D02*
D03*
Y-27875D02*
D03*
X-53300Y9800D02*
D03*
X-57100D02*
D03*
X3800Y-4300D02*
D03*
X34100Y60600D02*
D03*
X39300Y62600D02*
D03*
X47200Y-10400D02*
D03*
X49300D02*
D03*
X900Y9600D02*
D03*
X-1000D02*
D03*
X-18600Y9700D02*
D03*
X38328Y-17900D02*
D03*
D58*
X20173Y-36949D02*
D03*
X29068Y-24811D02*
D03*
X32100Y-27122D02*
D03*
X1276Y-33799D02*
D03*
Y-36949D02*
D03*
X-1874D02*
D03*
X1276Y-40098D02*
D03*
X20173Y-21201D02*
D03*
X4425Y-40098D02*
D03*
Y-33799D02*
D03*
X10724Y-40098D02*
D03*
X1276Y-21201D02*
D03*
X-1874Y-40098D02*
D03*
Y-33799D02*
D03*
X-8173Y-40098D02*
D03*
Y-33799D02*
D03*
Y-36949D02*
D03*
X-5024Y-40098D02*
D03*
Y-21201D02*
D03*
X-8173D02*
D03*
X13874Y-40098D02*
D03*
X17024Y-36949D02*
D03*
Y-33799D02*
D03*
X13874D02*
D03*
Y-36949D02*
D03*
X-5024D02*
D03*
Y-33799D02*
D03*
X17024Y-40098D02*
D03*
X20173D02*
D03*
Y-33799D02*
D03*
Y-14902D02*
D03*
X13874D02*
D03*
X4425D02*
D03*
X-8173D02*
D03*
X20173Y-18051D02*
D03*
X17024Y-14902D02*
D03*
X13874Y-21201D02*
D03*
Y-18051D02*
D03*
X10724Y-21201D02*
D03*
Y-18051D02*
D03*
Y-14902D02*
D03*
X7575Y-21201D02*
D03*
X4425Y-18051D02*
D03*
X-1874Y-21201D02*
D03*
X1276Y-14902D02*
D03*
X7575D02*
D03*
Y-18051D02*
D03*
Y-40098D02*
D03*
X34468Y-39782D02*
D03*
X36968D02*
D03*
X1276Y-18051D02*
D03*
X10724Y-36949D02*
D03*
X7575Y-33799D02*
D03*
D59*
X46000Y-67400D02*
D03*
X42500D02*
D03*
X39000D02*
D03*
M02*
