G04 Layer_Color=8388736*
%FSLAX25Y25*%
%MOIN*%
G70*
G01*
G75*
%ADD52C,0.01968*%
%ADD83R,0.01378X0.01575*%
%ADD84R,0.03550X0.03550*%
%ADD85R,0.03313X0.09849*%
%ADD86R,0.02368X0.02368*%
%ADD87R,0.02054X0.02565*%
%ADD88R,0.02368X0.02368*%
%ADD89R,0.03156X0.03550*%
%ADD90R,0.03550X0.03156*%
%ADD91R,0.02565X0.02054*%
%ADD92R,0.01575X0.01575*%
%ADD93R,0.02368X0.01975*%
%ADD94R,0.03156X0.09455*%
%ADD95R,0.01581X0.01975*%
%ADD96R,0.06699X0.04337*%
%ADD97R,0.05124X0.04731*%
%ADD98C,0.01509*%
%ADD99C,0.01109*%
%ADD100C,0.01260*%
%ADD101R,0.04731X0.05124*%
%ADD102R,0.03550X0.01778*%
%ADD103R,0.01778X0.03550*%
%ADD104R,0.10243X0.10243*%
%ADD105R,0.05991X0.02802*%
%ADD106R,0.01384X0.02861*%
G04:AMPARAMS|DCode=107|XSize=28.61mil|YSize=13.84mil|CornerRadius=4.46mil|HoleSize=0mil|Usage=FLASHONLY|Rotation=90.000|XOffset=0mil|YOffset=0mil|HoleType=Round|Shape=RoundedRectangle|*
%AMROUNDEDRECTD107*
21,1,0.02861,0.00492,0,0,90.0*
21,1,0.01968,0.01384,0,0,90.0*
1,1,0.00892,0.00246,0.00984*
1,1,0.00892,0.00246,-0.00984*
1,1,0.00892,-0.00246,-0.00984*
1,1,0.00892,-0.00246,0.00984*
%
%ADD107ROUNDEDRECTD107*%
%ADD108R,0.03550X0.03550*%
%ADD109R,0.04400X0.10400*%
%ADD110R,0.02362X0.01575*%
%ADD111C,0.02172*%
%ADD112C,0.01384*%
%ADD113R,0.05400X0.04337*%
%ADD114C,0.01279*%
%ADD115R,0.05715X0.01975*%
%ADD116R,0.06502X0.06876*%
%ADD117R,0.06502X0.06305*%
%ADD118C,0.06305*%
%ADD119O,0.06502X0.03943*%
%ADD120O,0.03943X0.05321*%
D52*
X46520Y3594D02*
D03*
X-38520D02*
D03*
Y69006D02*
D03*
X46520D02*
D03*
D83*
X16119Y38212D02*
D03*
X18481D02*
D03*
X16119Y30612D02*
D03*
X18481D02*
D03*
X16119Y34312D02*
D03*
X18481D02*
D03*
Y41912D02*
D03*
X16119D02*
D03*
D84*
X28548Y34400D02*
D03*
X22052D02*
D03*
Y30600D02*
D03*
X28548D02*
D03*
Y42000D02*
D03*
X22052D02*
D03*
Y38200D02*
D03*
X28548D02*
D03*
D85*
X34000Y62718D02*
D03*
X29000D02*
D03*
X24000D02*
D03*
X19000D02*
D03*
X14000D02*
D03*
X39000Y62600D02*
D03*
X44000D02*
D03*
X49000D02*
D03*
X-18402Y68854D02*
D03*
Y53382D02*
D03*
X-13402Y68854D02*
D03*
Y53382D02*
D03*
X1598Y68854D02*
D03*
X-3402D02*
D03*
X-8402D02*
D03*
Y53382D02*
D03*
X-3402D02*
D03*
X1598D02*
D03*
X-23638Y68854D02*
D03*
Y53382D02*
D03*
D86*
X49231Y49301D02*
D03*
X53168D02*
D03*
X-831Y29000D02*
D03*
X-4769D02*
D03*
X49468Y42500D02*
D03*
X45531D02*
D03*
X41932Y-36301D02*
D03*
X45869D02*
D03*
X-18932Y47001D02*
D03*
X-22869D02*
D03*
X57968Y35001D02*
D03*
X54031D02*
D03*
X49569Y28400D02*
D03*
X45632D02*
D03*
X-7668Y43000D02*
D03*
X-3731D02*
D03*
X4468Y35001D02*
D03*
X532D02*
D03*
X19468Y-62501D02*
D03*
X15531D02*
D03*
D87*
X-45728Y60500D02*
D03*
X-49272D02*
D03*
X-53728Y57000D02*
D03*
X-57272D02*
D03*
X-53728Y64000D02*
D03*
X-57272D02*
D03*
X-45728D02*
D03*
X-49272D02*
D03*
X-4572Y26300D02*
D03*
X-1028D02*
D03*
X45728Y23400D02*
D03*
X49272D02*
D03*
X-51668Y52053D02*
D03*
X-55211D02*
D03*
X-49272Y57000D02*
D03*
X-45728D02*
D03*
X52972Y46300D02*
D03*
X49428D02*
D03*
X-3772D02*
D03*
X-228D02*
D03*
X21272Y-59000D02*
D03*
X17728D02*
D03*
X19272Y-65500D02*
D03*
X15728D02*
D03*
Y-68500D02*
D03*
X19272D02*
D03*
X-9772Y-56500D02*
D03*
X-6228D02*
D03*
X-8772Y-68500D02*
D03*
X-5228D02*
D03*
Y-65500D02*
D03*
X-8772D02*
D03*
X-53728Y60500D02*
D03*
X-57272D02*
D03*
X59700Y58700D02*
D03*
X56157D02*
D03*
Y65700D02*
D03*
X59700D02*
D03*
Y62200D02*
D03*
X56157D02*
D03*
D88*
X29068Y-36251D02*
D03*
Y-32314D02*
D03*
X32100Y-31058D02*
D03*
Y-27121D02*
D03*
X29500Y-39832D02*
D03*
Y-43769D02*
D03*
X35100Y-31058D02*
D03*
Y-27121D02*
D03*
X38401Y-21032D02*
D03*
Y-24969D02*
D03*
X-1500Y-48031D02*
D03*
Y-51968D02*
D03*
X-4499Y-48031D02*
D03*
Y-51968D02*
D03*
X-42101Y10768D02*
D03*
Y6831D02*
D03*
X8700Y63669D02*
D03*
Y59732D02*
D03*
X-31999Y60532D02*
D03*
Y64468D02*
D03*
X5601Y64368D02*
D03*
Y60431D02*
D03*
X-32000Y57468D02*
D03*
Y53531D02*
D03*
X-38001D02*
D03*
Y57468D02*
D03*
X-35001D02*
D03*
Y53531D02*
D03*
X35601Y-4369D02*
D03*
Y-432D02*
D03*
X15200Y-6469D02*
D03*
Y-2531D02*
D03*
X-10501Y-48031D02*
D03*
Y-51968D02*
D03*
X4499D02*
D03*
Y-48031D02*
D03*
X7999D02*
D03*
Y-51968D02*
D03*
X1500D02*
D03*
Y-48031D02*
D03*
X40501Y15969D02*
D03*
Y12032D02*
D03*
X34201Y16169D02*
D03*
Y12231D02*
D03*
D89*
X57954Y39400D02*
D03*
X52246D02*
D03*
X38823Y-47782D02*
D03*
X33114D02*
D03*
X-354Y39400D02*
D03*
X5354D02*
D03*
X-19854Y16500D02*
D03*
X-14146D02*
D03*
X-3854D02*
D03*
X1854D02*
D03*
X-34854D02*
D03*
X-29146D02*
D03*
X55074Y69700D02*
D03*
X60783D02*
D03*
X-43146Y69000D02*
D03*
X-48854D02*
D03*
X-59854D02*
D03*
X-54146D02*
D03*
D90*
X-11500Y4146D02*
D03*
Y9854D02*
D03*
X4764Y4146D02*
D03*
Y9854D02*
D03*
X-26000Y4146D02*
D03*
Y9854D02*
D03*
D91*
X29068Y-24811D02*
D03*
Y-28354D02*
D03*
X-52800Y25028D02*
D03*
Y28572D02*
D03*
X-43000Y-5272D02*
D03*
Y-1728D02*
D03*
X-59000Y-5272D02*
D03*
Y-1728D02*
D03*
X11500Y-52772D02*
D03*
Y-49228D02*
D03*
X-7500Y-48028D02*
D03*
Y-51572D02*
D03*
D92*
X-47700Y53083D02*
D03*
Y50917D02*
D03*
D93*
X42500Y-43050D02*
D03*
Y-39900D02*
D03*
X38400Y-30675D02*
D03*
Y-27525D02*
D03*
D94*
X-37024Y-3831D02*
D03*
X-27976D02*
D03*
X-21524Y-2831D02*
D03*
X-12476D02*
D03*
X-6260D02*
D03*
X2788D02*
D03*
D95*
X-35059Y5563D02*
D03*
X-32500D02*
D03*
X-29941D02*
D03*
Y13437D02*
D03*
X-32500D02*
D03*
X-35059D02*
D03*
X-20559Y5563D02*
D03*
X-18000D02*
D03*
X-15441D02*
D03*
Y13437D02*
D03*
X-18000D02*
D03*
X-20559D02*
D03*
X-4295Y5563D02*
D03*
X-1736D02*
D03*
X823D02*
D03*
Y13437D02*
D03*
X-1736D02*
D03*
X-4295D02*
D03*
D96*
X-32500Y9500D02*
D03*
X-18000D02*
D03*
X-1736D02*
D03*
D97*
X-54193Y-520D02*
D03*
X-54193Y-6032D02*
D03*
X-47501Y-520D02*
D03*
Y-6032D02*
D03*
D98*
X-1315Y-57476D02*
D03*
D99*
X260D02*
D03*
X1835D02*
D03*
X3409D02*
D03*
X4984D02*
D03*
X6559D02*
D03*
X8134D02*
D03*
X9709D02*
D03*
X-1315Y-59051D02*
D03*
X3409D02*
D03*
X4984D02*
D03*
X6559D02*
D03*
X8134D02*
D03*
X9709D02*
D03*
X11283D02*
D03*
X-1315Y-60626D02*
D03*
X4984D02*
D03*
X6559D02*
D03*
X8134D02*
D03*
X9709D02*
D03*
X11283D02*
D03*
X-1315Y-62201D02*
D03*
X8134D02*
D03*
X9709D02*
D03*
X11283D02*
D03*
X-1315Y-63776D02*
D03*
X260D02*
D03*
X1835D02*
D03*
X8134D02*
D03*
X9709D02*
D03*
X11283D02*
D03*
X-1315Y-65350D02*
D03*
X260D02*
D03*
X1835D02*
D03*
X8134D02*
D03*
X9709D02*
D03*
X11283D02*
D03*
X-1315Y-66925D02*
D03*
X260D02*
D03*
X1835D02*
D03*
X3409D02*
D03*
X4984D02*
D03*
X6559D02*
D03*
X8134D02*
D03*
X9709D02*
D03*
X11283D02*
D03*
X-1315Y-68500D02*
D03*
X260D02*
D03*
X1835D02*
D03*
X3409D02*
D03*
X4984D02*
D03*
X6559D02*
D03*
X8134D02*
D03*
X9709D02*
D03*
X11283D02*
D03*
X260Y-70075D02*
D03*
X1835D02*
D03*
X3409D02*
D03*
X4984D02*
D03*
X6559D02*
D03*
X8134D02*
D03*
X9709D02*
D03*
D100*
X-9700Y-62200D02*
D03*
X-7731D02*
D03*
X-9700Y-60625D02*
D03*
X-5763Y-62200D02*
D03*
Y-60625D02*
D03*
D101*
X21637Y-47547D02*
D03*
X16125Y-47547D02*
D03*
X21637Y-54240D02*
D03*
X16125D02*
D03*
D102*
X-42726Y35279D02*
D03*
Y37247D02*
D03*
Y39216D02*
D03*
Y41184D02*
D03*
Y43153D02*
D03*
Y45121D02*
D03*
X-58474D02*
D03*
Y43153D02*
D03*
Y41184D02*
D03*
Y39216D02*
D03*
Y37247D02*
D03*
Y35279D02*
D03*
D103*
X-55521Y32326D02*
D03*
X-53553D02*
D03*
X-51584D02*
D03*
X-49616D02*
D03*
X-47647D02*
D03*
X-45679D02*
D03*
X-55521Y48074D02*
D03*
X-53553D02*
D03*
X-51584D02*
D03*
X-49616D02*
D03*
X-47647D02*
D03*
X-45679D02*
D03*
D104*
X-50600Y40200D02*
D03*
D105*
X35969Y-39882D02*
D03*
D106*
X37937Y-36290D02*
D03*
X35969D02*
D03*
X34000D02*
D03*
X37937Y-43475D02*
D03*
X35969D02*
D03*
D107*
X34000D02*
D03*
D108*
X45900Y-49648D02*
D03*
Y-43152D02*
D03*
D109*
X-21000Y-63390D02*
D03*
X-47000D02*
D03*
D110*
X20200Y-1531D02*
D03*
Y-3500D02*
D03*
Y-5469D02*
D03*
X23153D02*
D03*
Y-1531D02*
D03*
Y-3500D02*
D03*
X27747D02*
D03*
Y-5469D02*
D03*
Y-1531D02*
D03*
X30700D02*
D03*
Y-3500D02*
D03*
Y-5469D02*
D03*
D111*
X-8173Y-40098D02*
D03*
Y-36949D02*
D03*
Y-33799D02*
D03*
Y-21201D02*
D03*
Y-18051D02*
D03*
Y-14902D02*
D03*
X20173D02*
D03*
Y-18051D02*
D03*
Y-21201D02*
D03*
Y-33799D02*
D03*
Y-36949D02*
D03*
Y-40098D02*
D03*
X17024Y-14902D02*
D03*
Y-18051D02*
D03*
Y-21201D02*
D03*
Y-33799D02*
D03*
Y-36949D02*
D03*
Y-40098D02*
D03*
X13874Y-14902D02*
D03*
Y-18051D02*
D03*
Y-21201D02*
D03*
Y-33799D02*
D03*
Y-36949D02*
D03*
Y-40098D02*
D03*
X10724Y-14902D02*
D03*
Y-18051D02*
D03*
Y-21201D02*
D03*
Y-33799D02*
D03*
Y-36949D02*
D03*
Y-40098D02*
D03*
X7575Y-14902D02*
D03*
Y-18051D02*
D03*
Y-21201D02*
D03*
Y-33799D02*
D03*
Y-36949D02*
D03*
Y-40098D02*
D03*
X4425Y-14902D02*
D03*
Y-18051D02*
D03*
Y-21201D02*
D03*
Y-33799D02*
D03*
Y-36949D02*
D03*
Y-40098D02*
D03*
X1276Y-14902D02*
D03*
Y-18051D02*
D03*
Y-21201D02*
D03*
Y-33799D02*
D03*
Y-36949D02*
D03*
Y-40098D02*
D03*
X-1874Y-14902D02*
D03*
Y-18051D02*
D03*
Y-21201D02*
D03*
Y-33799D02*
D03*
Y-36949D02*
D03*
Y-40098D02*
D03*
X-5024Y-14902D02*
D03*
Y-18051D02*
D03*
Y-21201D02*
D03*
Y-33799D02*
D03*
Y-36949D02*
D03*
Y-40098D02*
D03*
D112*
X-56485Y-52785D02*
D03*
Y-50817D02*
D03*
Y-48848D02*
D03*
Y-46880D02*
D03*
Y-44911D02*
D03*
Y-42943D02*
D03*
Y-40974D02*
D03*
Y-39006D02*
D03*
Y-37037D02*
D03*
Y-35069D02*
D03*
Y-33100D02*
D03*
Y-31132D02*
D03*
Y-29163D02*
D03*
Y-27194D02*
D03*
Y-25226D02*
D03*
Y-23257D02*
D03*
Y-21289D02*
D03*
Y-19320D02*
D03*
Y-17352D02*
D03*
Y-15383D02*
D03*
Y-13415D02*
D03*
X-54517Y-52785D02*
D03*
Y-50817D02*
D03*
Y-48848D02*
D03*
Y-46880D02*
D03*
Y-44911D02*
D03*
Y-42943D02*
D03*
Y-40974D02*
D03*
Y-39006D02*
D03*
Y-37037D02*
D03*
Y-35069D02*
D03*
Y-33100D02*
D03*
Y-31132D02*
D03*
Y-29163D02*
D03*
Y-27194D02*
D03*
Y-25226D02*
D03*
Y-23257D02*
D03*
Y-21289D02*
D03*
Y-19320D02*
D03*
Y-17352D02*
D03*
Y-15383D02*
D03*
Y-13415D02*
D03*
X-52548Y-52785D02*
D03*
Y-50817D02*
D03*
Y-42943D02*
D03*
Y-33100D02*
D03*
Y-23257D02*
D03*
Y-15383D02*
D03*
Y-13415D02*
D03*
X-50580Y-52785D02*
D03*
Y-50817D02*
D03*
Y-46880D02*
D03*
Y-44911D02*
D03*
Y-42943D02*
D03*
Y-40974D02*
D03*
Y-39006D02*
D03*
Y-37037D02*
D03*
Y-35069D02*
D03*
Y-33100D02*
D03*
Y-31132D02*
D03*
Y-29163D02*
D03*
Y-27194D02*
D03*
Y-25226D02*
D03*
Y-23257D02*
D03*
Y-21289D02*
D03*
Y-19320D02*
D03*
Y-15383D02*
D03*
Y-13415D02*
D03*
X-48611Y-52785D02*
D03*
Y-50817D02*
D03*
Y-46880D02*
D03*
Y-44911D02*
D03*
Y-42943D02*
D03*
Y-40974D02*
D03*
Y-39006D02*
D03*
Y-37037D02*
D03*
Y-35069D02*
D03*
Y-33100D02*
D03*
Y-31132D02*
D03*
Y-29163D02*
D03*
Y-27194D02*
D03*
Y-25226D02*
D03*
Y-23257D02*
D03*
Y-21289D02*
D03*
Y-19320D02*
D03*
Y-15383D02*
D03*
Y-13415D02*
D03*
X-46643Y-52785D02*
D03*
Y-50817D02*
D03*
Y-48848D02*
D03*
Y-46880D02*
D03*
Y-44911D02*
D03*
Y-21289D02*
D03*
Y-19320D02*
D03*
Y-17352D02*
D03*
Y-15383D02*
D03*
Y-13415D02*
D03*
X-44674Y-52785D02*
D03*
Y-50817D02*
D03*
Y-46880D02*
D03*
Y-44911D02*
D03*
Y-40974D02*
D03*
Y-39006D02*
D03*
Y-37037D02*
D03*
Y-35069D02*
D03*
Y-33100D02*
D03*
Y-31132D02*
D03*
Y-29163D02*
D03*
Y-27194D02*
D03*
Y-25226D02*
D03*
Y-21289D02*
D03*
Y-19320D02*
D03*
Y-15383D02*
D03*
Y-13415D02*
D03*
X-42706Y-52785D02*
D03*
Y-50817D02*
D03*
Y-46880D02*
D03*
Y-44911D02*
D03*
Y-40974D02*
D03*
Y-25226D02*
D03*
Y-21289D02*
D03*
Y-19320D02*
D03*
Y-15383D02*
D03*
Y-13415D02*
D03*
X-40737Y-52785D02*
D03*
Y-50817D02*
D03*
Y-46880D02*
D03*
Y-44911D02*
D03*
Y-40974D02*
D03*
Y-37037D02*
D03*
Y-35069D02*
D03*
Y-33100D02*
D03*
Y-31132D02*
D03*
Y-29163D02*
D03*
Y-25226D02*
D03*
Y-21289D02*
D03*
Y-19320D02*
D03*
Y-15383D02*
D03*
Y-13415D02*
D03*
X-38769Y-52785D02*
D03*
Y-50817D02*
D03*
Y-46880D02*
D03*
Y-44911D02*
D03*
Y-40974D02*
D03*
Y-37037D02*
D03*
Y-35069D02*
D03*
Y-33100D02*
D03*
Y-31132D02*
D03*
Y-29163D02*
D03*
Y-25226D02*
D03*
Y-21289D02*
D03*
Y-19320D02*
D03*
Y-15383D02*
D03*
Y-13415D02*
D03*
X-36800Y-52785D02*
D03*
Y-50817D02*
D03*
Y-48848D02*
D03*
Y-46880D02*
D03*
Y-44911D02*
D03*
Y-40974D02*
D03*
Y-37037D02*
D03*
Y-35069D02*
D03*
Y-33100D02*
D03*
Y-31132D02*
D03*
Y-29163D02*
D03*
Y-25226D02*
D03*
Y-21289D02*
D03*
Y-19320D02*
D03*
Y-17352D02*
D03*
Y-15383D02*
D03*
Y-13415D02*
D03*
X-34832Y-52785D02*
D03*
Y-50817D02*
D03*
Y-46880D02*
D03*
Y-44911D02*
D03*
Y-40974D02*
D03*
Y-37037D02*
D03*
Y-35069D02*
D03*
Y-33100D02*
D03*
Y-31132D02*
D03*
Y-29163D02*
D03*
Y-25226D02*
D03*
Y-21289D02*
D03*
Y-19320D02*
D03*
Y-15383D02*
D03*
Y-13415D02*
D03*
X-32863Y-52785D02*
D03*
Y-50817D02*
D03*
Y-46880D02*
D03*
Y-44911D02*
D03*
Y-40974D02*
D03*
Y-37037D02*
D03*
Y-35069D02*
D03*
Y-33100D02*
D03*
Y-31132D02*
D03*
Y-29163D02*
D03*
Y-25226D02*
D03*
Y-21289D02*
D03*
Y-19320D02*
D03*
Y-15383D02*
D03*
Y-13415D02*
D03*
X-30895Y-52785D02*
D03*
Y-50817D02*
D03*
Y-46880D02*
D03*
Y-44911D02*
D03*
Y-40974D02*
D03*
Y-25226D02*
D03*
Y-21289D02*
D03*
Y-19320D02*
D03*
Y-15383D02*
D03*
Y-13415D02*
D03*
X-28926Y-52785D02*
D03*
Y-50817D02*
D03*
Y-46880D02*
D03*
Y-44911D02*
D03*
Y-40974D02*
D03*
Y-39006D02*
D03*
Y-37037D02*
D03*
Y-35069D02*
D03*
Y-33100D02*
D03*
Y-31132D02*
D03*
Y-29163D02*
D03*
Y-27194D02*
D03*
Y-25226D02*
D03*
Y-21289D02*
D03*
Y-19320D02*
D03*
Y-15383D02*
D03*
Y-13415D02*
D03*
X-26957Y-52785D02*
D03*
Y-50817D02*
D03*
Y-48848D02*
D03*
Y-46880D02*
D03*
Y-44911D02*
D03*
Y-21289D02*
D03*
Y-19320D02*
D03*
Y-17352D02*
D03*
Y-15383D02*
D03*
Y-13415D02*
D03*
X-24989Y-52785D02*
D03*
Y-50817D02*
D03*
Y-46880D02*
D03*
Y-44911D02*
D03*
Y-42943D02*
D03*
Y-40974D02*
D03*
Y-39006D02*
D03*
Y-37037D02*
D03*
Y-35069D02*
D03*
Y-33100D02*
D03*
Y-31132D02*
D03*
Y-29163D02*
D03*
Y-27194D02*
D03*
Y-25226D02*
D03*
Y-23257D02*
D03*
Y-21289D02*
D03*
Y-19320D02*
D03*
Y-15383D02*
D03*
Y-13415D02*
D03*
X-23020Y-52785D02*
D03*
Y-50817D02*
D03*
Y-46880D02*
D03*
Y-44911D02*
D03*
Y-42943D02*
D03*
Y-40974D02*
D03*
Y-39006D02*
D03*
Y-37037D02*
D03*
Y-35069D02*
D03*
Y-33100D02*
D03*
Y-31132D02*
D03*
Y-29163D02*
D03*
Y-27194D02*
D03*
Y-25226D02*
D03*
Y-23257D02*
D03*
Y-21289D02*
D03*
Y-19320D02*
D03*
Y-15383D02*
D03*
Y-13415D02*
D03*
X-21052Y-52785D02*
D03*
Y-50817D02*
D03*
Y-42943D02*
D03*
Y-33100D02*
D03*
Y-23257D02*
D03*
Y-15383D02*
D03*
Y-13415D02*
D03*
X-19083Y-52785D02*
D03*
Y-50817D02*
D03*
Y-48848D02*
D03*
Y-46880D02*
D03*
Y-44911D02*
D03*
Y-42943D02*
D03*
Y-40974D02*
D03*
Y-39006D02*
D03*
Y-37037D02*
D03*
Y-35069D02*
D03*
Y-33100D02*
D03*
Y-31132D02*
D03*
Y-29163D02*
D03*
Y-27194D02*
D03*
Y-25226D02*
D03*
Y-23257D02*
D03*
Y-21289D02*
D03*
Y-19320D02*
D03*
Y-17352D02*
D03*
Y-15383D02*
D03*
Y-13415D02*
D03*
X-17115Y-52785D02*
D03*
Y-50817D02*
D03*
Y-48848D02*
D03*
Y-46880D02*
D03*
Y-44911D02*
D03*
Y-42943D02*
D03*
Y-40974D02*
D03*
Y-39006D02*
D03*
Y-37037D02*
D03*
Y-35069D02*
D03*
Y-33100D02*
D03*
Y-31132D02*
D03*
Y-29163D02*
D03*
Y-27194D02*
D03*
Y-25226D02*
D03*
Y-23257D02*
D03*
Y-21289D02*
D03*
Y-19320D02*
D03*
Y-17352D02*
D03*
Y-15383D02*
D03*
Y-13415D02*
D03*
D113*
X57900Y-67200D02*
D03*
X27900D02*
D03*
D114*
X48084Y34332D02*
D03*
X46116D02*
D03*
X48084Y36300D02*
D03*
X46116D02*
D03*
Y38269D02*
D03*
X48084D02*
D03*
X-5016D02*
D03*
X-6984D02*
D03*
Y36300D02*
D03*
X-5016D02*
D03*
X-6984Y34332D02*
D03*
X-5016D02*
D03*
D115*
X48661Y-20618D02*
D03*
Y-18059D02*
D03*
Y-10382D02*
D03*
Y-12941D02*
D03*
Y-15500D02*
D03*
D116*
X59291Y-27793D02*
D03*
X59291Y-3207D02*
D03*
D117*
X59291Y-19437D02*
D03*
X59291Y-11563D02*
D03*
D118*
X59000Y9963D02*
D03*
Y17837D02*
D03*
X57900Y-42063D02*
D03*
Y-49937D02*
D03*
D119*
X59291Y-1720D02*
D03*
Y-29280D02*
D03*
D120*
X48661Y-5658D02*
D03*
Y-25343D02*
D03*
M02*
