G04 Layer_Color=16711935*
%FSLAX25Y25*%
%MOIN*%
G70*
G01*
G75*
%ADD49C,0.01000*%
%ADD77C,0.00500*%
%ADD80C,0.00394*%
D49*
X-11716Y-11752D02*
X23717D01*
X-11716Y-43248D02*
Y-11752D01*
Y-43248D02*
X23717D01*
Y-11752D01*
X-58454Y-54754D02*
Y-11446D01*
X-15146Y-54754D02*
Y-11446D01*
X-58454Y-54754D02*
X-15146D01*
X-58454Y-11446D02*
X-15146D01*
D77*
X47800Y-30300D02*
X67586D01*
X65000Y-31248D02*
Y248D01*
X67586Y-30300D02*
Y-800D01*
X47800D02*
X67586D01*
X47800Y-30300D02*
Y-800D01*
X63534Y1700D02*
X65534D01*
Y2700D01*
X65200Y3033D01*
X64867D01*
X64534D01*
X64201Y2700D01*
Y1700D01*
X65534Y4033D02*
Y4699D01*
X65200Y5032D01*
X64534D01*
X64201Y4699D01*
Y4033D01*
X64534Y3699D01*
X65200D01*
X65534Y4033D01*
X64201Y6032D02*
Y6698D01*
X64534Y7032D01*
X65534D01*
Y6032D01*
X65200Y5699D01*
X64867Y6032D01*
Y7032D01*
X64201Y7698D02*
X65534D01*
X64867D01*
X64534Y8031D01*
X64201Y8365D01*
Y8698D01*
X63534Y11030D02*
X65534D01*
Y10031D01*
X65200Y9697D01*
X64534D01*
X64201Y10031D01*
Y11030D01*
X65534Y14696D02*
Y14029D01*
X65200Y13696D01*
X64534D01*
X64201Y14029D01*
Y14696D01*
X64534Y15029D01*
X64867D01*
Y13696D01*
X63534Y17028D02*
X65534D01*
Y16029D01*
X65200Y15695D01*
X64534D01*
X64201Y16029D01*
Y17028D01*
X66200Y18361D02*
Y18695D01*
X65867Y19028D01*
X64201D01*
Y18028D01*
X64534Y17695D01*
X65200D01*
X65534Y18028D01*
Y19028D01*
Y20694D02*
Y20027D01*
X65200Y19694D01*
X64534D01*
X64201Y20027D01*
Y20694D01*
X64534Y21027D01*
X64867D01*
Y19694D01*
D80*
X5019Y44135D02*
X7382D01*
X5019Y48466D02*
X7382D01*
Y44135D02*
Y48466D01*
X5019Y44135D02*
Y48466D01*
X-25961Y74721D02*
X3842D01*
Y47713D02*
Y74721D01*
X-25961Y67667D02*
Y74721D01*
Y47713D02*
Y67667D01*
Y47713D02*
X3842D01*
X2235Y33318D02*
Y35681D01*
X6566Y33318D02*
Y35681D01*
X2235Y33318D02*
X6566D01*
X2235Y35681D02*
X6566D01*
X2235Y32781D02*
X6566D01*
X2235Y30418D02*
X6566D01*
Y32781D01*
X2235Y30418D02*
Y32781D01*
X49035Y48119D02*
Y50482D01*
X53366Y48119D02*
Y50482D01*
X49035D02*
X53366D01*
X49035Y48119D02*
X53366D01*
X54035Y32781D02*
X58366D01*
X54035Y30418D02*
X58366D01*
Y32781D01*
X54035Y30418D02*
Y32781D01*
Y33318D02*
Y35681D01*
X58366Y33318D02*
Y35681D01*
X54035Y33318D02*
X58366D01*
X54035Y35681D02*
X58366D01*
X1718Y48465D02*
X4081D01*
X1718Y44134D02*
X4081D01*
X1718D02*
Y48465D01*
X4081Y44134D02*
Y48465D01*
X-635Y27818D02*
Y30181D01*
X-4966Y27818D02*
Y30181D01*
Y27818D02*
X-635D01*
X-4966Y30181D02*
X-635D01*
X49665Y41318D02*
Y43681D01*
X45334Y41318D02*
Y43681D01*
Y41318D02*
X49665D01*
X45334Y43681D02*
X49665D01*
X41734Y-35119D02*
X46065D01*
X41734Y-37482D02*
X46065D01*
X41734D02*
Y-35119D01*
X46065Y-37482D02*
Y-35119D01*
X27887Y-36447D02*
X30249D01*
X27887Y-32116D02*
X30249D01*
X27887Y-36447D02*
Y-32116D01*
X30249Y-36447D02*
Y-32116D01*
X30919Y-31256D02*
Y-26925D01*
X33282Y-31256D02*
Y-26925D01*
X30919Y-31256D02*
X33282D01*
X30919Y-26925D02*
X33282D01*
X28319Y-39635D02*
X30682D01*
X28319Y-43966D02*
X30682D01*
Y-39635D01*
X28319Y-43966D02*
Y-39635D01*
X33919Y-31256D02*
Y-26925D01*
X36282Y-31256D02*
Y-26925D01*
X33919Y-31256D02*
X36282D01*
X33919Y-26925D02*
X36282D01*
X37219Y-20835D02*
X39582D01*
X37219Y-25166D02*
X39582D01*
Y-20835D01*
X37219Y-25166D02*
Y-20835D01*
X-23065Y45819D02*
X-18734D01*
X-23065Y48182D02*
X-18734D01*
Y45819D02*
Y48182D01*
X-23065Y45819D02*
Y48182D01*
X3365Y-32181D02*
Y-29818D01*
X-966Y-32181D02*
Y-29818D01*
X3365D01*
X-966Y-32181D02*
X3365D01*
X734Y-12981D02*
X5065D01*
X734Y-10618D02*
X5065D01*
X734Y-12981D02*
Y-10618D01*
X5065Y-12981D02*
Y-10618D01*
X5665Y-25181D02*
Y-22818D01*
X1334Y-25181D02*
Y-22818D01*
X5665D01*
X1334Y-25181D02*
X5665D01*
X-319Y-52165D02*
Y-47834D01*
X-2682Y-52165D02*
Y-47834D01*
X-319D01*
X-2682Y-52165D02*
X-319D01*
X-5681Y-47835D02*
X-3318D01*
X-5681Y-52166D02*
X-3318D01*
Y-47835D01*
X-5681Y-52166D02*
Y-47835D01*
X-40919Y6635D02*
Y10966D01*
X-43282Y6635D02*
Y10966D01*
X-40919D01*
X-43282Y6635D02*
X-40919D01*
X7519Y63865D02*
X9882D01*
X7519Y59534D02*
X9882D01*
Y63865D01*
X7519Y59534D02*
Y63865D01*
X-33181Y60334D02*
Y64665D01*
X-30818Y60334D02*
Y64665D01*
X-33181Y60334D02*
X-30818D01*
X-33181Y64665D02*
X-30818D01*
X4419Y64565D02*
X6782D01*
X4419Y60234D02*
X6782D01*
Y64565D01*
X4419Y60234D02*
Y64565D01*
X-30819Y53335D02*
Y57666D01*
X-33182Y53335D02*
Y57666D01*
X-30819D01*
X-33182Y53335D02*
X-30819D01*
X-39182D02*
X-36819D01*
X-39182Y57666D02*
X-36819D01*
X-39182Y53335D02*
Y57666D01*
X-36819Y53335D02*
Y57666D01*
X-33819Y53335D02*
Y57666D01*
X-36182Y53335D02*
Y57666D01*
X-33819D01*
X-36182Y53335D02*
X-33819D01*
X53835Y33819D02*
X58166D01*
X53835Y36182D02*
X58166D01*
Y33819D02*
Y36182D01*
X53835Y33819D02*
Y36182D01*
X49765Y27218D02*
Y29581D01*
X45434Y27218D02*
Y29581D01*
Y27218D02*
X49765D01*
X45434Y29581D02*
X49765D01*
X-7866Y44181D02*
X-3535D01*
X-7866Y41818D02*
X-3535D01*
X-7866D02*
Y44181D01*
X-3535Y41818D02*
Y44181D01*
X335Y33819D02*
X4666D01*
X335Y36182D02*
X4666D01*
Y33819D02*
Y36182D01*
X335Y33819D02*
Y36182D01*
X34419Y-4566D02*
Y-235D01*
X36782Y-4566D02*
Y-235D01*
X34419Y-4566D02*
X36782D01*
X34419Y-235D02*
X36782D01*
X14018Y-6665D02*
X16381D01*
X14018Y-2334D02*
X16381D01*
X14018Y-6665D02*
Y-2334D01*
X16381Y-6665D02*
Y-2334D01*
X-9319Y-52165D02*
Y-47834D01*
X-11682Y-52165D02*
Y-47834D01*
X-9319D01*
X-11682Y-52165D02*
X-9319D01*
X3318D02*
X5681D01*
X3318Y-47834D02*
X5681D01*
X3318Y-52165D02*
Y-47834D01*
X5681Y-52165D02*
Y-47834D01*
X9181Y-52165D02*
Y-47834D01*
X6818Y-52165D02*
Y-47834D01*
X9181D01*
X6818Y-52165D02*
X9181D01*
X19665Y-63682D02*
Y-61319D01*
X15334Y-63682D02*
Y-61319D01*
Y-63682D02*
X19665D01*
X15334Y-61319D02*
X19665D01*
X319Y-52166D02*
Y-47835D01*
X2682Y-52166D02*
Y-47835D01*
X319Y-52166D02*
X2682D01*
X319Y-47835D02*
X2682D01*
X-59293Y5629D02*
Y13897D01*
X-51025Y5629D02*
Y13897D01*
X-59293Y5629D02*
X-51025D01*
X-59293Y13897D02*
X-51025D01*
X-36634Y5366D02*
Y13634D01*
X-28366Y5366D02*
Y13634D01*
X-36634D02*
X-28366D01*
X-36634Y5366D02*
X-28366D01*
X-22134D02*
Y13634D01*
X-13866Y5366D02*
Y13634D01*
X-22134D02*
X-13866D01*
X-22134Y5366D02*
X-13866D01*
X-2622Y-71551D02*
Y-56240D01*
X12732Y-71551D02*
Y-56240D01*
X-2622D02*
X12732D01*
X-2622Y-71551D02*
X12732D01*
X-5870Y5366D02*
Y13634D01*
X2398Y5366D02*
Y13634D01*
X-5870D02*
X2398D01*
X-5870Y5366D02*
X2398D01*
X39319Y16165D02*
X41682D01*
X39319Y11834D02*
X41682D01*
Y16165D01*
X39319Y11834D02*
Y16165D01*
X33019Y16365D02*
X35382D01*
X33019Y12034D02*
X35382D01*
Y16365D01*
X33019Y12034D02*
Y16365D01*
X6765Y23719D02*
Y26082D01*
X2434Y23719D02*
Y26082D01*
X6765D01*
X2434Y23719D02*
X6765D01*
M02*
