G04 Layer_Color=16711935*
%FSLAX25Y25*%
%MOIN*%
G70*
G01*
G75*
%ADD52C,0.01968*%
%ADD83R,0.01378X0.01575*%
%ADD86R,0.02368X0.02368*%
%ADD87R,0.02054X0.02565*%
%ADD88R,0.02368X0.02368*%
%ADD89R,0.03156X0.03550*%
%ADD90R,0.03550X0.03156*%
%ADD91R,0.02565X0.02054*%
%ADD92R,0.01575X0.01575*%
%ADD93R,0.02368X0.01975*%
%ADD94R,0.03156X0.09455*%
%ADD95R,0.01581X0.01975*%
%ADD96R,0.06699X0.04337*%
%ADD118C,0.06305*%
%ADD119O,0.06502X0.03943*%
%ADD120O,0.03943X0.05321*%
%ADD121R,0.78740X0.07087*%
%ADD122R,0.03937X0.07874*%
%ADD123R,0.01581X0.06699*%
%ADD124R,0.01575X0.01575*%
%ADD125R,0.01575X0.01378*%
%ADD126R,0.23400X0.09400*%
%ADD127R,0.01400X0.00800*%
%ADD128R,0.00800X0.01400*%
G36*
X-500Y21500D02*
X-43500D01*
Y51000D01*
X-500D01*
Y21500D01*
D02*
G37*
G36*
X52500D02*
X9500D01*
Y51000D01*
X52500D01*
Y21500D01*
D02*
G37*
D52*
X46520Y3594D02*
D03*
X-38520D02*
D03*
Y69006D02*
D03*
X46520D02*
D03*
D83*
X-34681Y-13488D02*
D03*
X-32319D02*
D03*
X-48481Y-40488D02*
D03*
X-46119D02*
D03*
X-50619Y-19312D02*
D03*
X-52981D02*
D03*
X-49381Y8312D02*
D03*
X-47019D02*
D03*
D86*
X2431Y34499D02*
D03*
X6368D02*
D03*
Y31600D02*
D03*
X2431D02*
D03*
X58169D02*
D03*
X54232D02*
D03*
Y34499D02*
D03*
X58169D02*
D03*
X3168Y-30999D02*
D03*
X-769D02*
D03*
X931Y-11800D02*
D03*
X4868D02*
D03*
X5469Y-24000D02*
D03*
X1531D02*
D03*
X6568Y24901D02*
D03*
X2631D02*
D03*
D87*
X6172Y37300D02*
D03*
X2628D02*
D03*
Y28800D02*
D03*
X6172D02*
D03*
X54428D02*
D03*
X57972D02*
D03*
Y37300D02*
D03*
X54428D02*
D03*
X41872Y-21000D02*
D03*
X38328D02*
D03*
Y-17900D02*
D03*
X41872D02*
D03*
Y-14800D02*
D03*
X38328D02*
D03*
Y-11700D02*
D03*
X41872D02*
D03*
X-32372Y-16700D02*
D03*
X-28828D02*
D03*
X-28228Y-43100D02*
D03*
X-31772D02*
D03*
X-46772Y-43500D02*
D03*
X-43228D02*
D03*
X38328Y-8600D02*
D03*
X41872D02*
D03*
D88*
X6200Y44331D02*
D03*
Y48268D02*
D03*
X2899D02*
D03*
Y44331D02*
D03*
D89*
X-43346Y-27900D02*
D03*
X-49054D02*
D03*
X-16946Y-12700D02*
D03*
X-22654D02*
D03*
X-13754Y-14900D02*
D03*
X-8046D02*
D03*
X-26646Y-10400D02*
D03*
X-32354D02*
D03*
X-26446Y-46500D02*
D03*
X-32154D02*
D03*
X-47854Y-46800D02*
D03*
X-42146D02*
D03*
X-58013Y2263D02*
D03*
X-52305D02*
D03*
X-49346Y28500D02*
D03*
X-55054D02*
D03*
X-39054Y-22200D02*
D03*
X-33346D02*
D03*
D90*
X-35900Y-45354D02*
D03*
Y-39646D02*
D03*
X-40600Y-5346D02*
D03*
Y-11054D02*
D03*
X-53600Y-22246D02*
D03*
Y-27954D02*
D03*
X11500Y-30354D02*
D03*
Y-24646D02*
D03*
X15500D02*
D03*
Y-30354D02*
D03*
X-58500Y-27554D02*
D03*
Y-21846D02*
D03*
X34600Y-11846D02*
D03*
Y-17554D02*
D03*
D91*
X-59000Y-48728D02*
D03*
Y-52272D02*
D03*
Y-42728D02*
D03*
Y-46272D02*
D03*
Y-36728D02*
D03*
Y-40272D02*
D03*
Y-30728D02*
D03*
Y-34272D02*
D03*
X11800Y-4328D02*
D03*
Y-7872D02*
D03*
X-20700D02*
D03*
Y-4328D02*
D03*
X-37000Y-7328D02*
D03*
Y-10872D02*
D03*
X-27000Y-53172D02*
D03*
Y-49628D02*
D03*
X-51000Y-43272D02*
D03*
Y-39728D02*
D03*
X8900Y-4328D02*
D03*
Y-7872D02*
D03*
X6000Y-4328D02*
D03*
Y-7872D02*
D03*
X-45600Y19828D02*
D03*
Y23372D02*
D03*
X-17800Y-4328D02*
D03*
Y-7872D02*
D03*
X-14900D02*
D03*
Y-4328D02*
D03*
X-10200D02*
D03*
Y-7872D02*
D03*
X-7300D02*
D03*
Y-4328D02*
D03*
X-4400D02*
D03*
Y-7872D02*
D03*
X-1400D02*
D03*
Y-4328D02*
D03*
X1500D02*
D03*
Y-7872D02*
D03*
X-23600D02*
D03*
Y-4328D02*
D03*
D92*
X-59000Y-19083D02*
D03*
Y-16917D02*
D03*
X-30700Y-27017D02*
D03*
Y-29183D02*
D03*
X-42700Y-33183D02*
D03*
Y-31017D02*
D03*
X-38800Y-37117D02*
D03*
Y-39283D02*
D03*
X-40800D02*
D03*
Y-37117D02*
D03*
Y-35183D02*
D03*
Y-33017D02*
D03*
X-38800D02*
D03*
Y-35183D02*
D03*
X-36800Y-33017D02*
D03*
Y-35183D02*
D03*
X-34800D02*
D03*
Y-33017D02*
D03*
X-42700Y-37283D02*
D03*
Y-35117D02*
D03*
D93*
X20100Y-27875D02*
D03*
Y-24725D02*
D03*
X29100Y-27875D02*
D03*
Y-24725D02*
D03*
X26100Y-27875D02*
D03*
Y-24725D02*
D03*
X23100Y-27875D02*
D03*
Y-24725D02*
D03*
D94*
X-57983Y21194D02*
D03*
X-48935D02*
D03*
D95*
X-57718Y13700D02*
D03*
X-55159D02*
D03*
X-52600D02*
D03*
Y5826D02*
D03*
X-55159D02*
D03*
X-57718D02*
D03*
D96*
X-55159Y9763D02*
D03*
D118*
X59000Y9963D02*
D03*
Y17837D02*
D03*
X57900Y-42063D02*
D03*
Y-49937D02*
D03*
D119*
X59291Y-1720D02*
D03*
Y-29280D02*
D03*
D120*
X48661Y-5658D02*
D03*
Y-25343D02*
D03*
D121*
X4000Y16586D02*
D03*
Y2414D02*
D03*
Y56014D02*
D03*
Y70186D02*
D03*
D122*
X-41275Y9500D02*
D03*
X49275D02*
D03*
X49275Y63100D02*
D03*
X-41275D02*
D03*
D123*
X-921Y16587D02*
D03*
X-2890D02*
D03*
X-4858D02*
D03*
X-6827D02*
D03*
X-8795D02*
D03*
X-10764D02*
D03*
X-12732Y2413D02*
D03*
Y16587D02*
D03*
X-14701Y2413D02*
D03*
Y16587D02*
D03*
X-16669Y2413D02*
D03*
Y16587D02*
D03*
X-18638Y2413D02*
D03*
Y16587D02*
D03*
X-20606Y2413D02*
D03*
Y16587D02*
D03*
X-22575Y2413D02*
D03*
Y16587D02*
D03*
X-24543Y2413D02*
D03*
Y16587D02*
D03*
X-26512Y2413D02*
D03*
Y16587D02*
D03*
X-28480Y2413D02*
D03*
Y16587D02*
D03*
X-30449Y2413D02*
D03*
Y16587D02*
D03*
X-32417D02*
D03*
X-921Y2413D02*
D03*
X-2890D02*
D03*
X-4858D02*
D03*
X-6827D02*
D03*
X-8795D02*
D03*
X-10764D02*
D03*
X-34386D02*
D03*
X-32417D02*
D03*
X-34386Y16587D02*
D03*
X3016Y2413D02*
D03*
X1047D02*
D03*
X24669D02*
D03*
X26638D02*
D03*
X28606D02*
D03*
X30575D02*
D03*
X32543D02*
D03*
X34512D02*
D03*
X4984D02*
D03*
X6953D02*
D03*
X8921D02*
D03*
X10890D02*
D03*
X12858D02*
D03*
X14827D02*
D03*
X16795D02*
D03*
X18764D02*
D03*
X20732D02*
D03*
X22701D02*
D03*
X42386D02*
D03*
X40417D02*
D03*
X38449D02*
D03*
X36480D02*
D03*
X1047Y16587D02*
D03*
X3016D02*
D03*
X4984D02*
D03*
X6953D02*
D03*
X8921D02*
D03*
X10890D02*
D03*
X12858D02*
D03*
X14827D02*
D03*
X16795D02*
D03*
X18764D02*
D03*
X20732D02*
D03*
X22701D02*
D03*
X24669D02*
D03*
X26638D02*
D03*
X28606D02*
D03*
X30575D02*
D03*
X32543D02*
D03*
X34512D02*
D03*
X42386D02*
D03*
X40417D02*
D03*
X38449D02*
D03*
X36480D02*
D03*
X8921Y56013D02*
D03*
X10890D02*
D03*
X12858D02*
D03*
X14827D02*
D03*
X16795D02*
D03*
X18764D02*
D03*
X20732Y70187D02*
D03*
Y56013D02*
D03*
X22701Y70187D02*
D03*
Y56013D02*
D03*
X24669Y70187D02*
D03*
Y56013D02*
D03*
X26638Y70187D02*
D03*
Y56013D02*
D03*
X28606Y70187D02*
D03*
Y56013D02*
D03*
X30575Y70187D02*
D03*
Y56013D02*
D03*
X32543Y70187D02*
D03*
Y56013D02*
D03*
X34512Y70187D02*
D03*
Y56013D02*
D03*
X36480Y70187D02*
D03*
Y56013D02*
D03*
X38449Y70187D02*
D03*
Y56013D02*
D03*
X40417D02*
D03*
X8921Y70187D02*
D03*
X10890D02*
D03*
X12858D02*
D03*
X14827D02*
D03*
X16795D02*
D03*
X18764D02*
D03*
X42386D02*
D03*
X40417D02*
D03*
X42386Y56013D02*
D03*
X4984Y70187D02*
D03*
X6953D02*
D03*
X-16669D02*
D03*
X-18638D02*
D03*
X-20606D02*
D03*
X-22575D02*
D03*
X-24543D02*
D03*
X-26512D02*
D03*
X3016D02*
D03*
X1047D02*
D03*
X-921D02*
D03*
X-2890D02*
D03*
X-4858D02*
D03*
X-6827D02*
D03*
X-8795D02*
D03*
X-10764D02*
D03*
X-12732D02*
D03*
X-14701D02*
D03*
X-34386D02*
D03*
X-32417D02*
D03*
X-30449D02*
D03*
X-28480D02*
D03*
X6953Y56013D02*
D03*
X4984D02*
D03*
X3016D02*
D03*
X1047D02*
D03*
X-921D02*
D03*
X-2890D02*
D03*
X-4858D02*
D03*
X-6827D02*
D03*
X-8795D02*
D03*
X-10764D02*
D03*
X-12732D02*
D03*
X-14701D02*
D03*
X-16669D02*
D03*
X-18638D02*
D03*
X-20606D02*
D03*
X-22575D02*
D03*
X-24543D02*
D03*
X-26512D02*
D03*
X-34386D02*
D03*
X-32417D02*
D03*
X-30449D02*
D03*
X-28480D02*
D03*
D124*
X-32617Y-27200D02*
D03*
X-34783D02*
D03*
X-50517Y-33200D02*
D03*
X-52683D02*
D03*
X-32717Y-31100D02*
D03*
X-34883D02*
D03*
X-38883D02*
D03*
X-36717D02*
D03*
X-44717Y-37000D02*
D03*
X-46883D02*
D03*
Y-35100D02*
D03*
X-44717D02*
D03*
X-50517D02*
D03*
X-52683D02*
D03*
Y-37000D02*
D03*
X-50517D02*
D03*
X-34783Y-29200D02*
D03*
X-32617D02*
D03*
D125*
X-30812Y-35281D02*
D03*
Y-32919D02*
D03*
X-30788Y-39381D02*
D03*
Y-37019D02*
D03*
X-23412Y-46819D02*
D03*
Y-49181D02*
D03*
X-38788Y-27581D02*
D03*
Y-25219D02*
D03*
X-48512Y12681D02*
D03*
Y10319D02*
D03*
D126*
X-21975Y36300D02*
D03*
X31025D02*
D03*
D127*
X-4975Y39500D02*
D03*
Y38700D02*
D03*
Y37900D02*
D03*
Y37100D02*
D03*
Y36300D02*
D03*
Y35500D02*
D03*
Y34700D02*
D03*
Y33900D02*
D03*
Y33100D02*
D03*
X-38975D02*
D03*
Y33900D02*
D03*
Y34700D02*
D03*
Y35500D02*
D03*
Y36300D02*
D03*
Y37100D02*
D03*
Y37900D02*
D03*
Y38700D02*
D03*
Y39500D02*
D03*
X14025D02*
D03*
Y38700D02*
D03*
Y37900D02*
D03*
Y37100D02*
D03*
Y36300D02*
D03*
Y35500D02*
D03*
Y34700D02*
D03*
Y33900D02*
D03*
Y33100D02*
D03*
X48025D02*
D03*
Y33900D02*
D03*
Y34700D02*
D03*
Y35500D02*
D03*
Y36300D02*
D03*
Y37100D02*
D03*
Y37900D02*
D03*
Y38700D02*
D03*
Y39500D02*
D03*
D128*
X-8775Y26300D02*
D03*
X-9575D02*
D03*
X-10375D02*
D03*
X-11175D02*
D03*
X-11975D02*
D03*
X-12775D02*
D03*
X-13575D02*
D03*
X-14375D02*
D03*
X-15175D02*
D03*
X-15975D02*
D03*
X-16775D02*
D03*
X-17575D02*
D03*
X-18375D02*
D03*
X-19175D02*
D03*
X-19975D02*
D03*
X-20775D02*
D03*
X-21575D02*
D03*
X-22375D02*
D03*
X-23175D02*
D03*
X-23975D02*
D03*
X-24775D02*
D03*
X-25575D02*
D03*
X-26375D02*
D03*
X-27175D02*
D03*
X-27975D02*
D03*
X-28775D02*
D03*
X-29575D02*
D03*
X-30375D02*
D03*
X-31175D02*
D03*
X-31975D02*
D03*
X-32775D02*
D03*
X-33575D02*
D03*
X-34375D02*
D03*
X-35175D02*
D03*
Y46300D02*
D03*
X-34375D02*
D03*
X-33575D02*
D03*
X-32775D02*
D03*
X-31975D02*
D03*
X-31175D02*
D03*
X-30375D02*
D03*
X-29575D02*
D03*
X-28775D02*
D03*
X-27975D02*
D03*
X-27175D02*
D03*
X-26375D02*
D03*
X-25575D02*
D03*
X-24775D02*
D03*
X-23975D02*
D03*
X-23175D02*
D03*
X-22375D02*
D03*
X-21575D02*
D03*
X-20775D02*
D03*
X-19975D02*
D03*
X-19175D02*
D03*
X-18375D02*
D03*
X-17575D02*
D03*
X-16775D02*
D03*
X-15975D02*
D03*
X-15175D02*
D03*
X-14375D02*
D03*
X-13575D02*
D03*
X-12775D02*
D03*
X-11975D02*
D03*
X-11175D02*
D03*
X-10375D02*
D03*
X-9575D02*
D03*
X-8775D02*
D03*
X44225D02*
D03*
X43425D02*
D03*
X42625D02*
D03*
X41825D02*
D03*
X41025D02*
D03*
X40225D02*
D03*
X39425D02*
D03*
X38625D02*
D03*
X37825D02*
D03*
X37025D02*
D03*
X36225D02*
D03*
X35425D02*
D03*
X34625D02*
D03*
X33825D02*
D03*
X33025D02*
D03*
X32225D02*
D03*
X31425D02*
D03*
X30625D02*
D03*
X29825D02*
D03*
X29025D02*
D03*
X28225D02*
D03*
X27425D02*
D03*
X26625D02*
D03*
X25825D02*
D03*
X25025D02*
D03*
X24225D02*
D03*
X23425D02*
D03*
X22625D02*
D03*
X21825D02*
D03*
X21025D02*
D03*
X20225D02*
D03*
X19425D02*
D03*
X18625D02*
D03*
X17825D02*
D03*
Y26300D02*
D03*
X18625D02*
D03*
X19425D02*
D03*
X20225D02*
D03*
X21025D02*
D03*
X21825D02*
D03*
X22625D02*
D03*
X23425D02*
D03*
X24225D02*
D03*
X25025D02*
D03*
X25825D02*
D03*
X26625D02*
D03*
X27425D02*
D03*
X28225D02*
D03*
X29025D02*
D03*
X29825D02*
D03*
X30625D02*
D03*
X31425D02*
D03*
X32225D02*
D03*
X33025D02*
D03*
X33825D02*
D03*
X34625D02*
D03*
X35425D02*
D03*
X36225D02*
D03*
X37025D02*
D03*
X37825D02*
D03*
X38625D02*
D03*
X39425D02*
D03*
X40225D02*
D03*
X41025D02*
D03*
X41825D02*
D03*
X42625D02*
D03*
X43425D02*
D03*
X44225D02*
D03*
M02*
