G04 Layer_Physical_Order=5*
G04 Layer_Color=36540*
%FSLAX25Y25*%
%MOIN*%
G70*
G01*
G75*
%ADD42C,0.00400*%
%ADD45C,0.00300*%
%ADD56C,0.01000*%
%ADD57C,0.01400*%
%ADD58C,0.01600*%
D42*
X52700Y39000D02*
X60200Y31500D01*
X-28100Y39000D02*
X52700D01*
X-58400Y-7800D02*
X-53500Y-12700D01*
X-56600Y43000D02*
X14100D01*
X-59300Y40300D02*
X-56600Y43000D01*
X-31100Y25300D02*
X-30400Y26000D01*
X-32000Y-4000D02*
Y27800D01*
X-33600Y-2800D02*
Y27800D01*
X23300Y-11800D02*
X27800Y-7300D01*
X-26600Y-11800D02*
X23300D01*
X-30800Y-16000D02*
X-26600Y-11800D01*
X-30800Y-21194D02*
Y-16000D01*
X-12100Y8700D02*
Y21200D01*
X-12400Y8400D02*
X-12100Y8700D01*
X-25600Y25700D02*
Y27800D01*
X-27200Y25700D02*
X-25600Y24100D01*
X-27200Y25700D02*
Y27800D01*
X-8000Y7600D02*
Y21400D01*
X-12800Y26200D02*
X-8000Y21400D01*
X-12800Y26200D02*
Y27800D01*
X-8800Y6500D02*
Y20600D01*
X-14400Y26200D02*
X-8800Y20600D01*
X-14400Y26200D02*
Y27800D01*
X-16000Y26400D02*
X-10800Y21200D01*
X-16000Y26400D02*
Y27800D01*
X-17600Y26700D02*
X-12100Y21200D01*
X-17600Y26700D02*
Y27800D01*
X-30400Y26000D02*
Y27800D01*
X-28800Y25800D02*
X-28500Y25500D01*
X-28800Y25800D02*
Y27800D01*
X-8000Y7600D02*
X-6900Y6500D01*
X-13900Y6900D02*
Y18400D01*
X-11200Y27800D02*
X-6900Y23500D01*
Y11900D02*
Y23500D01*
X-42800Y29600D02*
X-41800Y28600D01*
X-46800Y29600D02*
X-42800D01*
X-45700Y40700D02*
X-5000D01*
X-58400Y28000D02*
X-45700Y40700D01*
X-58400Y-7800D02*
Y28000D01*
X-43724Y-11524D02*
X-41800Y-9600D01*
X-43900Y-7800D02*
Y26200D01*
X-34832Y-25226D02*
X-30800Y-21194D01*
X-47600Y-11500D02*
X-43900Y-7800D01*
X6200Y33700D02*
X8400Y31500D01*
X18000Y-9600D02*
Y-5500D01*
X16900Y-10700D02*
X18000Y-9600D01*
X-30500Y-10700D02*
X16900D01*
X-32863Y-13063D02*
X-30500Y-10700D01*
X-32863Y-19320D02*
Y-13063D01*
X41000Y7100D02*
Y27800D01*
X37800Y7900D02*
Y27800D01*
X36400Y6500D02*
X37800Y7900D01*
X36200Y8200D02*
Y27800D01*
X34500Y6500D02*
X36200Y8200D01*
X39400Y7500D02*
Y27800D01*
X38400Y6500D02*
X39400Y7500D01*
X40400Y6500D02*
X41000Y7100D01*
X12800Y7300D02*
X18600Y13100D01*
X-59300Y-8300D02*
X-55500Y-12100D01*
X-59300Y-8300D02*
Y40300D01*
X-48611Y-21289D02*
X-48489D01*
X34600Y8600D02*
Y27800D01*
X32500Y6500D02*
X34600Y8600D01*
X33000Y9000D02*
Y27800D01*
X30500Y6500D02*
X33000Y9000D01*
X28500Y6500D02*
X31400Y9400D01*
Y27800D01*
X26600Y6500D02*
X29800Y9700D01*
Y27800D01*
X28200Y10100D02*
Y27800D01*
X24600Y6500D02*
X28200Y10100D01*
X26600Y10400D02*
Y27800D01*
X22700Y6500D02*
X26600Y10400D01*
X25000Y10800D02*
Y27800D01*
X20700Y6500D02*
X25000Y10800D01*
X18600Y13100D02*
Y27800D01*
X-17600Y-16368D02*
X5891D01*
X7575Y-18051D01*
X-7874Y-18350D02*
X-5024Y-21201D01*
X-14650Y-18350D02*
X-7874D01*
X-15987Y-36087D02*
X-8200Y-28300D01*
X9700D01*
X-678Y-25226D02*
X-552Y-25100D01*
X-17100Y-25200D02*
X-704D01*
X-678Y-25226D01*
X8536Y-49200D02*
X11500D01*
X8311Y-49425D02*
X8536Y-49200D01*
X-15900Y-20300D02*
X-14999Y-21201D01*
X-8173D01*
X-1808Y-24207D02*
X-300Y-22700D01*
X11877Y-59043D02*
X15335Y-62501D01*
X9700Y-59043D02*
X11877D01*
X16175Y-54100D02*
X21075Y-59000D01*
X5211Y-54100D02*
X16175D01*
X260Y-57476D02*
X8311Y-49425D01*
X-18026Y-44000D02*
X12700D01*
X8134Y-60626D02*
Y-60609D01*
X8100Y-59017D02*
X8134Y-59051D01*
X9700Y-59043D02*
Y-55400D01*
X8134Y-60609D02*
X9700Y-59043D01*
X8100Y-59017D02*
Y-55400D01*
X600Y-19600D02*
X9124D01*
X-300Y-20500D02*
X600Y-19600D01*
X-300Y-22700D02*
Y-20500D01*
X1276Y-23524D02*
Y-21201D01*
X-426Y-25226D02*
X1276Y-23524D01*
X-3475Y-35400D02*
X-1874Y-33799D01*
X12300Y-22900D02*
Y-19627D01*
X-14921Y-23200D02*
X-3873D01*
X-1874Y-21201D01*
X10724Y-18051D02*
X12300Y-19627D01*
X13874Y-18051D02*
X15400Y-19577D01*
X9124Y-19600D02*
X10724Y-21201D01*
X1835Y-57476D02*
X5211Y-54100D01*
X15500Y-38472D02*
X17024Y-36949D01*
X12700Y-44000D02*
X15500Y-41200D01*
Y-38472D01*
X-13200Y-38000D02*
X-10600Y-35400D01*
X-3475D01*
X7900Y-27300D02*
X12300Y-22900D01*
X2576Y-26200D02*
X7575Y-21201D01*
X9700Y-28300D02*
X15400Y-22600D01*
Y-19577D01*
X-11100Y-27300D02*
X7900D01*
X-15821Y-22300D02*
X-14921Y-23200D01*
X-14900Y-24207D02*
X-1808D01*
X-14400Y-26200D02*
X2576D01*
X-552Y-25100D02*
X-426Y-25226D01*
X-23020Y-39006D02*
X-18026Y-44000D01*
X-15900Y-32100D02*
X-11100Y-27300D01*
X14100Y43000D02*
X16600Y40500D01*
X48000D02*
X48100Y40600D01*
X-45624Y-11424D02*
X-42700Y-8500D01*
X-45700Y28500D02*
X-43400D01*
X-42700Y27800D01*
X-60250Y-19750D02*
X-57400Y-22600D01*
X-49922D01*
X-48611Y-21289D01*
X-42700Y-8500D02*
Y27800D01*
X-41800Y-9600D02*
Y28600D01*
X-34832Y-15383D02*
Y28769D01*
X-29900Y33700D01*
X6200D01*
X18700Y6500D02*
X23400Y11200D01*
Y27800D01*
X20200Y11900D02*
Y27800D01*
X14800Y6500D02*
X20200Y11900D01*
X16800Y6500D02*
X21800Y11500D01*
Y27800D01*
X-4200Y17900D02*
X15500Y-1800D01*
Y-8900D02*
Y-1800D01*
X-9100Y32000D02*
X-4200Y27100D01*
Y17900D02*
Y27100D01*
X43169Y900D02*
X44500Y-432D01*
X16600Y40500D02*
X48000D01*
X43169Y900D02*
Y26068D01*
X44500Y27400D01*
Y31900D01*
X-35800Y1639D02*
Y31300D01*
X-28100Y39000D01*
X-36800Y-15600D02*
X-35000Y-17400D01*
X-36800Y-15600D02*
Y639D01*
X-35800Y1639D01*
X-16900Y-1700D02*
Y19500D01*
X-18600Y-1700D02*
Y7500D01*
X-19200Y23700D02*
Y27800D01*
Y23700D02*
X-13900Y18400D01*
X-21600Y10500D02*
X-18600Y7500D01*
X-21600Y10500D02*
Y27000D01*
X-22400Y27800D02*
X-21600Y27000D01*
X-20800Y23400D02*
X-16900Y19500D01*
X-20800Y23400D02*
Y27800D01*
X-25600Y25700D02*
X-23900Y24000D01*
X-24000Y25231D02*
Y27800D01*
Y25231D02*
X-22700Y23931D01*
X-22800Y23831D02*
X-22700Y23931D01*
X-22800Y12000D02*
Y23831D01*
X-30200Y7200D02*
X-28200D01*
X-31100Y8100D02*
Y25300D01*
Y8100D02*
X-30200Y7200D01*
X-28500Y9200D02*
Y25500D01*
Y9200D02*
X-26500Y7200D01*
X-23900Y10100D02*
X-22600Y8800D01*
X-23900Y10100D02*
Y24000D01*
X-25600Y10400D02*
Y24100D01*
Y10400D02*
X-24500Y9300D01*
Y7200D02*
Y9300D01*
X-60250Y-19750D02*
Y45950D01*
X-58100Y48100D01*
X-34500Y45400D02*
X-33600Y44500D01*
X-33400Y48700D02*
X-32000Y47300D01*
Y44500D02*
Y47300D01*
X12000Y51100D02*
X18600Y44500D01*
X41000D02*
X42000Y45500D01*
X31500Y48500D02*
X33000Y47000D01*
Y44500D02*
Y47000D01*
X26600Y50000D02*
Y75000D01*
Y50000D02*
X29800Y46800D01*
Y44500D02*
Y46800D01*
X25500Y49400D02*
X28200Y46700D01*
Y44500D02*
Y46700D01*
X22700Y50400D02*
Y75000D01*
Y50400D02*
X26600Y46500D01*
Y44500D02*
Y46500D01*
X20800Y50500D02*
Y75000D01*
Y50500D02*
X25000Y46300D01*
Y44500D02*
Y46300D01*
X16800Y50900D02*
Y75000D01*
X34600Y44500D02*
Y46900D01*
X35700Y48000D01*
X36200Y44500D02*
Y46900D01*
X36700Y47400D01*
X27600Y50800D02*
X31400Y47000D01*
Y44500D02*
Y47000D01*
X39400Y44500D02*
Y46900D01*
X41000Y48500D01*
X12000Y51100D02*
Y74100D01*
X12900Y75000D01*
X14800D02*
X15900Y73900D01*
Y50100D02*
Y73900D01*
X17700Y51800D02*
X23400Y46100D01*
X17700Y51800D02*
Y73900D01*
X18800Y75000D01*
X24700D02*
X25500Y74200D01*
Y49400D02*
Y74200D01*
X27600Y50800D02*
Y74000D01*
X28600Y75000D01*
X30600D02*
X31500Y74100D01*
Y48500D02*
Y74100D01*
X32500Y75000D02*
X35700Y71800D01*
Y48000D02*
Y71800D01*
X34500Y75000D02*
X36700Y72800D01*
Y47400D02*
Y72800D01*
X36500Y75000D02*
X37800Y73700D01*
Y44500D02*
Y73700D01*
X38500Y75000D02*
X41000Y72500D01*
Y48500D02*
Y72500D01*
X40400Y75000D02*
X42000Y73400D01*
Y45500D02*
Y73400D01*
X-34500Y45400D02*
Y72900D01*
X-32400Y75000D01*
X-33400Y48700D02*
Y72000D01*
X-30400Y75000D01*
Y44500D02*
Y73100D01*
X-28500Y75000D01*
X-28800Y44500D02*
Y72700D01*
X-26500Y75000D01*
X-27200Y72300D02*
X-24500Y75000D01*
X-27200Y44500D02*
Y72300D01*
X-25600Y44500D02*
Y71900D01*
X-22500Y75000D01*
X-24000Y44500D02*
Y71600D01*
X-20600Y75000D01*
X-22400Y44500D02*
Y71200D01*
X-18600Y75000D01*
X-20800Y44500D02*
Y70900D01*
X-16700Y75000D01*
X-19200Y44500D02*
Y70500D01*
X-14700Y75000D01*
X-17600Y44500D02*
Y70100D01*
X-12700Y75000D01*
X-16000Y44500D02*
Y69800D01*
X-10800Y75000D01*
X-14400Y44500D02*
Y69400D01*
X-8800Y75000D01*
X-12800Y44500D02*
Y69000D01*
X-6800Y75000D01*
X-11200Y68700D02*
X-4900Y75000D01*
X-11200Y44500D02*
Y68700D01*
X15900Y50100D02*
X20200Y45800D01*
Y44800D02*
Y45800D01*
X16800Y50900D02*
X21800Y45900D01*
Y44800D02*
Y45900D01*
X23400Y44800D02*
Y46100D01*
X-12400Y6900D02*
Y8400D01*
X-10800Y6900D02*
Y21200D01*
D45*
X-53500Y-14432D02*
Y-12700D01*
Y-14432D02*
X-52548Y-15383D01*
X-43724Y-20124D02*
Y-11524D01*
X-44674Y-21074D02*
X-43724Y-20124D01*
X-45624Y-18371D02*
X-44674Y-19320D01*
X-45624Y-18371D02*
Y-11424D01*
X-47600Y-20285D02*
Y-11500D01*
Y-20285D02*
X-46643Y-21242D01*
X-55500Y-14400D02*
Y-12100D01*
Y-14400D02*
X-54517Y-15383D01*
X-44674Y-21289D02*
Y-21074D01*
X-46643Y-21289D02*
Y-21242D01*
X-26368Y-16368D02*
X-17600D01*
X-27907Y-17908D02*
X-26368Y-16368D01*
X-20100Y-34052D02*
X-19083Y-35069D01*
X-20100Y-26500D02*
X-19800Y-26200D01*
X-25800Y-34100D02*
X-22052D01*
X-27907Y-31993D02*
X-25800Y-34100D01*
X-22052D02*
X-21052Y-33100D01*
X-30000Y-38000D02*
X-13200D01*
X-30600Y-37400D02*
X-30000Y-38000D01*
X-23970Y-36087D02*
X-15987D01*
X-24989Y-35069D02*
X-23970Y-36087D01*
X-23600Y-22300D02*
X-15821D01*
X-25892Y-24207D02*
X-14900D01*
X-19800Y-26200D02*
X-14400D01*
X-26900Y-25200D02*
X-25900Y-24200D01*
X-26900Y-31189D02*
Y-25200D01*
X-30600Y-37400D02*
Y-32805D01*
X-28926Y-31132D01*
X-24989Y-19320D02*
X-24000Y-20310D01*
Y-21900D02*
X-23600Y-22300D01*
X-24000Y-21900D02*
Y-20310D01*
X-27907Y-31993D02*
Y-17908D01*
X-23020Y-21289D02*
X-22031Y-20300D01*
X-15900D01*
X-25900Y-24200D02*
X-25892Y-24207D01*
X-26900Y-31189D02*
X-24989Y-33100D01*
X-19083D02*
X-18083Y-32100D01*
X-15900D01*
X-21350Y-18350D02*
X-14650D01*
X-25000Y-17352D02*
X-22029D01*
X-21350Y-18350D01*
X-20100Y-34052D02*
Y-26500D01*
D56*
X60200Y31500D02*
D03*
X-32000Y-4000D02*
D03*
X-33600Y-2800D02*
D03*
X-46800Y29600D02*
D03*
X-43900Y26200D02*
D03*
X44500Y31900D02*
D03*
X-35000Y-17400D02*
D03*
X-34832Y-15383D02*
D03*
X-52548Y-15383D02*
D03*
X-45700Y28500D02*
D03*
X-9100Y32000D02*
D03*
X8400Y31500D02*
D03*
X-5000Y40700D02*
D03*
X48100Y40600D02*
D03*
X40400Y6500D02*
D03*
X38400D02*
D03*
X36400D02*
D03*
X34500D02*
D03*
X32500D02*
D03*
X30500D02*
D03*
X28500D02*
D03*
X26600D02*
D03*
X24600D02*
D03*
X22700D02*
D03*
X20700D02*
D03*
X12800Y7300D02*
D03*
X41000Y27800D02*
D03*
X39400D02*
D03*
X37800D02*
D03*
X36200D02*
D03*
X34600D02*
D03*
X33000D02*
D03*
X31400D02*
D03*
X29800D02*
D03*
X28200D02*
D03*
X26600D02*
D03*
X25000D02*
D03*
X23400D02*
D03*
X21800D02*
D03*
X20200D02*
D03*
X18600D02*
D03*
X-13900Y6900D02*
D03*
X-6900Y11900D02*
D03*
Y6500D02*
D03*
X-8800D02*
D03*
X-16900Y-1700D02*
D03*
X-18600D02*
D03*
X-11200Y27800D02*
D03*
X-12800D02*
D03*
X-14400D02*
D03*
X-16000D02*
D03*
X-17600D02*
D03*
X-19200D02*
D03*
X-20800D02*
D03*
X-22400D02*
D03*
X-24000D02*
D03*
X-25600D02*
D03*
X-27200D02*
D03*
X-28800D02*
D03*
X-30400D02*
D03*
X-32000D02*
D03*
X-33600D02*
D03*
X-25000Y-17352D02*
D03*
X11500Y-49200D02*
D03*
X15335Y-62501D02*
D03*
X21075Y-59000D02*
D03*
X1835Y-57476D02*
D03*
X8134Y-60626D02*
D03*
Y-59051D02*
D03*
X8134Y-55400D02*
D03*
X9700D02*
D03*
X-28926Y-31132D02*
D03*
X-24989Y-19320D02*
D03*
X-44674Y-21289D02*
D03*
X-46643D02*
D03*
X-44674Y-19320D02*
D03*
X260Y-57476D02*
D03*
X-32863Y-19320D02*
D03*
X-34832Y-25226D02*
D03*
X-21052Y-33100D02*
D03*
X-48611Y-21289D02*
D03*
X-23020D02*
D03*
Y-39006D02*
D03*
X-24989Y-35069D02*
D03*
Y-33100D02*
D03*
X-19083D02*
D03*
Y-35069D02*
D03*
X-54517Y-15383D02*
D03*
X-17115Y-25226D02*
D03*
X18700Y6500D02*
D03*
X14800D02*
D03*
X16800D02*
D03*
X44500Y-432D02*
D03*
X-22800Y12000D02*
D03*
X-22600Y8800D02*
D03*
X-28200Y7200D02*
D03*
X-26500D02*
D03*
X-24500D02*
D03*
X-4900Y75000D02*
D03*
X-6800D02*
D03*
X-8800D02*
D03*
X-10800D02*
D03*
X-12700D02*
D03*
X-14700D02*
D03*
X-16700D02*
D03*
X-18600D02*
D03*
X-20600D02*
D03*
X-24500D02*
D03*
X-22500D02*
D03*
X-26500D02*
D03*
X-28500D02*
D03*
X-30400D02*
D03*
X-32400D02*
D03*
X12900D02*
D03*
X14800D02*
D03*
X16800D02*
D03*
X18800D02*
D03*
X20800D02*
D03*
X22700D02*
D03*
X24700D02*
D03*
X26600D02*
D03*
X28600D02*
D03*
X30600D02*
D03*
X32500D02*
D03*
X34500D02*
D03*
X36500D02*
D03*
X38500D02*
D03*
X40400D02*
D03*
X-58100Y48100D02*
D03*
X-11200Y44500D02*
D03*
X-14400D02*
D03*
X-12800D02*
D03*
X-16000D02*
D03*
X-17600D02*
D03*
X-19200D02*
D03*
X-20800D02*
D03*
X-22400D02*
D03*
X-24000D02*
D03*
X-25600D02*
D03*
X-27200D02*
D03*
X-28800D02*
D03*
X-30400D02*
D03*
X-33600D02*
D03*
X-32000D02*
D03*
X18600D02*
D03*
X25000D02*
D03*
X26600D02*
D03*
X28200D02*
D03*
X29800D02*
D03*
X31400D02*
D03*
X33000D02*
D03*
X34600D02*
D03*
X36200D02*
D03*
X37800D02*
D03*
X39400D02*
D03*
X41000D02*
D03*
X20200Y44800D02*
D03*
X21800D02*
D03*
X23400D02*
D03*
X-12400Y6900D02*
D03*
X-10800D02*
D03*
D57*
X27800Y-7300D02*
D03*
X18000Y-5500D02*
D03*
X15500Y-8900D02*
D03*
D58*
X1276Y-21201D02*
D03*
X-1874Y-33799D02*
D03*
X-5024Y-21201D02*
D03*
X-8173D02*
D03*
X17024Y-36949D02*
D03*
X13874Y-18051D02*
D03*
X10724Y-21201D02*
D03*
Y-18051D02*
D03*
X7575Y-21201D02*
D03*
X-1874D02*
D03*
X7575Y-18051D02*
D03*
M02*
