G04 Layer_Color=65535*
%FSLAX25Y25*%
%MOIN*%
G70*
G01*
G75*
%ADD44C,0.00600*%
%ADD46C,0.00800*%
%ADD49C,0.01000*%
%ADD74C,0.01181*%
%ADD75C,0.00984*%
%ADD76C,0.00787*%
%ADD77C,0.00500*%
%ADD78C,0.01575*%
%ADD79C,0.01378*%
%ADD80C,0.00394*%
G36*
X-15146Y-12460D02*
X-16160Y-11446D01*
X-15146D01*
Y-12460D01*
D02*
G37*
D44*
X55100Y38100D02*
Y40679D01*
X35969Y-49062D02*
Y-46482D01*
X2500Y38100D02*
Y40679D01*
X-17000Y15221D02*
Y17800D01*
X-12779Y7000D02*
X-10200D01*
X-1000Y15221D02*
Y17800D01*
X3484Y7000D02*
X6064D01*
X-32000Y15221D02*
Y17800D01*
X-27279Y7000D02*
X-24700D01*
X57928Y68400D02*
Y70979D01*
X-46000Y67700D02*
Y70280D01*
X-53800Y-8493D02*
X-47934D01*
X-56851Y-2508D02*
X-56851Y-3965D01*
X-53800Y1940D02*
X-47894Y1940D01*
X-44745Y-3965D02*
Y-2587D01*
X13664Y-53807D02*
Y-47941D01*
X18192Y-44890D02*
X19648Y-44890D01*
X24097Y-53846D02*
X24097Y-47941D01*
X18192Y-56996D02*
X19570D01*
X-18000Y-64390D02*
Y-63012D01*
X-47000Y-56890D02*
X-20500D01*
X-50500Y-62933D02*
X-50500Y-64390D01*
X-47000Y-69890D02*
X-20500D01*
X-57000Y67721D02*
Y70300D01*
D46*
X23217Y-6748D02*
G03*
X23217Y-6748I-139J0D01*
G01*
X27961Y-252D02*
G03*
X27961Y-252I-139J0D01*
G01*
X11244Y68899D02*
X52000D01*
Y56695D02*
Y68899D01*
X11244Y56695D02*
X52000D01*
X11244D02*
Y68899D01*
X-32500Y-8000D02*
Y500D01*
X-17000Y-7000D02*
Y1500D01*
X-58474Y32326D02*
X-57490D01*
X-58474D02*
Y33310D01*
Y47090D02*
Y48074D01*
X-57490D01*
X-43710D02*
X-42726D01*
Y47090D02*
Y48074D01*
Y32326D02*
Y33310D01*
X-43710Y32326D02*
X-42726D01*
X-43710Y33310D02*
X-42726D01*
X-43710Y32326D02*
Y33310D01*
X-1736Y-7000D02*
Y1500D01*
X23717Y-43248D02*
Y-11752D01*
X-11716Y-43248D02*
X23717D01*
X-11716D02*
Y-11752D01*
X23717D01*
X-58454Y-54754D02*
Y-11446D01*
X-15146Y-54754D02*
Y-11446D01*
X-58454Y-54754D02*
X-15146D01*
X-58454Y-11446D02*
X-15146D01*
X-16160D02*
X-15146Y-12460D01*
X-18100Y37999D02*
Y35500D01*
X-17600Y35000D01*
X-16601D01*
X-16101Y35500D01*
Y37999D01*
X-15101Y35000D02*
Y36999D01*
X-13601D01*
X-13102Y36500D01*
Y35000D01*
X-10103Y37999D02*
X-11102Y37499D01*
X-12102Y36500D01*
Y35500D01*
X-11602Y35000D01*
X-10602D01*
X-10103Y35500D01*
Y36000D01*
X-10602Y36500D01*
X-12102D01*
X36900Y48899D02*
Y46400D01*
X37400Y45900D01*
X38399D01*
X38899Y46400D01*
Y48899D01*
X39899Y45900D02*
Y47899D01*
X41399D01*
X41898Y47400D01*
Y45900D01*
X44897Y48899D02*
X42898D01*
Y47400D01*
X43898Y47899D01*
X44398D01*
X44897Y47400D01*
Y46400D01*
X44398Y45900D01*
X43398D01*
X42898Y46400D01*
X15500Y4999D02*
Y2500D01*
X16000Y2000D01*
X16999D01*
X17499Y2500D01*
Y4999D01*
X18499Y2000D02*
Y3999D01*
X19999D01*
X20498Y3500D01*
Y2000D01*
X22998D02*
Y4999D01*
X21498Y3500D01*
X23497D01*
X27500Y4999D02*
Y2500D01*
X28000Y2000D01*
X29000D01*
X29499Y2500D01*
Y4999D01*
X30499Y2000D02*
Y3999D01*
X31999D01*
X32498Y3500D01*
Y2000D01*
X33498Y4499D02*
X33998Y4999D01*
X34998D01*
X35497Y4499D01*
Y3999D01*
X34998Y3500D01*
X34498D01*
X34998D01*
X35497Y3000D01*
Y2500D01*
X34998Y2000D01*
X33998D01*
X33498Y2500D01*
X-11500Y15999D02*
Y13500D01*
X-11000Y13000D01*
X-10001D01*
X-9501Y13500D01*
Y15999D01*
X-6502D02*
X-7501Y15499D01*
X-8501Y14500D01*
Y13500D01*
X-8001Y13000D01*
X-7001D01*
X-6502Y13500D01*
Y14000D01*
X-7001Y14500D01*
X-8501D01*
X-27000Y15999D02*
Y13500D01*
X-26500Y13000D01*
X-25501D01*
X-25001Y13500D01*
Y15999D01*
X-24001Y15499D02*
X-23501Y15999D01*
X-22501D01*
X-22002Y15499D01*
Y14999D01*
X-22501Y14500D01*
X-22002Y14000D01*
Y13500D01*
X-22501Y13000D01*
X-23501D01*
X-24001Y13500D01*
Y14000D01*
X-23501Y14500D01*
X-24001Y14999D01*
Y15499D01*
X-23501Y14500D02*
X-22501D01*
X4500Y15999D02*
Y13500D01*
X5000Y13000D01*
X5999D01*
X6499Y13500D01*
Y15999D01*
X7499D02*
X9498D01*
Y15499D01*
X7499Y13500D01*
Y13000D01*
X28399Y72699D02*
X27900Y73199D01*
X26900D01*
X26400Y72699D01*
Y70700D01*
X26900Y70200D01*
X27900D01*
X28399Y70700D01*
X30899Y73199D02*
X29899D01*
X29399Y72699D01*
Y70700D01*
X29899Y70200D01*
X30899D01*
X31398Y70700D01*
Y72699D01*
X30899Y73199D01*
X34397Y70200D02*
X32398D01*
X34397Y72199D01*
Y72699D01*
X33898Y73199D01*
X32898D01*
X32398Y72699D01*
X-32501Y69999D02*
X-33000Y70499D01*
X-34000D01*
X-34500Y69999D01*
Y68000D01*
X-34000Y67500D01*
X-33000D01*
X-32501Y68000D01*
X-30001Y70499D02*
X-31001D01*
X-31501Y69999D01*
Y68000D01*
X-31001Y67500D01*
X-30001D01*
X-29502Y68000D01*
Y69999D01*
X-30001Y70499D01*
X-28502Y67500D02*
X-27502D01*
X-28002D01*
Y70499D01*
X-28502Y69999D01*
X-9000Y-71501D02*
Y-74000D01*
X-8500Y-74500D01*
X-7501D01*
X-7001Y-74000D01*
Y-71501D01*
X-6001Y-72001D02*
X-5501Y-71501D01*
X-4501D01*
X-4002Y-72001D01*
Y-72501D01*
X-4501Y-73001D01*
X-5001D01*
X-4501D01*
X-4002Y-73500D01*
Y-74000D01*
X-4501Y-74500D01*
X-5501D01*
X-6001Y-74000D01*
X-60500Y-70000D02*
Y-68001D01*
X-59500Y-67001D01*
X-58501Y-68001D01*
Y-70000D01*
Y-68501D01*
X-60500D01*
X-57501Y-70000D02*
Y-67001D01*
X-55502Y-70000D01*
Y-67001D01*
X-54502D02*
X-52503D01*
X-53502D01*
Y-70000D01*
X-51503D02*
X-50503D01*
X-51003D01*
Y-67001D01*
X-51503Y-67501D01*
X25700Y-52001D02*
Y-52501D01*
X26700Y-53500D01*
X27699Y-52501D01*
Y-52001D01*
X26700Y-53500D02*
Y-55000D01*
X30698D02*
X28699D01*
X30698Y-53001D01*
Y-52501D01*
X30199Y-52001D01*
X29199D01*
X28699Y-52501D01*
X-50900Y6499D02*
Y5999D01*
X-49900Y5000D01*
X-48901Y5999D01*
Y6499D01*
X-49900Y5000D02*
Y3500D01*
X-47901D02*
X-46901D01*
X-47401D01*
Y6499D01*
X-47901Y5999D01*
X-58700Y-56701D02*
Y-59200D01*
X-58200Y-59700D01*
X-57200D01*
X-56701Y-59200D01*
Y-56701D01*
X-55701Y-59700D02*
X-54701D01*
X-55201D01*
Y-56701D01*
X-55701Y-57201D01*
X26500Y-10001D02*
Y-12500D01*
X27000Y-13000D01*
X27999D01*
X28499Y-12500D01*
Y-10001D01*
X31498Y-13000D02*
X29499D01*
X31498Y-11001D01*
Y-10501D01*
X30999Y-10001D01*
X29999D01*
X29499Y-10501D01*
X-37600Y40899D02*
Y38400D01*
X-37100Y37900D01*
X-36101D01*
X-35601Y38400D01*
Y40899D01*
X-34601Y37900D02*
X-33601D01*
X-34101D01*
Y40899D01*
X-34601Y40399D01*
X-32102D02*
X-31602Y40899D01*
X-30602D01*
X-30102Y40399D01*
Y38400D01*
X-30602Y37900D01*
X-31602D01*
X-32102Y38400D01*
Y40399D01*
X32700Y-50401D02*
Y-52900D01*
X33200Y-53400D01*
X34200D01*
X34699Y-52900D01*
Y-50401D01*
X35699Y-53400D02*
X36699D01*
X36199D01*
Y-50401D01*
X35699Y-50901D01*
X38198Y-53400D02*
X39198D01*
X38698D01*
Y-50401D01*
X38198Y-50901D01*
X51699Y-33801D02*
X51200Y-33301D01*
X50200D01*
X49700Y-33801D01*
Y-35800D01*
X50200Y-36300D01*
X51200D01*
X51699Y-35800D01*
X54199Y-33301D02*
X53199D01*
X52699Y-33801D01*
Y-35800D01*
X53199Y-36300D01*
X54199D01*
X54698Y-35800D01*
Y-33801D01*
X54199Y-33301D01*
X55698D02*
Y-36300D01*
X57198D01*
X57697Y-35800D01*
Y-35300D01*
Y-34800D01*
X57198Y-34301D01*
X55698D01*
X59197D02*
X60197D01*
X60696Y-34800D01*
Y-36300D01*
X59197D01*
X58697Y-35800D01*
X59197Y-35300D01*
X60696D01*
X62196Y-33801D02*
Y-34301D01*
X61696D01*
X62696D01*
X62196D01*
Y-35800D01*
X62696Y-36300D01*
X50001Y10199D02*
X49501Y9700D01*
Y8700D01*
X50001Y8200D01*
X52000D01*
X52500Y8700D01*
Y9700D01*
X52000Y10199D01*
X49501Y12699D02*
Y11699D01*
X50001Y11199D01*
X52000D01*
X52500Y11699D01*
Y12699D01*
X52000Y13198D01*
X50001D01*
X49501Y12699D01*
X50501Y16197D02*
Y14698D01*
X51000Y14198D01*
X52000D01*
X52500Y14698D01*
Y16197D01*
X49501Y17197D02*
X52500D01*
X51000D01*
X50501Y17697D01*
Y18697D01*
X51000Y19196D01*
X52500D01*
Y20196D02*
Y21196D01*
Y20696D01*
X49501D01*
X50001Y20196D01*
X40399Y-57701D02*
X39900Y-57201D01*
X38900D01*
X38400Y-57701D01*
Y-58201D01*
X38900Y-58701D01*
X39900D01*
X40399Y-59200D01*
Y-59700D01*
X39900Y-60200D01*
X38900D01*
X38400Y-59700D01*
X41399Y-57201D02*
Y-60200D01*
X42399Y-59200D01*
X43398Y-60200D01*
Y-57201D01*
X44398Y-60200D02*
X45398D01*
X44898D01*
Y-57201D01*
X44398Y-57701D01*
X50599Y3599D02*
X50099Y4099D01*
X49100D01*
X48600Y3599D01*
Y1600D01*
X49100Y1100D01*
X50099D01*
X50599Y1600D01*
X53099Y4099D02*
X52099D01*
X51599Y3599D01*
Y1600D01*
X52099Y1100D01*
X53099D01*
X53598Y1600D01*
Y3599D01*
X53099Y4099D01*
X56597Y3099D02*
X55098D01*
X54598Y2599D01*
Y1600D01*
X55098Y1100D01*
X56597D01*
X57597Y4099D02*
Y1100D01*
Y2599D01*
X58097Y3099D01*
X59097D01*
X59596Y2599D01*
Y1100D01*
X62595D02*
X60596D01*
X62595Y3099D01*
Y3599D01*
X62096Y4099D01*
X61096D01*
X60596Y3599D01*
D49*
X-14261Y-11053D02*
G03*
X-14261Y-11053I-492J0D01*
G01*
X50887Y34332D02*
G03*
X50887Y34332I-440J0D01*
G01*
X-2213D02*
G03*
X-2213Y34332I-440J0D01*
G01*
X-24780Y61000D02*
X2780D01*
X32270Y-72121D02*
Y-62279D01*
X53530D01*
Y-72121D02*
Y-62279D01*
X32270Y-72121D02*
X53530D01*
X47776Y-30264D02*
X54665D01*
X47776D02*
Y-28787D01*
Y-2213D02*
Y-835D01*
X54665D01*
D74*
X5732Y72417D02*
G03*
X5732Y72417I-591J0D01*
G01*
D75*
X-34370Y3201D02*
G03*
X-34370Y3201I-492J0D01*
G01*
X-19870D02*
G03*
X-19870Y3201I-492J0D01*
G01*
X-3606D02*
G03*
X-3606Y3201I-492J0D01*
G01*
D76*
X-2209Y-56240D02*
G03*
X-2209Y-56240I-413J0D01*
G01*
D77*
X32425Y-43868D02*
G03*
X32465Y-43914I-348J-348D01*
G01*
X54800Y5600D02*
Y22200D01*
X63200D01*
Y5600D02*
Y22200D01*
X54800Y5600D02*
X63200D01*
X53700Y-54300D02*
X62100D01*
Y-37700D01*
X53700D02*
X62100D01*
X53700Y-54300D02*
Y-37700D01*
X17300Y37893D02*
Y38507D01*
X31107Y33022D02*
Y35581D01*
X32387Y34302D01*
X31107Y33022D02*
X32387Y34302D01*
Y34302D02*
X32455Y34355D01*
X32659D02*
X33272D01*
X32455D02*
X32659D01*
X32455Y30555D02*
X32659D01*
X33272D01*
X32387Y30502D02*
X32455Y30555D01*
X31107Y29222D02*
X32387Y30502D01*
X31107Y31781D02*
X32387Y30502D01*
X31107Y29222D02*
Y31781D01*
X17300Y30293D02*
Y30907D01*
X51193Y48608D02*
Y49986D01*
X-2793Y28315D02*
Y29693D01*
X-47500Y59811D02*
Y61189D01*
X-55500Y56311D02*
Y57689D01*
Y63311D02*
Y64689D01*
X-47500Y63311D02*
Y64689D01*
X-2800Y25611D02*
Y26989D01*
X47500Y22711D02*
Y24089D01*
X47507Y41815D02*
Y43192D01*
X43907Y-36985D02*
Y-35607D01*
X28383Y-34290D02*
X29761D01*
X31407Y-29082D02*
X32785D01*
X28808Y-41793D02*
X30185D01*
X34407Y-29082D02*
X35785D01*
X37707Y-22993D02*
X39086D01*
X-20907Y46308D02*
Y47686D01*
X-2186Y-50007D02*
X-807D01*
X-5192Y-49993D02*
X-3814D01*
X-42786Y8793D02*
X-41407D01*
X8008Y61707D02*
X9386D01*
X-32693Y62507D02*
X-31315D01*
X4907Y62407D02*
X6285D01*
X-32686Y55493D02*
X-31308D01*
X-38686D02*
X-37308D01*
X-35686D02*
X-34308D01*
X55993Y34308D02*
Y35686D01*
X47607Y27714D02*
Y29092D01*
X-5693Y42314D02*
Y43692D01*
X2493Y34308D02*
Y35686D01*
X34907Y-2393D02*
X36285D01*
X14514Y-4507D02*
X15892D01*
X-11186Y-50007D02*
X-9808D01*
X3814D02*
X5192D01*
X7315D02*
X8692D01*
X17507Y-63186D02*
Y-61808D01*
X807Y-49993D02*
X2186D01*
X28379Y-26582D02*
X29757D01*
X-53439Y51364D02*
Y52742D01*
X-53489Y26800D02*
X-52111D01*
X-47500Y56311D02*
Y57689D01*
X-43689Y-3500D02*
X-42311D01*
X-59689D02*
X-58311D01*
X51200Y45611D02*
Y46989D01*
X-2000Y45611D02*
Y46989D01*
X19500Y-59689D02*
Y-58311D01*
X10811Y-51000D02*
X12189D01*
X17500Y-66189D02*
Y-64811D01*
Y-69189D02*
Y-67811D01*
X-8189Y-49800D02*
X-6811D01*
X-8000Y-57189D02*
Y-55811D01*
X-7000Y-69189D02*
Y-67811D01*
Y-66189D02*
Y-64811D01*
X-55500Y59811D02*
Y61189D01*
X57928Y58011D02*
Y59389D01*
Y65011D02*
Y66389D01*
Y61511D02*
Y62889D01*
X-48094Y52000D02*
X-47306D01*
X41614Y-41475D02*
X43386D01*
X37514Y-29100D02*
X39286D01*
X31107Y40622D02*
Y43181D01*
X32387Y41902D01*
X31107Y40622D02*
X32387Y41902D01*
Y41902D02*
X32455Y41955D01*
X32659D02*
X33272D01*
X32455D02*
X32659D01*
X-10653Y-63464D02*
X-4649D01*
X-10653Y-59428D02*
X-4649D01*
X32455Y38155D02*
X32659D01*
X33272D01*
X32387Y38102D02*
X32455Y38155D01*
X31107Y36822D02*
X32387Y38102D01*
X31107Y39381D02*
X32387Y38102D01*
X31107Y36822D02*
Y39381D01*
X32130Y-35896D02*
X32400D01*
X39500Y-43672D02*
X39906D01*
X39500Y-35896D02*
X39906D01*
Y-43672D02*
Y-35896D01*
X32032Y-43675D02*
Y-35896D01*
X44522Y-52207D02*
X47081D01*
X45802Y-53487D02*
X47081Y-52207D01*
X44522D02*
X45802Y-53487D01*
X45802D02*
X45855Y-53555D01*
Y-54372D02*
Y-53759D01*
Y-53555D01*
X17300Y33993D02*
Y34607D01*
Y41593D02*
Y42207D01*
X19732Y-449D02*
X23668D01*
X19732Y-6551D02*
X23078D01*
X27822Y-449D02*
X31168D01*
X27231Y-6551D02*
X31168D01*
X39808Y14007D02*
X41186D01*
X33507Y14207D02*
X34885D01*
X45131Y33347D02*
X49068D01*
X45131D02*
Y39253D01*
X49068Y33347D02*
Y39253D01*
X45131D02*
X49068D01*
X-7969D02*
X-4031D01*
Y33347D02*
Y39253D01*
X-7969Y33347D02*
Y39253D01*
Y33347D02*
X-4031D01*
X49518Y-58795D02*
X48851D01*
X48518Y-59128D01*
Y-60461D01*
X48851Y-60795D01*
X49518D01*
X49851Y-60461D01*
Y-59128D01*
X49518Y-58795D01*
X51850D02*
X50517D01*
Y-59795D01*
X51184D01*
X50517D01*
Y-60795D01*
X53850Y-58795D02*
X52517D01*
Y-59795D01*
X53183D01*
X52517D01*
Y-60795D01*
X32801Y-58795D02*
X32135D01*
X31801Y-59128D01*
Y-60461D01*
X32135Y-60795D01*
X32801D01*
X33134Y-60461D01*
Y-59128D01*
X32801Y-58795D01*
X33801Y-60795D02*
Y-58795D01*
X35133Y-60795D01*
Y-58795D01*
X9300Y37400D02*
Y39399D01*
X10300D01*
X10633Y39066D01*
Y38400D01*
X10300Y38066D01*
X9300D01*
X9967D02*
X10633Y37400D01*
X12632Y38733D02*
X11633D01*
X11299Y38400D01*
Y37733D01*
X11633Y37400D01*
X12632D01*
X14632Y39066D02*
X14298Y39399D01*
X13632D01*
X13299Y39066D01*
Y37733D01*
X13632Y37400D01*
X14298D01*
X14632Y37733D01*
X34800Y35399D02*
Y33400D01*
X36133D01*
X38132Y35399D02*
X36799D01*
Y33400D01*
X38132D01*
X36799Y34400D02*
X37466D01*
X38799Y35399D02*
Y33400D01*
X39798D01*
X40132Y33733D01*
Y35066D01*
X39798Y35399D01*
X38799D01*
X40798Y33400D02*
X41464D01*
X41131D01*
Y35399D01*
X40798Y35066D01*
X34700Y31599D02*
Y29600D01*
X36033D01*
X38032Y31599D02*
X36699D01*
Y29600D01*
X38032D01*
X36699Y30600D02*
X37366D01*
X38699Y31599D02*
Y29600D01*
X39698D01*
X40032Y29933D01*
Y31266D01*
X39698Y31599D01*
X38699D01*
X40698Y31266D02*
X41031Y31599D01*
X41698D01*
X42031Y31266D01*
Y29933D01*
X41698Y29600D01*
X41031D01*
X40698Y29933D01*
Y31266D01*
X9400Y29700D02*
Y31699D01*
X10400D01*
X10733Y31366D01*
Y30700D01*
X10400Y30366D01*
X9400D01*
X10067D02*
X10733Y29700D01*
X12732Y31033D02*
X11733D01*
X11399Y30700D01*
Y30033D01*
X11733Y29700D01*
X12732D01*
X13399Y31366D02*
X13732Y31699D01*
X14398D01*
X14732Y31366D01*
Y30033D01*
X14398Y29700D01*
X13732D01*
X13399Y30033D01*
Y31366D01*
X2033Y26966D02*
X1700Y27299D01*
X1033D01*
X700Y26966D01*
Y25633D01*
X1033Y25300D01*
X1700D01*
X2033Y25633D01*
X2699Y25300D02*
Y26633D01*
X3699D01*
X4032Y26300D01*
Y25300D01*
X4699D02*
Y26633D01*
X5365Y27299D01*
X6032Y26633D01*
Y25300D01*
Y26300D01*
X4699D01*
X52233Y25066D02*
X51900Y25399D01*
X51233D01*
X50900Y25066D01*
Y23733D01*
X51233Y23400D01*
X51900D01*
X52233Y23733D01*
X52899Y23400D02*
Y24733D01*
X53899D01*
X54232Y24400D01*
Y23400D01*
X54899Y23733D02*
X55232Y23400D01*
X55898D01*
X56232Y23733D01*
Y25066D01*
X55898Y25399D01*
X55232D01*
X54899Y25066D01*
Y24733D01*
X55232Y24400D01*
X56232D01*
X-59167Y73166D02*
X-59500Y73499D01*
X-60167D01*
X-60500Y73166D01*
Y71833D01*
X-60167Y71500D01*
X-59500D01*
X-59167Y71833D01*
X-58501Y73499D02*
Y71500D01*
X-57501D01*
X-57168Y71833D01*
Y72166D01*
Y72500D01*
X-57501Y72833D01*
X-58501D01*
X-56501Y71500D02*
Y72833D01*
X-55835Y73499D01*
X-55168Y72833D01*
Y71500D01*
Y72500D01*
X-56501D01*
X-54502Y73166D02*
X-54169Y73499D01*
X-53502D01*
X-53169Y73166D01*
Y71833D01*
X-53502Y71500D01*
X-54169D01*
X-54502Y71833D01*
Y73166D01*
X-48667D02*
X-49000Y73499D01*
X-49667D01*
X-50000Y73166D01*
Y71833D01*
X-49667Y71500D01*
X-49000D01*
X-48667Y71833D01*
X-48001Y73499D02*
Y71500D01*
X-47001D01*
X-46668Y71833D01*
Y72166D01*
Y72500D01*
X-47001Y72833D01*
X-48001D01*
X-46001Y73499D02*
Y71500D01*
X-45002D01*
X-44668Y71833D01*
Y72166D01*
X-45002Y72500D01*
X-46001D01*
X-45002D01*
X-44668Y72833D01*
Y73166D01*
X-45002Y73499D01*
X-46001D01*
X-44002Y73166D02*
X-43669Y73499D01*
X-43002D01*
X-42669Y73166D01*
Y71833D01*
X-43002Y71500D01*
X-43669D01*
X-44002Y71833D01*
Y73166D01*
X56033Y73666D02*
X55700Y73999D01*
X55033D01*
X54700Y73666D01*
Y72333D01*
X55033Y72000D01*
X55700D01*
X56033Y72333D01*
X56699Y73999D02*
Y72000D01*
X57699D01*
X58032Y72333D01*
Y72666D01*
Y73000D01*
X57699Y73333D01*
X56699D01*
X58699Y72000D02*
Y73333D01*
X59365Y73999D01*
X60032Y73333D01*
Y72000D01*
Y73000D01*
X58699D01*
X60698Y72000D02*
X61365D01*
X61031D01*
Y73999D01*
X60698Y73666D01*
X55133Y56466D02*
X54800Y56799D01*
X54133D01*
X53800Y56466D01*
Y55133D01*
X54133Y54800D01*
X54800D01*
X55133Y55133D01*
X55799Y56799D02*
Y54800D01*
X56799D01*
X57132Y55133D01*
Y55466D01*
Y55800D01*
X56799Y56133D01*
X55799D01*
X57799Y55133D02*
X58132Y54800D01*
X58798D01*
X59132Y55133D01*
Y56466D01*
X58798Y56799D01*
X58132D01*
X57799Y56466D01*
Y56133D01*
X58132Y55800D01*
X59132D01*
X61131Y56799D02*
X59798D01*
Y55800D01*
X60465Y56133D01*
X60798D01*
X61131Y55800D01*
Y55133D01*
X60798Y54800D01*
X60131D01*
X59798Y55133D01*
X-42667Y61066D02*
X-43000Y61399D01*
X-43667D01*
X-44000Y61066D01*
Y59733D01*
X-43667Y59400D01*
X-43000D01*
X-42667Y59733D01*
X-42001Y61399D02*
Y59400D01*
X-41001D01*
X-40668Y59733D01*
Y60066D01*
Y60400D01*
X-41001Y60733D01*
X-42001D01*
X-40001Y59733D02*
X-39668Y59400D01*
X-39002D01*
X-38668Y59733D01*
Y61066D01*
X-39002Y61399D01*
X-39668D01*
X-40001Y61066D01*
Y60733D01*
X-39668Y60400D01*
X-38668D01*
X-38002Y61066D02*
X-37669Y61399D01*
X-37002D01*
X-36669Y61066D01*
Y60733D01*
X-37002Y60400D01*
X-37336D01*
X-37002D01*
X-36669Y60066D01*
Y59733D01*
X-37002Y59400D01*
X-37669D01*
X-38002Y59733D01*
X-42667Y64666D02*
X-43000Y64999D01*
X-43667D01*
X-44000Y64666D01*
Y63333D01*
X-43667Y63000D01*
X-43000D01*
X-42667Y63333D01*
X-42001Y64999D02*
Y63000D01*
X-41001D01*
X-40668Y63333D01*
Y63666D01*
Y64000D01*
X-41001Y64333D01*
X-42001D01*
X-40001Y63333D02*
X-39668Y63000D01*
X-39002D01*
X-38668Y63333D01*
Y64666D01*
X-39002Y64999D01*
X-39668D01*
X-40001Y64666D01*
Y64333D01*
X-39668Y64000D01*
X-38668D01*
X-38002Y63000D02*
X-37336D01*
X-37669D01*
Y64999D01*
X-38002Y64666D01*
X22000Y-63500D02*
Y-61501D01*
X23000D01*
X23333Y-61834D01*
Y-62500D01*
X23000Y-62834D01*
X22000D01*
X22667D02*
X23333Y-63500D01*
X23999Y-62167D02*
Y-63500D01*
Y-62834D01*
X24333Y-62500D01*
X24666Y-62167D01*
X24999D01*
X27332Y-61501D02*
X25999D01*
Y-62500D01*
X26665Y-62167D01*
X26998D01*
X27332Y-62500D01*
Y-63167D01*
X26998Y-63500D01*
X26332D01*
X25999Y-63167D01*
X11400Y2300D02*
X13399D01*
Y1300D01*
X13066Y967D01*
X12400D01*
X12066Y1300D01*
Y2300D01*
Y1633D02*
X11400Y967D01*
Y301D02*
X12733D01*
Y-699D01*
X12400Y-1032D01*
X11400D01*
Y-1699D02*
X12733D01*
X13399Y-2365D01*
X12733Y-3032D01*
X11400D01*
X12400D01*
Y-1699D01*
X37400Y-100D02*
X39399D01*
Y-1100D01*
X39066Y-1433D01*
X38400D01*
X38066Y-1100D01*
Y-100D01*
Y-766D02*
X37400Y-1433D01*
Y-2099D02*
X38733D01*
Y-3099D01*
X38400Y-3432D01*
X37400D01*
X37733Y-4099D02*
X37400Y-4432D01*
Y-5098D01*
X37733Y-5432D01*
X39066D01*
X39399Y-5098D01*
Y-4432D01*
X39066Y-4099D01*
X38733D01*
X38400Y-4432D01*
Y-5432D01*
X1000Y28000D02*
Y29999D01*
X2000D01*
X2333Y29666D01*
Y29000D01*
X2000Y28666D01*
X1000D01*
X1667D02*
X2333Y28000D01*
X2999D02*
Y29333D01*
X3999D01*
X4332Y29000D01*
Y28000D01*
X4999Y29666D02*
X5332Y29999D01*
X5998D01*
X6332Y29666D01*
Y29333D01*
X5998Y29000D01*
X6332Y28666D01*
Y28333D01*
X5998Y28000D01*
X5332D01*
X4999Y28333D01*
Y28666D01*
X5332Y29000D01*
X4999Y29333D01*
Y29666D01*
X5332Y29000D02*
X5998D01*
X-100Y31200D02*
Y33199D01*
X900D01*
X1233Y32866D01*
Y32200D01*
X900Y31866D01*
X-100D01*
X567D02*
X1233Y31200D01*
X1899D02*
Y32533D01*
X2899D01*
X3232Y32200D01*
Y31200D01*
X3899Y33199D02*
X5232D01*
Y32866D01*
X3899Y31533D01*
Y31200D01*
X-14900Y41900D02*
Y43899D01*
X-13900D01*
X-13567Y43566D01*
Y42900D01*
X-13900Y42566D01*
X-14900D01*
X-14233D02*
X-13567Y41900D01*
X-12901D02*
Y43233D01*
X-11901D01*
X-11568Y42900D01*
Y41900D01*
X-9568Y43899D02*
X-10901D01*
Y42900D01*
X-10235Y43233D01*
X-9902D01*
X-9568Y42900D01*
Y42233D01*
X-9902Y41900D01*
X-10568D01*
X-10901Y42233D01*
X51400Y27800D02*
Y29799D01*
X52400D01*
X52733Y29466D01*
Y28800D01*
X52400Y28466D01*
X51400D01*
X52066D02*
X52733Y27800D01*
X53399D02*
Y29133D01*
X54399D01*
X54732Y28800D01*
Y27800D01*
X56398D02*
Y29799D01*
X55399Y28800D01*
X56732D01*
X53200Y31200D02*
Y33199D01*
X54200D01*
X54533Y32866D01*
Y32200D01*
X54200Y31866D01*
X53200D01*
X53866D02*
X54533Y31200D01*
X55199D02*
Y32533D01*
X56199D01*
X56532Y32200D01*
Y31200D01*
X57199Y32866D02*
X57532Y33199D01*
X58198D01*
X58532Y32866D01*
Y32533D01*
X58198Y32200D01*
X57865D01*
X58198D01*
X58532Y31866D01*
Y31533D01*
X58198Y31200D01*
X57532D01*
X57199Y31533D01*
X57100Y48300D02*
Y50299D01*
X58100D01*
X58433Y49966D01*
Y49300D01*
X58100Y48966D01*
X57100D01*
X57766D02*
X58433Y48300D01*
X59099D02*
Y49633D01*
X60099D01*
X60432Y49300D01*
Y48300D01*
X62432D02*
X61099D01*
X62432Y49633D01*
Y49966D01*
X62098Y50299D01*
X61432D01*
X61099Y49966D01*
X-34000Y46100D02*
X-35999D01*
Y47100D01*
X-35666Y47433D01*
X-35000D01*
X-34666Y47100D01*
Y46100D01*
Y46766D02*
X-34000Y47433D01*
X-35333Y49432D02*
Y48433D01*
X-35000Y48099D01*
X-34333D01*
X-34000Y48433D01*
Y49432D01*
X-35999Y50099D02*
X-34000D01*
Y51098D01*
X-34333Y51432D01*
X-34666D01*
X-35000Y51098D01*
Y50099D01*
Y51098D01*
X-35333Y51432D01*
X-35666D01*
X-35999Y51098D01*
Y50099D01*
X-37200Y44800D02*
X-39199D01*
Y45800D01*
X-38866Y46133D01*
X-38200D01*
X-37866Y45800D01*
Y44800D01*
Y45466D02*
X-37200Y46133D01*
X-38533Y48132D02*
Y47133D01*
X-38200Y46799D01*
X-37533D01*
X-37200Y47133D01*
Y48132D01*
Y48799D02*
X-38533D01*
X-39199Y49465D01*
X-38533Y50132D01*
X-37200D01*
X-38200D01*
Y48799D01*
X-31000Y46100D02*
X-32999D01*
Y47100D01*
X-32666Y47433D01*
X-32000D01*
X-31666Y47100D01*
Y46100D01*
Y46766D02*
X-31000Y47433D01*
X-32333Y49432D02*
Y48433D01*
X-32000Y48099D01*
X-31333D01*
X-31000Y48433D01*
Y49432D01*
X-31333Y50099D02*
X-31000Y50432D01*
Y51098D01*
X-31333Y51432D01*
X-32666D01*
X-32999Y51098D01*
Y50432D01*
X-32666Y50099D01*
X-32333D01*
X-32000Y50432D01*
Y51432D01*
X6500Y53200D02*
X4501D01*
Y54200D01*
X4834Y54533D01*
X5500D01*
X5834Y54200D01*
Y53200D01*
Y53866D02*
X6500Y54533D01*
X5167Y56532D02*
Y55533D01*
X5500Y55199D01*
X6167D01*
X6500Y55533D01*
Y56532D01*
X4834Y57199D02*
X4501Y57532D01*
Y58198D01*
X4834Y58532D01*
X5167D01*
X5500Y58198D01*
X5834Y58532D01*
X6167D01*
X6500Y58198D01*
Y57532D01*
X6167Y57199D01*
X5834D01*
X5500Y57532D01*
X5167Y57199D01*
X4834D01*
X5500Y57532D02*
Y58198D01*
X-28100Y59700D02*
X-30099D01*
Y60700D01*
X-29766Y61033D01*
X-29100D01*
X-28766Y60700D01*
Y59700D01*
Y60366D02*
X-28100Y61033D01*
X-29433Y63032D02*
Y62033D01*
X-29100Y61699D01*
X-28433D01*
X-28100Y62033D01*
Y63032D01*
X-30099Y63699D02*
Y65032D01*
X-29766D01*
X-28433Y63699D01*
X-28100D01*
X9700Y65400D02*
X7701D01*
Y66400D01*
X8034Y66733D01*
X8700D01*
X9033Y66400D01*
Y65400D01*
Y66066D02*
X9700Y66733D01*
X8367Y68732D02*
Y67733D01*
X8700Y67399D01*
X9367D01*
X9700Y67733D01*
Y68732D01*
X7701Y70732D02*
X8034Y70065D01*
X8700Y69399D01*
X9367D01*
X9700Y69732D01*
Y70398D01*
X9367Y70732D01*
X9033D01*
X8700Y70398D01*
Y69399D01*
X-41000Y12500D02*
X-42999D01*
Y13500D01*
X-42666Y13833D01*
X-42000D01*
X-41666Y13500D01*
Y12500D01*
Y13167D02*
X-41000Y13833D01*
X-42333Y15832D02*
Y14833D01*
X-42000Y14499D01*
X-41333D01*
X-41000Y14833D01*
Y15832D01*
Y17498D02*
X-42999D01*
X-42000Y16499D01*
Y17832D01*
X9300Y40900D02*
Y42899D01*
X10300D01*
X10633Y42566D01*
Y41900D01*
X10300Y41566D01*
X9300D01*
X9967D02*
X10633Y40900D01*
X12632Y42233D02*
X11633D01*
X11299Y41900D01*
Y41233D01*
X11633Y40900D01*
X12632D01*
X13299Y42899D02*
Y40900D01*
X14298D01*
X14632Y41233D01*
Y42566D01*
X14298Y42899D01*
X13299D01*
X9400Y33400D02*
Y35399D01*
X10400D01*
X10733Y35066D01*
Y34400D01*
X10400Y34066D01*
X9400D01*
X10067D02*
X10733Y33400D01*
X12732Y34733D02*
X11733D01*
X11399Y34400D01*
Y33733D01*
X11733Y33400D01*
X12732D01*
X13399D02*
X14065D01*
X13732D01*
Y35399D01*
X13399Y35066D01*
X-35100Y-8501D02*
Y-10500D01*
X-33767D01*
X-33101D02*
X-32101D01*
X-31768Y-10167D01*
X-32101Y-9833D01*
X-32767D01*
X-33101Y-9500D01*
X-32767Y-9167D01*
X-31768D01*
X-31101Y-8834D02*
X-30768Y-8501D01*
X-30102D01*
X-29768Y-8834D01*
Y-9167D01*
X-30102Y-9500D01*
X-30435D01*
X-30102D01*
X-29768Y-9833D01*
Y-10167D01*
X-30102Y-10500D01*
X-30768D01*
X-31101Y-10167D01*
X-4000Y-8301D02*
Y-10300D01*
X-2667D01*
X-2001D02*
X-1001D01*
X-668Y-9967D01*
X-1001Y-9634D01*
X-1667D01*
X-2001Y-9300D01*
X-1667Y-8967D01*
X-668D01*
X1332Y-10300D02*
X-1D01*
X1332Y-8967D01*
Y-8634D01*
X998Y-8301D01*
X332D01*
X-1Y-8634D01*
X-23000Y-8401D02*
Y-10400D01*
X-21667D01*
X-21001D02*
X-20001D01*
X-19668Y-10067D01*
X-20001Y-9734D01*
X-20667D01*
X-21001Y-9400D01*
X-20667Y-9067D01*
X-19668D01*
X-19001Y-10400D02*
X-18335D01*
X-18668D01*
Y-8401D01*
X-19001Y-8734D01*
X-26666Y-2167D02*
X-26999Y-2500D01*
Y-3167D01*
X-26666Y-3500D01*
X-25333D01*
X-25000Y-3167D01*
Y-2500D01*
X-25333Y-2167D01*
X-25000Y-1501D02*
Y-501D01*
X-25333Y-168D01*
X-25666Y-501D01*
Y-1167D01*
X-26000Y-1501D01*
X-26333Y-1167D01*
Y-168D01*
X-26999Y1832D02*
X-26666Y1165D01*
X-26000Y499D01*
X-25333D01*
X-25000Y832D01*
Y1498D01*
X-25333Y1832D01*
X-25666D01*
X-26000Y1498D01*
Y499D01*
X-35667Y20866D02*
X-36000Y21199D01*
X-36667D01*
X-37000Y20866D01*
Y19533D01*
X-36667Y19200D01*
X-36000D01*
X-35667Y19533D01*
X-35001Y19200D02*
X-34001D01*
X-33668Y19533D01*
X-34001Y19866D01*
X-34667D01*
X-35001Y20200D01*
X-34667Y20533D01*
X-33668D01*
X-31668Y21199D02*
X-33001D01*
Y20200D01*
X-32335Y20533D01*
X-32002D01*
X-31668Y20200D01*
Y19533D01*
X-32002Y19200D01*
X-32668D01*
X-33001Y19533D01*
X4134Y-1667D02*
X3801Y-2000D01*
Y-2667D01*
X4134Y-3000D01*
X5467D01*
X5800Y-2667D01*
Y-2000D01*
X5467Y-1667D01*
X5800Y-1001D02*
Y-1D01*
X5467Y332D01*
X5134Y-1D01*
Y-667D01*
X4800Y-1001D01*
X4467Y-667D01*
Y332D01*
X5800Y1998D02*
X3801D01*
X4800Y999D01*
Y2332D01*
X-5267Y20666D02*
X-5600Y20999D01*
X-6267D01*
X-6600Y20666D01*
Y19333D01*
X-6267Y19000D01*
X-5600D01*
X-5267Y19333D01*
X-4601Y19000D02*
X-3601D01*
X-3268Y19333D01*
X-3601Y19667D01*
X-4267D01*
X-4601Y20000D01*
X-4267Y20333D01*
X-3268D01*
X-2601Y20666D02*
X-2268Y20999D01*
X-1602D01*
X-1268Y20666D01*
Y20333D01*
X-1602Y20000D01*
X-1935D01*
X-1602D01*
X-1268Y19667D01*
Y19333D01*
X-1602Y19000D01*
X-2268D01*
X-2601Y19333D01*
X-12166Y-2067D02*
X-12499Y-2400D01*
Y-3067D01*
X-12166Y-3400D01*
X-10833D01*
X-10500Y-3067D01*
Y-2400D01*
X-10833Y-2067D01*
X-10500Y-1401D02*
Y-401D01*
X-10833Y-68D01*
X-11167Y-401D01*
Y-1067D01*
X-11500Y-1401D01*
X-11833Y-1067D01*
Y-68D01*
X-10500Y1932D02*
Y599D01*
X-11833Y1932D01*
X-12166D01*
X-12499Y1598D01*
Y932D01*
X-12166Y599D01*
X-20967Y20766D02*
X-21300Y21099D01*
X-21967D01*
X-22300Y20766D01*
Y19433D01*
X-21967Y19100D01*
X-21300D01*
X-20967Y19433D01*
X-20301Y19100D02*
X-19301D01*
X-18968Y19433D01*
X-19301Y19767D01*
X-19967D01*
X-20301Y20100D01*
X-19967Y20433D01*
X-18968D01*
X-18301Y19100D02*
X-17635D01*
X-17968D01*
Y21099D01*
X-18301Y20766D01*
X-14667Y-64934D02*
X-15000Y-64601D01*
X-15667D01*
X-16000Y-64934D01*
Y-66267D01*
X-15667Y-66600D01*
X-15000D01*
X-14667Y-66267D01*
X-14001Y-65267D02*
Y-66600D01*
Y-65934D01*
X-13667Y-65600D01*
X-13334Y-65267D01*
X-13001D01*
X-12001Y-64934D02*
X-11668Y-64601D01*
X-11002D01*
X-10668Y-64934D01*
Y-65267D01*
X-11002Y-65600D01*
X-10668Y-65934D01*
Y-66267D01*
X-11002Y-66600D01*
X-11668D01*
X-12001Y-66267D01*
Y-65934D01*
X-11668Y-65600D01*
X-12001Y-65267D01*
Y-64934D01*
X-11668Y-65600D02*
X-11002D01*
X-14667Y-68334D02*
X-15000Y-68001D01*
X-15667D01*
X-16000Y-68334D01*
Y-69667D01*
X-15667Y-70000D01*
X-15000D01*
X-14667Y-69667D01*
X-14001Y-68667D02*
Y-70000D01*
Y-69334D01*
X-13667Y-69000D01*
X-13334Y-68667D01*
X-13001D01*
X-12001Y-68001D02*
X-10668D01*
Y-68334D01*
X-12001Y-69667D01*
Y-70000D01*
X-15567Y-56334D02*
X-15900Y-56001D01*
X-16567D01*
X-16900Y-56334D01*
Y-57667D01*
X-16567Y-58000D01*
X-15900D01*
X-15567Y-57667D01*
X-14901Y-56667D02*
Y-58000D01*
Y-57334D01*
X-14567Y-57000D01*
X-14234Y-56667D01*
X-13901D01*
X-11568Y-56001D02*
X-12235Y-56334D01*
X-12901Y-57000D01*
Y-57667D01*
X-12568Y-58000D01*
X-11902D01*
X-11568Y-57667D01*
Y-57334D01*
X-11902Y-57000D01*
X-12901D01*
X16333Y-70834D02*
X16000Y-70501D01*
X15333D01*
X15000Y-70834D01*
Y-72167D01*
X15333Y-72500D01*
X16000D01*
X16333Y-72167D01*
X16999Y-71167D02*
Y-72500D01*
Y-71834D01*
X17333Y-71500D01*
X17666Y-71167D01*
X17999D01*
X19998Y-72500D02*
Y-70501D01*
X18999Y-71500D01*
X20332D01*
X21334Y-68667D02*
X21001Y-69000D01*
Y-69667D01*
X21334Y-70000D01*
X22667D01*
X23000Y-69667D01*
Y-69000D01*
X22667Y-68667D01*
X21667Y-68001D02*
X23000D01*
X22333D01*
X22000Y-67667D01*
X21667Y-67334D01*
Y-67001D01*
X21334Y-66001D02*
X21001Y-65668D01*
Y-65002D01*
X21334Y-64668D01*
X21667D01*
X22000Y-65002D01*
Y-65335D01*
Y-65002D01*
X22333Y-64668D01*
X22667D01*
X23000Y-65002D01*
Y-65668D01*
X22667Y-66001D01*
X24433Y-58334D02*
X24100Y-58001D01*
X23433D01*
X23100Y-58334D01*
Y-59667D01*
X23433Y-60000D01*
X24100D01*
X24433Y-59667D01*
X25099Y-58667D02*
Y-60000D01*
Y-59334D01*
X25433Y-59000D01*
X25766Y-58667D01*
X26099D01*
X27099Y-60000D02*
X27765D01*
X27432D01*
Y-58001D01*
X27099Y-58334D01*
X1133Y43166D02*
X800Y43499D01*
X133D01*
X-200Y43166D01*
Y41833D01*
X133Y41500D01*
X800D01*
X1133Y41833D01*
X1799Y41500D02*
Y42833D01*
X2799D01*
X3132Y42500D01*
Y41500D01*
X4798D02*
Y43499D01*
X3799Y42500D01*
X5132D01*
X3033Y47266D02*
X2700Y47599D01*
X2033D01*
X1700Y47266D01*
Y45933D01*
X2033Y45600D01*
X2700D01*
X3033Y45933D01*
X3699Y45600D02*
Y46933D01*
X4699D01*
X5032Y46600D01*
Y45600D01*
X5699Y47266D02*
X6032Y47599D01*
X6698D01*
X7032Y47266D01*
Y46933D01*
X6698Y46600D01*
X6365D01*
X6698D01*
X7032Y46266D01*
Y45933D01*
X6698Y45600D01*
X6032D01*
X5699Y45933D01*
X58233Y46966D02*
X57900Y47299D01*
X57233D01*
X56900Y46966D01*
Y45633D01*
X57233Y45300D01*
X57900D01*
X58233Y45633D01*
X58899Y45300D02*
Y46633D01*
X59899D01*
X60232Y46300D01*
Y45300D01*
X60899D02*
X61565D01*
X61232D01*
Y47299D01*
X60899Y46966D01*
X-59666Y1433D02*
X-59999Y1100D01*
Y433D01*
X-59666Y100D01*
X-58333D01*
X-58000Y433D01*
Y1100D01*
X-58333Y1433D01*
X-59333Y3432D02*
Y2433D01*
X-59000Y2099D01*
X-58333D01*
X-58000Y2433D01*
Y3432D01*
Y5432D02*
Y4099D01*
X-59333Y5432D01*
X-59666D01*
X-59999Y5098D01*
Y4432D01*
X-59666Y4099D01*
X-43766Y1433D02*
X-44099Y1100D01*
Y433D01*
X-43766Y100D01*
X-42433D01*
X-42100Y433D01*
Y1100D01*
X-42433Y1433D01*
X-43433Y3432D02*
Y2433D01*
X-43100Y2099D01*
X-42433D01*
X-42100Y2433D01*
Y3432D01*
Y4099D02*
Y4765D01*
Y4432D01*
X-44099D01*
X-43766Y4099D01*
X34800Y39099D02*
Y37100D01*
X36133D01*
X38132Y39099D02*
X36799D01*
Y37100D01*
X38132D01*
X36799Y38100D02*
X37466D01*
X38799Y39099D02*
Y37100D01*
X39798D01*
X40132Y37433D01*
Y38766D01*
X39798Y39099D01*
X38799D01*
X42131Y37100D02*
X40798D01*
X42131Y38433D01*
Y38766D01*
X41798Y39099D01*
X41131D01*
X40798Y38766D01*
X34800Y42899D02*
Y40900D01*
X36133D01*
X38132Y42899D02*
X36799D01*
Y40900D01*
X38132D01*
X36799Y41900D02*
X37466D01*
X38799Y42899D02*
Y40900D01*
X39798D01*
X40132Y41233D01*
Y42566D01*
X39798Y42899D01*
X38799D01*
X40798Y42566D02*
X41131Y42899D01*
X41798D01*
X42131Y42566D01*
Y42233D01*
X41798Y41900D01*
X41464D01*
X41798D01*
X42131Y41566D01*
Y41233D01*
X41798Y40900D01*
X41131D01*
X40798Y41233D01*
X-18000Y-59501D02*
Y-61500D01*
X-17000D01*
X-16667Y-61167D01*
Y-60834D01*
X-17000Y-60500D01*
X-18000D01*
X-17000D01*
X-16667Y-60167D01*
Y-59834D01*
X-17000Y-59501D01*
X-18000D01*
X-16001Y-61500D02*
Y-60167D01*
X-15334Y-59501D01*
X-14668Y-60167D01*
Y-61500D01*
Y-60500D01*
X-16001D01*
X-14001Y-59501D02*
Y-61500D01*
X-12668D01*
X-12002D02*
X-11336D01*
X-11669D01*
Y-59501D01*
X-12002Y-59834D01*
X-42667Y58166D02*
X-43000Y58499D01*
X-43667D01*
X-44000Y58166D01*
Y56833D01*
X-43667Y56500D01*
X-43000D01*
X-42667Y56833D01*
X-41667Y57833D02*
X-41001D01*
X-40668Y57500D01*
Y56500D01*
X-41667D01*
X-42001Y56833D01*
X-41667Y57166D01*
X-40668D01*
X-40001Y56500D02*
X-39335D01*
X-39668D01*
Y58499D01*
X-40001Y58166D01*
X-45167Y52666D02*
X-45500Y52999D01*
X-46167D01*
X-46500Y52666D01*
Y51333D01*
X-46167Y51000D01*
X-45500D01*
X-45167Y51333D01*
X-44167Y52333D02*
X-43501D01*
X-43168Y52000D01*
Y51000D01*
X-44167D01*
X-44501Y51333D01*
X-44167Y51666D01*
X-43168D01*
X-41168Y51000D02*
X-42501D01*
X-41168Y52333D01*
Y52666D01*
X-41502Y52999D01*
X-42168D01*
X-42501Y52666D01*
X-53566Y19433D02*
X-53899Y19100D01*
Y18433D01*
X-53566Y18100D01*
X-52233D01*
X-51900Y18433D01*
Y19100D01*
X-52233Y19433D01*
X-53233Y20433D02*
Y21099D01*
X-52900Y21432D01*
X-51900D01*
Y20433D01*
X-52233Y20099D01*
X-52566Y20433D01*
Y21432D01*
X-53566Y22099D02*
X-53899Y22432D01*
Y23098D01*
X-53566Y23432D01*
X-53233D01*
X-52900Y23098D01*
Y22765D01*
Y23098D01*
X-52566Y23432D01*
X-52233D01*
X-51900Y23098D01*
Y22432D01*
X-52233Y22099D01*
X-61167Y52666D02*
X-61500Y52999D01*
X-62167D01*
X-62500Y52666D01*
Y51333D01*
X-62167Y51000D01*
X-61500D01*
X-61167Y51333D01*
X-60167Y52333D02*
X-59501D01*
X-59168Y52000D01*
Y51000D01*
X-60167D01*
X-60501Y51333D01*
X-60167Y51666D01*
X-59168D01*
X-57502Y51000D02*
Y52999D01*
X-58501Y52000D01*
X-57168D01*
X-17300Y46000D02*
Y47999D01*
X-16300D01*
X-15967Y47666D01*
Y47000D01*
X-16300Y46666D01*
X-17300D01*
X-16634D02*
X-15967Y46000D01*
X-13968Y47333D02*
X-14967D01*
X-15301Y47000D01*
Y46333D01*
X-14967Y46000D01*
X-13968D01*
X-11968Y47999D02*
X-13301D01*
Y47000D01*
X-12635Y47333D01*
X-12302D01*
X-11968Y47000D01*
Y46333D01*
X-12302Y46000D01*
X-12968D01*
X-13301Y46333D01*
X40434Y-31467D02*
X40101Y-31800D01*
Y-32467D01*
X40434Y-32800D01*
X41767D01*
X42100Y-32467D01*
Y-31800D01*
X41767Y-31467D01*
X42100Y-29801D02*
Y-30467D01*
X41767Y-30801D01*
X41100D01*
X40767Y-30467D01*
Y-29801D01*
X41100Y-29468D01*
X41434D01*
Y-30801D01*
X42100Y-28801D02*
Y-28135D01*
Y-28468D01*
X40101D01*
X40434Y-28801D01*
X41802Y-48749D02*
X41469Y-49083D01*
Y-49749D01*
X41802Y-50082D01*
X43135D01*
X43468Y-49749D01*
Y-49083D01*
X43135Y-48749D01*
X43468Y-47083D02*
Y-47750D01*
X43135Y-48083D01*
X42469D01*
X42136Y-47750D01*
Y-47083D01*
X42469Y-46750D01*
X42802D01*
Y-48083D01*
X43468Y-44751D02*
Y-46084D01*
X42136Y-44751D01*
X41802D01*
X41469Y-45084D01*
Y-45750D01*
X41802Y-46084D01*
X27033Y-47034D02*
X26700Y-46701D01*
X26033D01*
X25700Y-47034D01*
Y-48367D01*
X26033Y-48700D01*
X26700D01*
X27033Y-48367D01*
X28699Y-48700D02*
X28033D01*
X27699Y-48367D01*
Y-47700D01*
X28033Y-47367D01*
X28699D01*
X29032Y-47700D01*
Y-48034D01*
X27699D01*
X29699Y-47034D02*
X30032Y-46701D01*
X30698D01*
X31032Y-47034D01*
Y-47367D01*
X30698Y-47700D01*
X30365D01*
X30698D01*
X31032Y-48034D01*
Y-48367D01*
X30698Y-48700D01*
X30032D01*
X29699Y-48367D01*
X42100Y-27000D02*
X40101D01*
Y-26000D01*
X40434Y-25667D01*
X41100D01*
X41434Y-26000D01*
Y-27000D01*
Y-26334D02*
X42100Y-25667D01*
Y-24001D02*
Y-24667D01*
X41767Y-25001D01*
X41100D01*
X40767Y-24667D01*
Y-24001D01*
X41100Y-23668D01*
X41434D01*
Y-25001D01*
X42100Y-23001D02*
Y-22335D01*
Y-22668D01*
X40101D01*
X40434Y-23001D01*
X36200Y-25100D02*
X34201D01*
Y-24100D01*
X34534Y-23767D01*
X35200D01*
X35534Y-24100D01*
Y-25100D01*
Y-24433D02*
X36200Y-23767D01*
Y-22101D02*
Y-22767D01*
X35867Y-23101D01*
X35200D01*
X34867Y-22767D01*
Y-22101D01*
X35200Y-21768D01*
X35534D01*
Y-23101D01*
X34534Y-21101D02*
X34201Y-20768D01*
Y-20102D01*
X34534Y-19768D01*
X34867D01*
X35200Y-20102D01*
Y-20435D01*
Y-20102D01*
X35534Y-19768D01*
X35867D01*
X36200Y-20102D01*
Y-20768D01*
X35867Y-21101D01*
X27800Y-44400D02*
X25801D01*
Y-43400D01*
X26134Y-43067D01*
X26800D01*
X27134Y-43400D01*
Y-44400D01*
Y-43734D02*
X27800Y-43067D01*
Y-41401D02*
Y-42067D01*
X27467Y-42401D01*
X26800D01*
X26467Y-42067D01*
Y-41401D01*
X26800Y-41068D01*
X27134D01*
Y-42401D01*
X25801Y-39068D02*
Y-40401D01*
X26800D01*
X26467Y-39735D01*
Y-39402D01*
X26800Y-39068D01*
X27467D01*
X27800Y-39402D01*
Y-40068D01*
X27467Y-40401D01*
X33200Y-25200D02*
X31201D01*
Y-24200D01*
X31534Y-23867D01*
X32200D01*
X32534Y-24200D01*
Y-25200D01*
Y-24533D02*
X33200Y-23867D01*
Y-22201D02*
Y-22867D01*
X32867Y-23201D01*
X32200D01*
X31867Y-22867D01*
Y-22201D01*
X32200Y-21868D01*
X32534D01*
Y-23201D01*
X33200Y-20202D02*
X31201D01*
X32200Y-21201D01*
Y-19868D01*
X27369Y-36982D02*
X25369D01*
Y-35983D01*
X25702Y-35649D01*
X26369D01*
X26702Y-35983D01*
Y-36982D01*
Y-36316D02*
X27369Y-35649D01*
Y-33983D02*
Y-34650D01*
X27035Y-34983D01*
X26369D01*
X26036Y-34650D01*
Y-33983D01*
X26369Y-33650D01*
X26702D01*
Y-34983D01*
X25369Y-31651D02*
X25702Y-32317D01*
X26369Y-32984D01*
X27035D01*
X27369Y-32650D01*
Y-31984D01*
X27035Y-31651D01*
X26702D01*
X26369Y-31984D01*
Y-32984D01*
X28402Y-21649D02*
X28069Y-21983D01*
Y-22649D01*
X28402Y-22982D01*
X29735D01*
X30068Y-22649D01*
Y-21983D01*
X29735Y-21649D01*
X30068Y-19983D02*
Y-20650D01*
X29735Y-20983D01*
X29069D01*
X28736Y-20650D01*
Y-19983D01*
X29069Y-19650D01*
X29402D01*
Y-20983D01*
X30068Y-17984D02*
X28069D01*
X29069Y-18984D01*
Y-17651D01*
X48401Y-50100D02*
X50400D01*
Y-48767D01*
X48401Y-46768D02*
Y-48101D01*
X50400D01*
Y-46768D01*
X49400Y-48101D02*
Y-47434D01*
X48401Y-46101D02*
X50400D01*
Y-45102D01*
X50067Y-44768D01*
X48734D01*
X48401Y-45102D01*
Y-46101D01*
X50400Y-43102D02*
X48401D01*
X49400Y-44102D01*
Y-42769D01*
X44800Y-40100D02*
Y-38101D01*
X45800D01*
X46133Y-38434D01*
Y-39100D01*
X45800Y-39434D01*
X44800D01*
X45466D02*
X46133Y-40100D01*
X47799D02*
X47133D01*
X46799Y-39767D01*
Y-39100D01*
X47133Y-38767D01*
X47799D01*
X48132Y-39100D01*
Y-39434D01*
X46799D01*
X50132Y-40100D02*
X48799D01*
X50132Y-38767D01*
Y-38434D01*
X49798Y-38101D01*
X49132D01*
X48799Y-38434D01*
X51300Y41700D02*
Y43699D01*
X52300D01*
X52633Y43366D01*
Y42700D01*
X52300Y42366D01*
X51300D01*
X51966D02*
X52633Y41700D01*
X53299D02*
Y43033D01*
X54299D01*
X54632Y42700D01*
Y41700D01*
X55299D02*
X55965D01*
X55632D01*
Y43699D01*
X55299Y43366D01*
X59133Y43466D02*
X58800Y43799D01*
X58133D01*
X57800Y43466D01*
Y42133D01*
X58133Y41800D01*
X58800D01*
X59133Y42133D01*
X59799Y41800D02*
Y43133D01*
X60799D01*
X61132Y42800D01*
Y41800D01*
X63132D02*
X61799D01*
X63132Y43133D01*
Y43466D01*
X62798Y43799D01*
X62132D01*
X61799Y43466D01*
X41500Y17900D02*
X39501D01*
Y18900D01*
X39834Y19233D01*
X40500D01*
X40834Y18900D01*
Y17900D01*
Y18566D02*
X41500Y19233D01*
Y20899D02*
Y20233D01*
X41167Y19899D01*
X40500D01*
X40167Y20233D01*
Y20899D01*
X40500Y21232D01*
X40834D01*
Y19899D01*
X39501Y21899D02*
Y23232D01*
X39834D01*
X41167Y21899D01*
X41500D01*
X35100Y17900D02*
X33101D01*
Y18900D01*
X33434Y19233D01*
X34100D01*
X34434Y18900D01*
Y17900D01*
Y18566D02*
X35100Y19233D01*
Y20899D02*
Y20233D01*
X34767Y19899D01*
X34100D01*
X33767Y20233D01*
Y20899D01*
X34100Y21232D01*
X34434D01*
Y19899D01*
X33434Y21899D02*
X33101Y22232D01*
Y22898D01*
X33434Y23232D01*
X33767D01*
X34100Y22898D01*
X34434Y23232D01*
X34767D01*
X35100Y22898D01*
Y22232D01*
X34767Y21899D01*
X34434D01*
X34100Y22232D01*
X33767Y21899D01*
X33434D01*
X34100Y22232D02*
Y22898D01*
D78*
X24898Y-11358D02*
G03*
X24898Y-11358I-787J0D01*
G01*
D79*
X44842Y-20717D02*
G03*
X44842Y-20717I-709J0D01*
G01*
D80*
X12732Y-71595D02*
Y-56240D01*
X-2622Y-71595D02*
X12732D01*
X-2622D02*
Y-56240D01*
X12732D01*
M02*
