G04 Layer_Physical_Order=8*
G04 Layer_Color=16711680*
%FSLAX25Y25*%
%MOIN*%
G70*
G01*
G75*
%ADD10R,0.00984X0.01181*%
%ADD13R,0.01968X0.01968*%
%ADD14R,0.01654X0.02165*%
%ADD15R,0.01968X0.01968*%
%ADD16R,0.02756X0.03150*%
%ADD17R,0.03150X0.02756*%
%ADD18R,0.02165X0.01654*%
%ADD19R,0.01181X0.01181*%
%ADD20R,0.01968X0.01575*%
%ADD21R,0.02756X0.09055*%
%ADD22R,0.01181X0.01575*%
%ADD23R,0.06299X0.03937*%
%ADD42C,0.00400*%
%ADD44C,0.00600*%
%ADD45C,0.00300*%
%ADD46C,0.00800*%
%ADD52C,0.01968*%
%ADD53C,0.05905*%
%ADD54O,0.06102X0.03543*%
%ADD55O,0.03543X0.04921*%
%ADD56C,0.01000*%
%ADD57C,0.01400*%
%ADD58C,0.01600*%
%ADD59C,0.02000*%
%ADD67R,0.01181X0.06299*%
%ADD68R,0.01181X0.01181*%
%ADD69R,0.01181X0.00984*%
%ADD70R,0.23000X0.09000*%
%ADD71R,0.01000X0.00400*%
%ADD72R,0.00400X0.01000*%
%ADD73R,0.03150X0.07087*%
G36*
X-56659Y7763D02*
Y1763D01*
X-58159D01*
Y9763D01*
X-56659D01*
Y7763D01*
D02*
G37*
G36*
X-51448Y1000D02*
X-53500D01*
Y2604D01*
X-55500Y4604D01*
Y6000D01*
X-51448D01*
Y1000D01*
D02*
G37*
G36*
X-56559Y16663D02*
X-57159Y14313D01*
X-58209D01*
X-59455Y16609D01*
Y25763D01*
X-56559D01*
Y16663D01*
D02*
G37*
G36*
X-47550Y16609D02*
X-48000Y15500D01*
Y12500D01*
X-49000D01*
Y15500D01*
X-50359Y16609D01*
Y26278D01*
X-47550D01*
Y16609D01*
D02*
G37*
D10*
X-34681Y-13488D02*
D03*
X-32319D02*
D03*
X-48481Y-40488D02*
D03*
X-46119D02*
D03*
X-50619Y-19312D02*
D03*
X-52981D02*
D03*
X-49381Y8312D02*
D03*
X-47019D02*
D03*
D13*
X2431Y34499D02*
D03*
X6368D02*
D03*
Y31600D02*
D03*
X2431D02*
D03*
X58169D02*
D03*
X54232D02*
D03*
Y34499D02*
D03*
X58169D02*
D03*
X3168Y-30999D02*
D03*
X-769D02*
D03*
X931Y-11800D02*
D03*
X4868D02*
D03*
X5469Y-24000D02*
D03*
X1531D02*
D03*
X6568Y24901D02*
D03*
X2631D02*
D03*
D14*
X6172Y37300D02*
D03*
X2628D02*
D03*
Y28800D02*
D03*
X6172D02*
D03*
X54428D02*
D03*
X57972D02*
D03*
Y37300D02*
D03*
X54428D02*
D03*
X41872Y-21000D02*
D03*
X38328D02*
D03*
Y-17900D02*
D03*
X41872D02*
D03*
Y-14800D02*
D03*
X38328D02*
D03*
Y-11700D02*
D03*
X41872D02*
D03*
X-32372Y-16700D02*
D03*
X-28828D02*
D03*
X-28228Y-43100D02*
D03*
X-31772D02*
D03*
X-46772Y-43500D02*
D03*
X-43228D02*
D03*
X38328Y-8600D02*
D03*
X41872D02*
D03*
D15*
X6200Y44331D02*
D03*
Y48268D02*
D03*
X2899D02*
D03*
Y44331D02*
D03*
D16*
X-43346Y-27900D02*
D03*
X-49054D02*
D03*
X-16946Y-12700D02*
D03*
X-22654D02*
D03*
X-13754Y-14900D02*
D03*
X-8046D02*
D03*
X-26646Y-10400D02*
D03*
X-32354D02*
D03*
X-26446Y-46500D02*
D03*
X-32154D02*
D03*
X-47854Y-46800D02*
D03*
X-42146D02*
D03*
X-58013Y2263D02*
D03*
X-52305D02*
D03*
X-49346Y28500D02*
D03*
X-55054D02*
D03*
X-39054Y-22200D02*
D03*
X-33346D02*
D03*
D17*
X-35900Y-45354D02*
D03*
Y-39646D02*
D03*
X-40600Y-5346D02*
D03*
Y-11054D02*
D03*
X-53600Y-22246D02*
D03*
Y-27954D02*
D03*
X11500Y-30354D02*
D03*
Y-24646D02*
D03*
X15500D02*
D03*
Y-30354D02*
D03*
X-58500Y-27554D02*
D03*
Y-21846D02*
D03*
X34600Y-11846D02*
D03*
Y-17554D02*
D03*
D18*
X-59000Y-48728D02*
D03*
Y-52272D02*
D03*
Y-42728D02*
D03*
Y-46272D02*
D03*
Y-36728D02*
D03*
Y-40272D02*
D03*
Y-30728D02*
D03*
Y-34272D02*
D03*
X11800Y-4328D02*
D03*
Y-7872D02*
D03*
X-20700D02*
D03*
Y-4328D02*
D03*
X-37000Y-7328D02*
D03*
Y-10872D02*
D03*
X-27000Y-53172D02*
D03*
Y-49628D02*
D03*
X-51000Y-43272D02*
D03*
Y-39728D02*
D03*
X8900Y-4328D02*
D03*
Y-7872D02*
D03*
X6000Y-4328D02*
D03*
Y-7872D02*
D03*
X-45600Y19828D02*
D03*
Y23372D02*
D03*
X-17800Y-4328D02*
D03*
Y-7872D02*
D03*
X-14900D02*
D03*
Y-4328D02*
D03*
X-10200D02*
D03*
Y-7872D02*
D03*
X-7300D02*
D03*
Y-4328D02*
D03*
X-4400D02*
D03*
Y-7872D02*
D03*
X-1400D02*
D03*
Y-4328D02*
D03*
X1500D02*
D03*
Y-7872D02*
D03*
X-23600D02*
D03*
Y-4328D02*
D03*
D19*
X-59000Y-19083D02*
D03*
Y-16917D02*
D03*
X-30700Y-27017D02*
D03*
Y-29183D02*
D03*
X-42700Y-33183D02*
D03*
Y-31017D02*
D03*
X-38800Y-37117D02*
D03*
Y-39283D02*
D03*
X-40800D02*
D03*
Y-37117D02*
D03*
Y-35183D02*
D03*
Y-33017D02*
D03*
X-38800D02*
D03*
Y-35183D02*
D03*
X-36800Y-33017D02*
D03*
Y-35183D02*
D03*
X-34800D02*
D03*
Y-33017D02*
D03*
X-42700Y-37283D02*
D03*
Y-35117D02*
D03*
D20*
X20100Y-27875D02*
D03*
Y-24725D02*
D03*
X29100Y-27875D02*
D03*
Y-24725D02*
D03*
X26100Y-27875D02*
D03*
Y-24725D02*
D03*
X23100Y-27875D02*
D03*
Y-24725D02*
D03*
D21*
X-57983Y21194D02*
D03*
X-48935D02*
D03*
D22*
X-57718Y13700D02*
D03*
X-55159D02*
D03*
X-52600D02*
D03*
Y5826D02*
D03*
X-55159D02*
D03*
X-57718D02*
D03*
D23*
X-55159Y9763D02*
D03*
D42*
X58272Y28500D02*
X60200D01*
X58268Y31500D02*
X60200D01*
X58400Y38100D02*
X60400D01*
X57972Y37672D02*
X58400Y38100D01*
X57972Y37300D02*
Y37672D01*
X45500Y50569D02*
Y63600D01*
X42386Y66714D02*
X45500Y63600D01*
X42386Y66714D02*
Y70187D01*
X42625Y47694D02*
X45500Y50569D01*
X-48493Y10300D02*
X-47000D01*
Y15800D02*
X-45600Y17200D01*
X-47000Y8331D02*
Y15800D01*
X-45600Y17200D02*
Y19828D01*
X-38975Y33100D02*
X-37700D01*
X10900D02*
X14025D01*
X-3700Y33900D02*
X-1400Y31600D01*
X-2400Y34000D02*
X1631D01*
X-3100Y34700D02*
X-2400Y34000D01*
X-4975Y33900D02*
X-3700D01*
X-4975Y34700D02*
X-3100D01*
X6368Y31600D02*
X8301D01*
X-16669Y70187D02*
Y75000D01*
X-20606Y70187D02*
Y75000D01*
X-35175Y24525D02*
Y26300D01*
X-35900Y23800D02*
X-35175Y24525D01*
X-35900Y9100D02*
Y23800D01*
X12800Y2472D02*
Y7300D01*
X-30500Y-2500D02*
Y2362D01*
X-32000Y-4000D02*
X-30500Y-2500D01*
X-32400Y-1600D02*
Y2396D01*
X-33600Y-2800D02*
X-32400Y-1600D01*
X-4858Y50842D02*
Y56013D01*
X-7100Y48600D02*
X-4858Y50842D01*
X-9155Y48600D02*
X-7100D01*
X-9100Y52500D02*
Y55709D01*
X-13575Y48025D02*
X-9100Y52500D01*
X-13575Y46300D02*
Y48025D01*
X-10375Y47380D02*
X-9155Y48600D01*
X-9575Y47049D02*
X-8823Y47800D01*
X-10375Y46300D02*
Y47380D01*
X-9575Y46300D02*
Y47049D01*
X-9100Y55709D02*
X-8795Y56013D01*
X-7100Y53100D02*
Y55740D01*
X-11975Y48225D02*
X-7100Y53100D01*
X-11975Y46300D02*
Y48225D01*
X-10800Y52300D02*
Y55977D01*
X-15175Y47925D02*
X-10800Y52300D01*
X-15175Y46300D02*
Y47925D01*
X58469Y34200D02*
X60200D01*
X58169Y34500D02*
X58469Y34200D01*
X-8775Y26300D02*
X-6400D01*
X30575Y70187D02*
Y75000D01*
X-35900Y9100D02*
X-34386Y7586D01*
X44500Y31900D02*
Y32900D01*
X44700Y33100D01*
X48025D01*
X-1400Y31600D02*
X2431D01*
X-36500Y52200D02*
Y63800D01*
X-38975Y37900D02*
X-37600D01*
X-35175Y46300D02*
Y50875D01*
X-34375Y46300D02*
Y56002D01*
X6368Y34499D02*
X8399D01*
X-7100Y55740D02*
X-6827Y56013D01*
X-8775Y46300D02*
X-6000D01*
X-9100Y32000D02*
X-8000Y33100D01*
X-4975D01*
X1631Y34000D02*
X2600Y34969D01*
X-4975Y35500D02*
X-2200D01*
X2600Y37172D02*
X2728Y37300D01*
X2600Y34969D02*
Y37172D01*
X2628Y28800D02*
Y31403D01*
X-3800Y36300D02*
X-3000Y37100D01*
X-4975Y36300D02*
X-3800D01*
Y37900D02*
X-3000Y37100D01*
X-4975Y37900D02*
X-3800D01*
X44800Y37100D02*
X48025D01*
X49200Y36300D02*
X50000Y37100D01*
X48025Y36300D02*
X49200D01*
X43425Y46300D02*
Y47049D01*
X45677Y49300D01*
X42386Y48586D02*
Y56013D01*
X41825Y48025D02*
X42386Y48586D01*
X42625Y46300D02*
Y47694D01*
X41825Y46300D02*
Y48025D01*
X49200Y37900D02*
X50000Y37100D01*
X48025Y37900D02*
X49200D01*
X54428Y28800D02*
Y31403D01*
X54232Y34499D02*
X54428Y34696D01*
Y37300D01*
X53732Y34000D02*
X54232Y34499D01*
X51200Y34000D02*
X53732D01*
X50500Y34700D02*
X51200Y34000D01*
X51600Y31600D02*
X54232D01*
X49300Y33900D02*
X51600Y31600D01*
X48025Y33900D02*
X49300D01*
X48025Y34700D02*
X50500D01*
X48025Y35500D02*
X51500D01*
X-9575Y26300D02*
Y28225D01*
X-9500Y28300D01*
X43425Y26300D02*
Y28375D01*
X44225Y26300D02*
X45700D01*
X-13155Y22400D02*
X-12400Y21645D01*
X-13623Y22400D02*
X-13155D01*
X-16775Y25552D02*
X-13623Y22400D01*
X-4858Y16587D02*
Y20035D01*
X-10375Y25552D02*
X-4858Y20035D01*
X-6827Y16587D02*
Y20421D01*
X-11606Y25200D02*
X-6827Y20421D01*
X-8795Y16587D02*
Y20772D01*
X-13575Y25552D02*
X-8795Y20772D01*
X-10764Y16587D02*
Y21140D01*
X-15175Y25552D02*
X-10764Y21140D01*
X-12400Y16919D02*
Y21645D01*
X-15175Y25552D02*
Y26300D01*
X-13575Y25552D02*
Y26300D01*
X-11975Y25552D02*
Y26300D01*
X-11623Y25200D02*
X-11606D01*
X-11975Y25552D02*
X-11623Y25200D01*
X-10375Y25552D02*
Y26300D01*
X-16775Y25552D02*
Y26300D01*
X-12700Y16619D02*
X-12400Y16919D01*
X-16700Y16617D02*
Y19400D01*
X-19975Y22675D02*
X-16700Y19400D01*
X-19975Y22675D02*
Y26300D01*
X-18638Y16587D02*
Y20038D01*
X-21575Y22975D02*
X-18638Y20038D01*
X-21575Y22975D02*
Y26300D01*
X-18375Y22881D02*
Y26300D01*
Y22881D02*
X-14701Y19207D01*
Y16587D02*
Y19207D01*
X-26512D02*
X-25500Y20219D01*
X-26512Y16587D02*
Y19207D01*
X-25500Y20219D02*
Y22200D01*
X-27975Y24675D02*
X-25500Y22200D01*
X-28500Y16606D02*
Y23500D01*
X-32400Y16604D02*
Y18300D01*
X-32775Y18675D02*
X-32400Y18300D01*
X-32775Y18675D02*
Y26300D01*
X-31175Y19875D02*
Y26300D01*
X-29575Y24575D02*
X-28500Y23500D01*
X-29575Y24575D02*
Y26300D01*
X-27975Y24675D02*
Y26300D01*
X-20600Y16593D02*
Y20763D01*
X-22575Y16587D02*
Y21606D01*
X-24775Y23806D02*
X-22575Y21606D01*
X-23175Y23337D02*
X-20600Y20763D01*
X-23175Y23337D02*
Y26300D01*
X-24775Y23806D02*
Y26300D01*
X-24500Y16630D02*
Y22400D01*
X-26375Y24275D02*
X-24500Y22400D01*
X-26375Y24275D02*
Y26300D01*
X44100Y8100D02*
Y21300D01*
X42386Y6386D02*
X44100Y8100D01*
X42386Y2413D02*
Y6386D01*
X42625Y22775D02*
X44100Y21300D01*
X42625Y22775D02*
Y26300D01*
X42386Y16587D02*
Y20486D01*
X41825Y21046D02*
X42386Y20486D01*
X41825Y21046D02*
Y26300D01*
X20700Y2446D02*
Y6500D01*
X22700Y2414D02*
Y6500D01*
X24600Y2483D02*
Y6500D01*
X26600Y2451D02*
Y6500D01*
X28500Y2520D02*
Y6500D01*
X30500Y2488D02*
Y6500D01*
X32500Y2457D02*
Y6500D01*
X34500Y2425D02*
Y6500D01*
X36400Y2494D02*
Y6500D01*
X38400Y2462D02*
Y6500D01*
X40400Y2431D02*
Y6500D01*
X29025Y22925D02*
Y26300D01*
X26638Y20538D02*
X29025Y22925D01*
X26638Y16587D02*
Y20538D01*
X40225Y16779D02*
Y26300D01*
Y16779D02*
X40417Y16587D01*
X38625Y20625D02*
Y26300D01*
X38449Y20449D02*
X38625Y20625D01*
X38449Y16587D02*
Y20449D01*
X41025Y26300D02*
Y27775D01*
X39425Y26300D02*
Y27775D01*
X37825Y26300D02*
Y27775D01*
X36225Y26300D02*
Y27775D01*
X37025Y21025D02*
Y26300D01*
X36480Y20480D02*
X37025Y21025D01*
X36480Y16587D02*
Y20480D01*
X35425Y21325D02*
Y26300D01*
X34512Y20412D02*
X35425Y21325D01*
X34512Y16587D02*
Y20412D01*
X33825Y21739D02*
Y26300D01*
X32543Y20457D02*
X33825Y21739D01*
X32543Y16587D02*
Y20457D01*
X32225Y22076D02*
Y26300D01*
X30575Y20425D02*
X32225Y22076D01*
X30575Y16587D02*
Y20425D01*
X30625Y22513D02*
Y26300D01*
X28606Y20494D02*
X30625Y22513D01*
X28606Y16587D02*
Y20494D01*
X27425Y23325D02*
Y26300D01*
X24669Y20569D02*
X27425Y23325D01*
X24669Y16587D02*
Y20569D01*
X25825Y23624D02*
Y26300D01*
X22701Y20499D02*
X25825Y23624D01*
X24225Y23961D02*
Y26300D01*
X20732Y20468D02*
X24225Y23961D01*
X20732Y16587D02*
Y20468D01*
X22625Y24325D02*
Y26300D01*
X18764Y20464D02*
X22625Y24325D01*
X18764Y16587D02*
Y20464D01*
X22701Y16587D02*
Y20499D01*
X21025Y24725D02*
Y26300D01*
X16795Y20495D02*
X21025Y24725D01*
X16795Y16587D02*
Y20495D01*
X34625Y26300D02*
Y27775D01*
X33025Y26300D02*
Y27775D01*
X31425Y26300D02*
Y27775D01*
X29825Y26300D02*
Y27775D01*
X28225Y26300D02*
Y27775D01*
X26625Y26300D02*
Y27775D01*
X25025Y26300D02*
Y27775D01*
X23425Y26300D02*
Y27775D01*
X21825Y26300D02*
Y27775D01*
X19425Y25025D02*
Y26300D01*
X14827Y20427D02*
X19425Y25025D01*
X14827Y16587D02*
Y20427D01*
X20225Y26300D02*
Y27775D01*
X18625Y26300D02*
Y27775D01*
X12858Y16587D02*
Y21333D01*
X17825Y26300D01*
X-18638Y2413D02*
X-18600Y2376D01*
Y-1700D02*
Y2376D01*
X-16900Y-1700D02*
Y2183D01*
X-14701Y6099D02*
X-13900Y6900D01*
X-14701Y2413D02*
Y6099D01*
X-12732Y2413D02*
X-12400Y2746D01*
X-6827Y2413D02*
Y6427D01*
X-8795Y2413D02*
Y6495D01*
X-10764Y2413D02*
Y6900D01*
X-22575Y2413D02*
Y8800D01*
X-26512Y2413D02*
Y7200D01*
X-34386Y2413D02*
Y7586D01*
X-30500Y2362D02*
X-30449Y2413D01*
X-11175Y26300D02*
Y27775D01*
X-12775Y26300D02*
Y27775D01*
X-14375Y26300D02*
Y27775D01*
X-15975Y26300D02*
Y27775D01*
X-17575Y26300D02*
Y27775D01*
X-19175Y26300D02*
Y27775D01*
X-20775Y26300D02*
Y27775D01*
X-22375Y26300D02*
Y27775D01*
X-23975Y26300D02*
Y27775D01*
X-25575Y26300D02*
Y27775D01*
X-27175Y26300D02*
Y27775D01*
X-28775Y26300D02*
Y27775D01*
X-30375Y26300D02*
Y27775D01*
X-31975Y26300D02*
Y27775D01*
X-32000Y27800D02*
X-31975Y27775D01*
X-33575Y26300D02*
Y27775D01*
X-33600Y27800D02*
X-33575Y27775D01*
X-34386Y16587D02*
X-34375Y16598D01*
Y26300D01*
X-34386Y65914D02*
Y70187D01*
X-36500Y63800D02*
X-34386Y65914D01*
X-12732Y52068D02*
Y56013D01*
X-16775Y48025D02*
X-12732Y52068D01*
X-16775Y46300D02*
Y48025D01*
X-10800Y55977D02*
X-10764Y56013D01*
X-14701Y51899D02*
Y56013D01*
X-18375Y48225D02*
X-14701Y51899D01*
X-18375Y46300D02*
Y48225D01*
X-16669Y52031D02*
Y56013D01*
X-19975Y48725D02*
X-16669Y52031D01*
X-19975Y46300D02*
Y48725D01*
X-18638Y52062D02*
Y56013D01*
X-21575Y49125D02*
X-18638Y52062D01*
X-21575Y46300D02*
Y49125D01*
X-20606Y52094D02*
Y56013D01*
X-23175Y49525D02*
X-20606Y52094D01*
X-23175Y46300D02*
Y49525D01*
X-22575Y52025D02*
Y56013D01*
X-24775Y49825D02*
X-22575Y52025D01*
X-24775Y46300D02*
Y49825D01*
X-24543Y52057D02*
Y56013D01*
X-26375Y50225D02*
X-24543Y52057D01*
X-26375Y46300D02*
Y50225D01*
X-11175Y44500D02*
Y46300D01*
X-12775Y44500D02*
Y46300D01*
X-14375Y44500D02*
Y46300D01*
X-15975Y44500D02*
Y46300D01*
X-17575Y44500D02*
Y46300D01*
X-19175Y44500D02*
Y46300D01*
X-20775Y44500D02*
Y46300D01*
X-22375Y44500D02*
Y46300D01*
X-28926Y-40974D02*
X-28400Y-41500D01*
Y-42900D02*
Y-41500D01*
X-31575Y-41654D02*
X-30895Y-40974D01*
X-31575Y-43000D02*
Y-41654D01*
X-28400Y-15500D02*
X-26646Y-13746D01*
Y-10400D01*
X-32319Y-13488D02*
Y-10435D01*
X737Y-29163D02*
X1276Y-29702D01*
Y-33799D02*
Y-29702D01*
X-376Y-38600D02*
X1276Y-36949D01*
X-3500Y-35323D02*
X-1874Y-36949D01*
Y-33574D02*
X-965Y-32665D01*
Y-30999D01*
X-1874Y-33799D02*
Y-33574D01*
X-17277Y-35377D02*
Y-35323D01*
X-30812Y-35081D02*
X-28939D01*
X-28806Y-27194D02*
X-27600Y-28400D01*
Y-33742D02*
Y-28400D01*
X-28926Y-35069D02*
X-27600Y-33742D01*
X-26500Y-31900D02*
X-25732Y-31132D01*
X-26500Y-34500D02*
Y-31900D01*
X-28926Y-36926D02*
X-26500Y-34500D01*
X-28926Y-37037D02*
Y-36926D01*
X931Y-11800D02*
X1276Y-12144D01*
X931Y-11800D02*
X1323D01*
X1276Y-14902D02*
Y-12144D01*
X-52600Y13700D02*
X-51200D01*
X-35700Y-39342D02*
X-30827D01*
X-30523Y-27194D02*
X-28926D01*
X-28806D01*
X-28939Y-35081D02*
X-28926Y-35069D01*
X-31475Y-46183D02*
Y-43000D01*
X1276Y-18051D02*
X5500Y-22276D01*
X-17277Y-35323D02*
X-3500D01*
X1276Y-23941D02*
Y-21201D01*
X5500Y-23834D02*
Y-22276D01*
Y-23834D02*
X5665Y-24000D01*
X-38769Y-29163D02*
Y-27581D01*
X-51200Y13700D02*
X-50100Y12600D01*
Y10900D02*
Y12600D01*
Y10900D02*
X-49502Y10302D01*
X-48659D01*
X-21052Y-23257D02*
X-21043D01*
X-17919Y-36018D02*
X-17277Y-35377D01*
X-15350Y-38050D02*
X-14800Y-38600D01*
X-376D01*
X-43643Y-27500D02*
X-43343D01*
X-42432Y-26589D01*
X-28926Y-25226D02*
X-28400Y-24700D01*
Y-15500D01*
X-32319Y-16981D02*
Y-13488D01*
Y-16981D02*
X-30895Y-18406D01*
Y-25226D02*
Y-18406D01*
X-17115Y-29163D02*
X737D01*
X-25732Y-31132D02*
X-23020D01*
X41025Y44500D02*
Y46300D01*
X39425Y44500D02*
Y46300D01*
X37825Y44500D02*
Y46300D01*
X36225Y44500D02*
Y46300D01*
X40225D02*
Y55821D01*
X40417Y56013D01*
X38625Y46300D02*
Y55837D01*
X38449Y56013D02*
X38625Y55837D01*
X36480Y56013D02*
X36500Y55994D01*
X14827Y56013D02*
X14900Y55940D01*
X12858Y56013D02*
X12900Y55972D01*
X34625Y44500D02*
Y46300D01*
X33025Y44500D02*
Y46300D01*
X31425Y44500D02*
Y46300D01*
X29825Y44500D02*
Y46300D01*
X28225Y44500D02*
Y46300D01*
X26625Y44500D02*
Y46300D01*
X25025Y44500D02*
Y46300D01*
X23425Y44800D02*
Y46300D01*
X21825Y44800D02*
Y46300D01*
X18625Y44500D02*
Y46300D01*
X-36500Y52200D02*
X-35175Y50875D01*
X-32417Y56013D02*
X-32400Y55996D01*
X-31175Y46300D02*
Y51325D01*
X-30449Y52051D01*
Y56013D01*
X-32775Y46300D02*
Y51625D01*
X-32400Y52000D01*
Y55996D01*
X-29575Y46300D02*
Y50925D01*
X-28480Y52020D01*
Y56013D01*
X-27975Y46300D02*
Y50625D01*
X-26512Y52088D01*
Y56013D01*
X12900Y50200D02*
Y55972D01*
Y50200D02*
X16800Y46300D01*
X17825D01*
X-8825Y70217D02*
X-8800Y70242D01*
X-6800Y70213D02*
X-6700Y70313D01*
X36500Y52100D02*
Y55994D01*
Y52100D02*
X37025Y51575D01*
Y46300D02*
Y51575D01*
X34512Y51988D02*
Y56013D01*
Y51988D02*
X35425Y51075D01*
Y46300D02*
Y51075D01*
X32543Y51857D02*
Y56013D01*
Y51857D02*
X33825Y50575D01*
Y46300D02*
Y50575D01*
X30575Y51825D02*
Y56013D01*
Y51825D02*
X32225Y50175D01*
Y46300D02*
Y50175D01*
X28606Y51494D02*
Y56013D01*
Y51494D02*
X30625Y49475D01*
Y46300D02*
Y49475D01*
X26638Y51662D02*
Y56013D01*
Y51662D02*
X29025Y49275D01*
Y46300D02*
Y49275D01*
X24669Y51831D02*
Y56013D01*
Y51831D02*
X27425Y49075D01*
Y46300D02*
Y49075D01*
X22701Y51999D02*
Y56013D01*
Y51999D02*
X25825Y48875D01*
Y46300D02*
Y48875D01*
X20732Y51868D02*
Y56013D01*
Y51868D02*
X24225Y48375D01*
Y46300D02*
Y48375D01*
X18764Y51736D02*
Y56013D01*
Y51736D02*
X22625Y47875D01*
Y46300D02*
Y47875D01*
X16795Y52105D02*
Y56013D01*
Y52105D02*
X21025Y47875D01*
Y46300D02*
Y47875D01*
X14900Y52200D02*
Y55940D01*
Y52200D02*
X19425Y47675D01*
Y46300D02*
Y47675D01*
X18700Y2550D02*
X18800Y2450D01*
X18700Y2550D02*
Y6500D01*
X16600Y2618D02*
X16800Y2418D01*
X14800Y2587D02*
X14900Y2487D01*
X14800Y2587D02*
Y6500D01*
X16600Y2618D02*
X16800Y2818D01*
Y6500D01*
X-9000Y37100D02*
X-4975D01*
X-8823Y47800D02*
X2431D01*
X2899Y48268D01*
X-6900Y11900D02*
X-4858Y9858D01*
Y2413D02*
Y9858D01*
X14025Y37900D02*
X15300D01*
X15900Y37300D01*
Y36600D02*
Y37300D01*
X-22800Y12000D02*
X-20606Y9806D01*
Y2413D02*
Y9806D01*
X-28480Y2413D02*
X-28200Y2694D01*
Y7200D01*
X-24500Y2457D02*
Y7200D01*
X-6900Y70513D02*
X-6700Y70313D01*
X-4900Y70228D02*
Y75000D01*
X-6900Y70513D02*
X-6800Y70613D01*
Y75000D01*
X-8800Y70242D02*
Y75000D01*
X-10800Y70223D02*
Y75000D01*
X-12725Y70194D02*
X-12700Y70219D01*
Y75000D01*
X-14700Y70187D02*
Y75000D01*
X-18625Y70199D02*
X-18600Y70224D01*
Y75000D01*
X-24543Y70187D02*
X-24500Y70230D01*
Y75000D01*
X-22500Y70362D02*
Y75000D01*
X-22625Y70237D02*
X-22500Y70362D01*
X-26500Y70198D02*
Y75000D01*
X-28500Y70220D02*
X-28480Y70200D01*
X-28500Y70220D02*
Y75000D01*
X-30500Y70238D02*
X-30400Y70338D01*
Y75000D01*
X-32400Y70204D02*
Y75000D01*
X12900Y70228D02*
Y75000D01*
X14800Y70360D02*
X14900Y70260D01*
X14800Y70360D02*
Y75000D01*
X16800Y70191D02*
Y75000D01*
X18800Y70223D02*
Y75000D01*
X20800Y70254D02*
Y75000D01*
X22700Y70187D02*
Y75000D01*
X24700Y70217D02*
Y75000D01*
X26600Y70224D02*
Y75000D01*
X28600Y70193D02*
Y75000D01*
X32500Y70230D02*
Y75000D01*
X34500Y70198D02*
Y75000D01*
X36500Y70206D02*
Y75000D01*
X38500Y70238D02*
Y75000D01*
X40400Y70369D02*
X40500Y70269D01*
X40400Y70369D02*
Y75000D01*
X45677Y49300D02*
X46800D01*
X44225Y46300D02*
X46800D01*
X-27600Y-46500D02*
Y-43725D01*
X-24000Y44500D02*
X-23975Y44525D01*
Y46300D01*
X-25600Y44500D02*
X-25575Y44525D01*
Y46300D01*
X-27200Y44500D02*
X-27175Y44525D01*
Y46300D01*
X-28800Y44500D02*
X-28775Y44525D01*
Y46300D01*
X-30400Y44500D02*
X-30375Y44525D01*
Y46300D01*
X-33600Y44500D02*
X-33575Y44525D01*
Y46300D01*
X-32000Y44500D02*
X-31975Y44525D01*
Y46300D01*
X-30449Y16587D02*
Y19149D01*
X-31175Y19875D02*
X-30449Y19149D01*
X-27600Y-46500D02*
X-26446D01*
X-26127Y-46819D01*
X-23412D01*
X57972Y28800D02*
X58272Y28500D01*
X20225Y44825D02*
Y46300D01*
X-12400Y2746D02*
Y6900D01*
D44*
X-48072Y23372D02*
X-45600D01*
X-61600Y-16900D02*
X-59017D01*
X11300Y-7900D02*
X11800Y-7400D01*
X6225Y-7900D02*
X11300D01*
X6000Y-7675D02*
X6225Y-7900D01*
X1375Y-7800D02*
X1500Y-7675D01*
X-1597Y-4525D02*
X-1400Y-4328D01*
X1303D01*
X1500Y-4525D01*
X-17800Y-4472D02*
Y-4300D01*
X-17854Y-4525D02*
X-17800Y-4472D01*
Y-4328D02*
Y-4300D01*
Y-4328D02*
X-17603Y-4525D01*
X-23600D02*
X-17854D01*
X-17603D02*
X-1597D01*
X-37000Y-7328D02*
Y-6000D01*
X-37657Y-5342D02*
X-37000Y-6000D01*
X-40000Y-5342D02*
X-37657D01*
X-34575Y-13382D02*
Y-10843D01*
X-37000Y-10872D02*
X-34603D01*
X3300Y-31500D02*
X7500Y-31499D01*
X11785Y-30158D02*
X15500D01*
X11643Y-30300D02*
X11785Y-30158D01*
X11500Y-24843D02*
X15500D01*
X4425Y-12242D02*
X4868Y-11800D01*
X4425Y-14902D02*
Y-12242D01*
X-39800Y-14352D02*
X-38769Y-15383D01*
X-39800Y-14352D02*
Y-10142D01*
X-39658Y-10000D01*
X-32845Y-37019D02*
X-30788D01*
X-32863Y-33100D02*
X-31193D01*
X-32843Y-29183D02*
X-30700D01*
X-50937Y-40488D02*
X-48481D01*
X-50517Y-37000D02*
Y-35100D01*
Y-33200D01*
X-52683Y-35100D02*
Y-33200D01*
Y-37000D02*
Y-35100D01*
X-54485D02*
X-52683D01*
X-46883Y-37000D02*
Y-35100D01*
X-48574Y-37000D02*
X-46883D01*
X-32863Y-29163D02*
Y-27446D01*
X-38769Y-44911D02*
X-35954D01*
X-35700Y-44657D01*
X-26756Y-49181D02*
X-23412D01*
X-26975Y-49400D02*
X-26756Y-49181D01*
X-40800Y-39283D02*
X-38800D01*
X-50517Y-39443D02*
Y-37000D01*
X-51000Y-39925D02*
X-50517Y-39443D01*
X-51500Y-39925D02*
X-50937Y-40488D01*
X20173Y-33799D02*
Y-27875D01*
X-38819Y-25219D02*
X-38788D01*
X20100Y-24725D02*
X23100D01*
X26100D01*
X29100D01*
X20173D02*
Y-21201D01*
X20100Y-27875D02*
X23100D01*
X26100D01*
X29100D01*
X-34575Y-10843D02*
Y-8675D01*
X-33500Y-7600D01*
X-32500D01*
X-44625Y-35117D02*
X-42700D01*
X-42683Y-39283D02*
X-40800D01*
X-42700Y-40968D02*
Y-37283D01*
X-42586Y-31132D02*
X-40737D01*
X-42700Y-35117D02*
Y-33183D01*
X-58100Y-27358D02*
X-53100D01*
X-53000Y-22343D02*
Y-19500D01*
X-51368Y-42943D02*
X-48611D01*
Y-37037D02*
X-48574Y-37000D01*
X-1668Y-7800D02*
X-1597Y-7872D01*
X-14900D02*
X-10200D01*
X-7300D01*
X-4400D01*
X-1872D01*
X-23403D02*
X-20700D01*
X-23600Y-7675D02*
X-23403Y-7872D01*
X3800Y-4300D02*
X3828Y-4328D01*
X11800D01*
X-20700Y-7872D02*
X-17800D01*
X-14900D01*
X-1100Y-7800D02*
X1375D01*
X-27275Y-49100D02*
X-26975Y-49400D01*
X-28900Y-49100D02*
X-27275D01*
D45*
X-46900Y-43825D02*
X-46119Y-43044D01*
X-46900Y-45846D02*
Y-43825D01*
X-47854Y-46800D02*
X-46900Y-45846D01*
X-44500Y-43500D02*
X-43228D01*
X-44674Y-43326D02*
X-44500Y-43500D01*
X-44674Y-43326D02*
Y-40974D01*
X-43228Y-43500D02*
X-43000Y-43728D01*
Y-46143D02*
Y-43728D01*
Y-46143D02*
X-42342Y-46800D01*
Y-47000D02*
Y-46800D01*
X-48512Y10319D02*
X-48493Y10300D01*
X-47019Y8312D02*
X-47000Y8331D01*
X-47019Y10200D02*
X-47000Y10219D01*
X-48935Y22508D02*
X-48072Y23372D01*
X10899Y44800D02*
X10900Y44800D01*
X-50228Y29383D02*
X-49346Y28500D01*
X-54754D02*
X-54100Y29154D01*
X-28400Y-42900D02*
X-28100Y-43200D01*
X-34603Y-10872D02*
X-34575Y-10843D01*
X-21043Y-23257D02*
X-20100Y-24200D01*
X-46319Y-40488D02*
X-46157D01*
X-46119Y-43044D02*
Y-40488D01*
X-46157D02*
X-44674Y-39006D01*
X-35833Y-28150D02*
X-34783Y-29200D01*
X-38788Y-27581D02*
X-38769D01*
X-38550Y-27800D01*
X-37900D01*
X-37550Y-28150D01*
X-35833D01*
X-22015Y-36185D02*
X-20150Y-38050D01*
X-15350D01*
X-42432Y-26589D02*
X-37405D01*
X-36800Y-27194D01*
X-20100Y-35600D02*
X-19681Y-36018D01*
X-17919D01*
X-23600Y-7872D02*
X-23403D01*
X-22015Y-36185D02*
Y-28200D01*
X-20100Y-35600D02*
Y-24200D01*
X-23020Y-27194D02*
X-22015Y-28200D01*
X6200Y48268D02*
X6369Y48100D01*
X-28325Y-43000D02*
X-27600Y-43725D01*
D46*
X-34700Y30100D02*
X-4500D01*
X-37700Y33100D02*
X-34700Y30100D01*
X-19083Y-17352D02*
X-16105D01*
X-16058Y-17400D01*
X-55159Y9763D02*
Y13700D01*
X-36794Y-27200D02*
X-34783D01*
X-24989Y-15383D02*
X-22457Y-12852D01*
X-16058Y-17400D02*
X-13557Y-14900D01*
X-53100Y-27500D02*
X-48957D01*
X-58000Y-22343D02*
X-53000D01*
X-48611Y-27953D02*
Y-25226D01*
X-51947Y-21289D02*
X-50580D01*
X10900Y33100D02*
Y44800D01*
X-4500Y30100D02*
X-2890Y28490D01*
Y2413D02*
Y16587D01*
X-2789Y24901D02*
X2631D01*
X-2890Y16587D02*
Y28490D01*
X6369Y48100D02*
X10900D01*
Y44800D02*
Y48100D01*
Y70176D01*
D52*
X46520Y3594D02*
D03*
X-38520D02*
D03*
Y69006D02*
D03*
X46520D02*
D03*
D53*
X59000Y9963D02*
D03*
Y17837D02*
D03*
X57900Y-42063D02*
D03*
Y-49937D02*
D03*
D54*
X59291Y-1720D02*
D03*
Y-29280D02*
D03*
D55*
X48661Y-5658D02*
D03*
Y-25343D02*
D03*
D56*
X60200Y28500D02*
D03*
Y31500D02*
D03*
X15900Y36600D02*
D03*
X6200Y44331D02*
D03*
X1700Y50200D02*
D03*
X-32000Y-4000D02*
D03*
X-33600Y-2800D02*
D03*
X-49616Y48074D02*
D03*
X-47647D02*
D03*
X60200Y34200D02*
D03*
X1600Y65000D02*
D03*
X-8400Y61900D02*
D03*
X-6400Y26300D02*
D03*
X-46800Y29600D02*
D03*
X-34832Y-19320D02*
D03*
X-800Y28900D02*
D03*
X-43900Y26200D02*
D03*
X44500Y31900D02*
D03*
X-35000Y-17400D02*
D03*
X-34832Y-15383D02*
D03*
X-52548Y-15383D02*
D03*
X-61600Y-16900D02*
D03*
X-37600Y37900D02*
D03*
X5601Y64368D02*
D03*
X-39000Y51200D02*
D03*
X-52800Y25028D02*
D03*
X-45700Y28500D02*
D03*
X-31999Y64468D02*
D03*
X-40500Y53500D02*
D03*
X-50639Y38653D02*
D03*
Y41753D02*
D03*
X-50600Y40200D02*
D03*
X-55211Y52053D02*
D03*
X-47700Y53083D02*
D03*
X6172Y28800D02*
D03*
X2899Y44331D02*
D03*
X-228Y46300D02*
D03*
X6200Y36800D02*
D03*
X-9100Y32000D02*
D03*
X-2200Y35500D02*
D03*
X8400Y34500D02*
D03*
Y31500D02*
D03*
X-3000Y37100D02*
D03*
X44800D02*
D03*
X-5000Y40700D02*
D03*
X60400Y38100D02*
D03*
X50000Y37100D02*
D03*
X48100Y40600D02*
D03*
X51500Y35500D02*
D03*
X49569Y28400D02*
D03*
X-9500Y28300D02*
D03*
X43400Y28400D02*
D03*
X45700Y26300D02*
D03*
X-6000Y46300D02*
D03*
X48000Y32000D02*
D03*
X46100D02*
D03*
X-7000D02*
D03*
X-5000D02*
D03*
X40400Y6500D02*
D03*
X38400D02*
D03*
X36400D02*
D03*
X34500D02*
D03*
X32500D02*
D03*
X30500D02*
D03*
X28500D02*
D03*
X26600D02*
D03*
X24600D02*
D03*
X22700D02*
D03*
X20700D02*
D03*
X12800Y7300D02*
D03*
X41000Y27800D02*
D03*
X39400D02*
D03*
X37800D02*
D03*
X36200D02*
D03*
X34600D02*
D03*
X33000D02*
D03*
X31400D02*
D03*
X29800D02*
D03*
X28200D02*
D03*
X26600D02*
D03*
X25000D02*
D03*
X23400D02*
D03*
X21800D02*
D03*
X20200D02*
D03*
X18600D02*
D03*
X-13900Y6900D02*
D03*
X-6900Y11900D02*
D03*
Y6500D02*
D03*
X-8800D02*
D03*
X-16900Y-1700D02*
D03*
X-18600D02*
D03*
X-11200Y27800D02*
D03*
X-12800D02*
D03*
X-14400D02*
D03*
X-16000D02*
D03*
X-17600D02*
D03*
X-19200D02*
D03*
X-20800D02*
D03*
X-22400D02*
D03*
X-24000D02*
D03*
X-25600D02*
D03*
X-27200D02*
D03*
X-28800D02*
D03*
X-30400D02*
D03*
X-32000D02*
D03*
X-33600D02*
D03*
X-19083Y-15383D02*
D03*
Y-17352D02*
D03*
X-25000Y-17352D02*
D03*
X-19083Y-39006D02*
D03*
X-17115Y-37037D02*
D03*
X-23020D02*
D03*
X-19083D02*
D03*
X-17115Y-23257D02*
D03*
X-59000Y-52272D02*
D03*
Y-48728D02*
D03*
Y-46272D02*
D03*
Y-42728D02*
D03*
Y-40272D02*
D03*
Y-36728D02*
D03*
Y-34272D02*
D03*
Y-30728D02*
D03*
X-9772Y-56500D02*
D03*
X-6228D02*
D03*
X11500Y-52800D02*
D03*
Y-49200D02*
D03*
X29068Y-32314D02*
D03*
X-39800Y-17300D02*
D03*
X-42706Y-21289D02*
D03*
X-32863D02*
D03*
X-30827Y-39342D02*
D03*
X-28926Y-37037D02*
D03*
X19075Y-68500D02*
D03*
X9709D02*
D03*
X15335Y-62501D02*
D03*
X15925Y-68500D02*
D03*
X19075Y-65500D02*
D03*
X15925D02*
D03*
X21075Y-59000D02*
D03*
X17925D02*
D03*
X1500Y-48200D02*
D03*
X-42706Y-40974D02*
D03*
X4500Y-49800D02*
D03*
X-15000Y-53900D02*
D03*
X-17115Y-52785D02*
D03*
Y-48848D02*
D03*
Y-50817D02*
D03*
X260Y-70075D02*
D03*
X-1315Y-65350D02*
D03*
X3409Y-59051D02*
D03*
X-1315D02*
D03*
X1835Y-57476D02*
D03*
X-34832Y-37037D02*
D03*
Y-35069D02*
D03*
Y-33100D02*
D03*
X8000Y-46000D02*
D03*
X-1500Y-45900D02*
D03*
X-10400Y-54000D02*
D03*
X8134Y-60626D02*
D03*
Y-59051D02*
D03*
X8134Y-55400D02*
D03*
X9700D02*
D03*
X9709Y-60626D02*
D03*
X11200Y-57500D02*
D03*
X16100Y-52900D02*
D03*
X21637Y-47547D02*
D03*
X19468Y-62501D02*
D03*
X-7500Y-48031D02*
D03*
X-4499Y-48032D02*
D03*
X-1315Y-63776D02*
D03*
X6559Y-66925D02*
D03*
X11283D02*
D03*
X9709Y-65350D02*
D03*
X4984Y-60626D02*
D03*
X-24989Y-21289D02*
D03*
X-32863Y-35069D02*
D03*
X-23020Y-19320D02*
D03*
X-19083Y-46880D02*
D03*
X-17115Y-13415D02*
D03*
X-23020Y-44911D02*
D03*
X-30895Y-40974D02*
D03*
X-23020D02*
D03*
X-28926D02*
D03*
X-24989Y-39006D02*
D03*
X-28926D02*
D03*
X-24989Y-37037D02*
D03*
X-28926Y-35069D02*
D03*
X-38769Y-37037D02*
D03*
X-36800D02*
D03*
X-32863D02*
D03*
X-28926Y-33100D02*
D03*
X-32863D02*
D03*
X-36800D02*
D03*
X-38769D02*
D03*
Y-31132D02*
D03*
X-36800D02*
D03*
X-32863D02*
D03*
X-28926D02*
D03*
X-23020Y-29163D02*
D03*
X-28926D02*
D03*
X-32863D02*
D03*
X-36800D02*
D03*
X-38769D02*
D03*
X-28926Y-27194D02*
D03*
X-30895Y-25226D02*
D03*
X-28926D02*
D03*
X-24989D02*
D03*
Y-19320D02*
D03*
X-23020Y-15383D02*
D03*
X-24989D02*
D03*
Y-13415D02*
D03*
X-36800Y-19320D02*
D03*
Y-25226D02*
D03*
X-38769Y-15383D02*
D03*
X-42706Y-25226D02*
D03*
X-44674D02*
D03*
X-40737Y-33100D02*
D03*
X-44674Y-35069D02*
D03*
X-40737Y-37037D02*
D03*
X-44674D02*
D03*
Y-39006D02*
D03*
Y-40974D02*
D03*
X-54517Y-50817D02*
D03*
X-56485D02*
D03*
X-54517Y-46880D02*
D03*
X-56485D02*
D03*
X-54517Y-42943D02*
D03*
X-56485D02*
D03*
Y-39006D02*
D03*
X-54517D02*
D03*
Y-35069D02*
D03*
X-56485D02*
D03*
X-44674Y-21289D02*
D03*
X-46643D02*
D03*
X-42706Y-19320D02*
D03*
X-44674D02*
D03*
X-54517D02*
D03*
X-56485D02*
D03*
X-54517Y-17352D02*
D03*
X-44674Y-13415D02*
D03*
X-48611D02*
D03*
X9709Y-62201D02*
D03*
X6600Y-62200D02*
D03*
X9709Y-63776D02*
D03*
X260Y-68500D02*
D03*
X1835D02*
D03*
X-1315Y-57476D02*
D03*
X260D02*
D03*
X-9700Y-60625D02*
D03*
X-40737Y-29163D02*
D03*
Y-31132D02*
D03*
X-26957Y-52785D02*
D03*
X-38769D02*
D03*
Y-44911D02*
D03*
X-34832Y-31132D02*
D03*
X-30895Y-13415D02*
D03*
X-32863Y-25226D02*
D03*
X-38800Y-23257D02*
D03*
X-38769Y-25226D02*
D03*
X-36800Y-27194D02*
D03*
X-46643Y-52785D02*
D03*
X-32500Y-7600D02*
D03*
X-59000Y-19083D02*
D03*
X-17115Y-42943D02*
D03*
X-26957Y-19320D02*
D03*
X-49381Y8312D02*
D03*
X-52600Y-25200D02*
D03*
X-32863Y-19320D02*
D03*
X-34832Y-25226D02*
D03*
X-21052Y-33100D02*
D03*
X-46643Y-17352D02*
D03*
X-48611Y-15383D02*
D03*
X-50580D02*
D03*
X-48611Y-42943D02*
D03*
Y-37037D02*
D03*
Y-25226D02*
D03*
Y-23257D02*
D03*
Y-21289D02*
D03*
Y-19320D02*
D03*
X-50580Y-35069D02*
D03*
Y-21289D02*
D03*
Y-19320D02*
D03*
X-19083Y-27194D02*
D03*
Y-23257D02*
D03*
X-23020D02*
D03*
Y-21289D02*
D03*
X-24989Y-23257D02*
D03*
X-21052D02*
D03*
X-17115Y-19320D02*
D03*
Y-21289D02*
D03*
X-46643Y-19320D02*
D03*
X-23020Y-35069D02*
D03*
Y-39006D02*
D03*
Y-33100D02*
D03*
X-24989Y-35069D02*
D03*
Y-33100D02*
D03*
X-19083D02*
D03*
Y-35069D02*
D03*
X-17115Y-33100D02*
D03*
X-56485Y-13415D02*
D03*
Y-15383D02*
D03*
Y-17352D02*
D03*
X-54517Y-13415D02*
D03*
Y-15383D02*
D03*
X-17115Y-29163D02*
D03*
X-24989D02*
D03*
X-23020Y-31132D02*
D03*
X-17115Y-25226D02*
D03*
X-23020Y-25226D02*
D03*
X-17115Y-31132D02*
D03*
X-17100Y-27200D02*
D03*
X-23020Y-27194D02*
D03*
X-50600Y-11900D02*
D03*
X-52548Y-13415D02*
D03*
X18700Y6500D02*
D03*
X14800D02*
D03*
X16800D02*
D03*
X-9000Y37100D02*
D03*
X44500Y-432D02*
D03*
X6568Y24901D02*
D03*
X-28900Y-49100D02*
D03*
X-22800Y12000D02*
D03*
X-22600Y8800D02*
D03*
X-28200Y7200D02*
D03*
X-26500D02*
D03*
X-24500D02*
D03*
X-4900Y75000D02*
D03*
X-6800D02*
D03*
X-8800D02*
D03*
X-10800D02*
D03*
X-12700D02*
D03*
X-14700D02*
D03*
X-16700D02*
D03*
X-18600D02*
D03*
X-20600D02*
D03*
X-24500D02*
D03*
X-22500D02*
D03*
X-26500D02*
D03*
X-28500D02*
D03*
X-30400D02*
D03*
X-32400D02*
D03*
X12900D02*
D03*
X14800D02*
D03*
X16800D02*
D03*
X18800D02*
D03*
X20800D02*
D03*
X22700D02*
D03*
X24700D02*
D03*
X26600D02*
D03*
X28600D02*
D03*
X30600D02*
D03*
X32500D02*
D03*
X34500D02*
D03*
X36500D02*
D03*
X38500D02*
D03*
X40400D02*
D03*
X-30900Y-49200D02*
D03*
X-58100Y48100D02*
D03*
X-57800Y45100D02*
D03*
X55700Y49300D02*
D03*
Y46300D02*
D03*
X46800Y49300D02*
D03*
Y46300D02*
D03*
X8700Y60700D02*
D03*
X-40737Y-35069D02*
D03*
X-38769D02*
D03*
X-36800D02*
D03*
X-11200Y44500D02*
D03*
X-14400D02*
D03*
X-12800D02*
D03*
X-16000D02*
D03*
X-17600D02*
D03*
X-19200D02*
D03*
X-20800D02*
D03*
X-22400D02*
D03*
X-24000D02*
D03*
X-25600D02*
D03*
X-27200D02*
D03*
X-28800D02*
D03*
X-30400D02*
D03*
X-33600D02*
D03*
X-32000D02*
D03*
X18600D02*
D03*
X25000D02*
D03*
X26600D02*
D03*
X28200D02*
D03*
X29800D02*
D03*
X31400D02*
D03*
X33000D02*
D03*
X34600D02*
D03*
X36200D02*
D03*
X37800D02*
D03*
X39400D02*
D03*
X41000D02*
D03*
X20200Y44800D02*
D03*
X21800D02*
D03*
X23400D02*
D03*
X-43500Y55400D02*
D03*
X-12400Y6900D02*
D03*
X-10800D02*
D03*
D57*
X-12500Y-6400D02*
D03*
X3800Y-6300D02*
D03*
X-1400Y-7900D02*
D03*
X-17800D02*
D03*
X44000Y62600D02*
D03*
X49000Y55600D02*
D03*
X28548Y42000D02*
D03*
X28500Y30600D02*
D03*
X-48800Y-5000D02*
D03*
X-52800Y-1600D02*
D03*
X-29800Y9200D02*
D03*
X-27000Y9900D02*
D03*
X56157Y58700D02*
D03*
Y62200D02*
D03*
X-53400Y4900D02*
D03*
X-52300Y3000D02*
D03*
X49272Y23400D02*
D03*
X-3500Y50000D02*
D03*
X-8000D02*
D03*
X-27200Y21400D02*
D03*
X-15300Y9700D02*
D03*
X-49346Y28500D02*
D03*
X-55500D02*
D03*
X14082Y64800D02*
D03*
X5400Y40300D02*
D03*
X27800Y-7300D02*
D03*
X18000Y-3500D02*
D03*
Y-5500D02*
D03*
X15500Y-8900D02*
D03*
X29100Y64818D02*
D03*
X24100D02*
D03*
X19100D02*
D03*
X-48900Y21600D02*
D03*
Y24200D02*
D03*
X59700Y58700D02*
D03*
Y62200D02*
D03*
Y65700D02*
D03*
X56157D02*
D03*
X60783Y69700D02*
D03*
X55074D02*
D03*
X-45728Y60500D02*
D03*
X-51500Y57000D02*
D03*
X-45728Y64000D02*
D03*
X-43146Y69000D02*
D03*
X-59854D02*
D03*
X-57272Y64000D02*
D03*
Y60500D02*
D03*
Y57000D02*
D03*
X-45728D02*
D03*
X-51500Y60500D02*
D03*
Y64000D02*
D03*
Y69000D02*
D03*
X-40100Y-2000D02*
D03*
X25500Y-3500D02*
D03*
X32900D02*
D03*
X11800Y-7900D02*
D03*
X9000D02*
D03*
X-13700Y20800D02*
D03*
X-15300Y21700D02*
D03*
X-29800Y21400D02*
D03*
X34600Y-17554D02*
D03*
Y-11846D02*
D03*
X41872Y-8600D02*
D03*
X38328D02*
D03*
X41872Y-11700D02*
D03*
X38328D02*
D03*
X41872Y-14800D02*
D03*
X38328D02*
D03*
X41872Y-17900D02*
D03*
X38328Y-21000D02*
D03*
X41872D02*
D03*
X11800Y-4328D02*
D03*
X8900D02*
D03*
X6000D02*
D03*
X-1400D02*
D03*
X-17800Y-4300D02*
D03*
X-8772Y-68500D02*
D03*
Y-65500D02*
D03*
X-5200D02*
D03*
X7500Y-31600D02*
D03*
X15500Y-30158D02*
D03*
X-12500Y-4500D02*
D03*
X-29000Y-4000D02*
D03*
Y-6500D02*
D03*
X-40000Y-5342D02*
D03*
X1000Y21500D02*
D03*
X3000D02*
D03*
X15500Y-24843D02*
D03*
X20100Y-24725D02*
D03*
Y-27875D02*
D03*
X26100Y-24725D02*
D03*
Y-27875D02*
D03*
X-53300Y9800D02*
D03*
X-57100D02*
D03*
X3800Y-4300D02*
D03*
X34100Y60600D02*
D03*
X39300Y62600D02*
D03*
X47200Y-10400D02*
D03*
X49300D02*
D03*
X900Y9600D02*
D03*
X-1000D02*
D03*
X-18600Y9700D02*
D03*
X38328Y-17900D02*
D03*
D58*
X20173Y-36949D02*
D03*
X29068Y-24811D02*
D03*
X32100Y-27122D02*
D03*
X1276Y-33799D02*
D03*
Y-36949D02*
D03*
X-1874D02*
D03*
X1276Y-40098D02*
D03*
X20173Y-21201D02*
D03*
X4425Y-40098D02*
D03*
Y-33799D02*
D03*
X10724Y-40098D02*
D03*
X1276Y-21201D02*
D03*
X-1874Y-40098D02*
D03*
Y-33799D02*
D03*
X-8173Y-40098D02*
D03*
Y-33799D02*
D03*
Y-36949D02*
D03*
X-5024Y-40098D02*
D03*
Y-21201D02*
D03*
X-8173D02*
D03*
X13874Y-40098D02*
D03*
X17024Y-36949D02*
D03*
Y-33799D02*
D03*
X13874D02*
D03*
Y-36949D02*
D03*
X-5024D02*
D03*
Y-33799D02*
D03*
X17024Y-40098D02*
D03*
X20173D02*
D03*
Y-33799D02*
D03*
Y-14902D02*
D03*
X13874D02*
D03*
X4425D02*
D03*
X-8173D02*
D03*
X20173Y-18051D02*
D03*
X17024Y-14902D02*
D03*
X13874Y-21201D02*
D03*
Y-18051D02*
D03*
X10724Y-21201D02*
D03*
Y-18051D02*
D03*
Y-14902D02*
D03*
X7575Y-21201D02*
D03*
X4425Y-18051D02*
D03*
X-1874Y-21201D02*
D03*
X1276Y-14902D02*
D03*
X7575D02*
D03*
Y-18051D02*
D03*
Y-40098D02*
D03*
X34468Y-39782D02*
D03*
X36968D02*
D03*
X1276Y-18051D02*
D03*
X10724Y-36949D02*
D03*
X7575Y-33799D02*
D03*
D59*
X46000Y-67400D02*
D03*
X42500D02*
D03*
X39000D02*
D03*
D67*
X-921Y16587D02*
D03*
X-2890D02*
D03*
X-4858D02*
D03*
X-6827D02*
D03*
X-8795D02*
D03*
X-10764D02*
D03*
X-12732Y2413D02*
D03*
Y16587D02*
D03*
X-14701Y2413D02*
D03*
Y16587D02*
D03*
X-16669Y2413D02*
D03*
Y16587D02*
D03*
X-18638Y2413D02*
D03*
Y16587D02*
D03*
X-20606Y2413D02*
D03*
Y16587D02*
D03*
X-22575Y2413D02*
D03*
Y16587D02*
D03*
X-24543Y2413D02*
D03*
Y16587D02*
D03*
X-26512Y2413D02*
D03*
Y16587D02*
D03*
X-28480Y2413D02*
D03*
Y16587D02*
D03*
X-30449Y2413D02*
D03*
Y16587D02*
D03*
X-32417D02*
D03*
X-921Y2413D02*
D03*
X-2890D02*
D03*
X-4858D02*
D03*
X-6827D02*
D03*
X-8795D02*
D03*
X-10764D02*
D03*
X-34386D02*
D03*
X-32417D02*
D03*
X-34386Y16587D02*
D03*
X3016Y2413D02*
D03*
X1047D02*
D03*
X24669D02*
D03*
X26638D02*
D03*
X28606D02*
D03*
X30575D02*
D03*
X32543D02*
D03*
X34512D02*
D03*
X4984D02*
D03*
X6953D02*
D03*
X8921D02*
D03*
X10890D02*
D03*
X12858D02*
D03*
X14827D02*
D03*
X16795D02*
D03*
X18764D02*
D03*
X20732D02*
D03*
X22701D02*
D03*
X42386D02*
D03*
X40417D02*
D03*
X38449D02*
D03*
X36480D02*
D03*
X1047Y16587D02*
D03*
X3016D02*
D03*
X4984D02*
D03*
X6953D02*
D03*
X8921D02*
D03*
X10890D02*
D03*
X12858D02*
D03*
X14827D02*
D03*
X16795D02*
D03*
X18764D02*
D03*
X20732D02*
D03*
X22701D02*
D03*
X24669D02*
D03*
X26638D02*
D03*
X28606D02*
D03*
X30575D02*
D03*
X32543D02*
D03*
X34512D02*
D03*
X42386D02*
D03*
X40417D02*
D03*
X38449D02*
D03*
X36480D02*
D03*
X8921Y56013D02*
D03*
X10890D02*
D03*
X12858D02*
D03*
X14827D02*
D03*
X16795D02*
D03*
X18764D02*
D03*
X20732Y70187D02*
D03*
Y56013D02*
D03*
X22701Y70187D02*
D03*
Y56013D02*
D03*
X24669Y70187D02*
D03*
Y56013D02*
D03*
X26638Y70187D02*
D03*
Y56013D02*
D03*
X28606Y70187D02*
D03*
Y56013D02*
D03*
X30575Y70187D02*
D03*
Y56013D02*
D03*
X32543Y70187D02*
D03*
Y56013D02*
D03*
X34512Y70187D02*
D03*
Y56013D02*
D03*
X36480Y70187D02*
D03*
Y56013D02*
D03*
X38449Y70187D02*
D03*
Y56013D02*
D03*
X40417D02*
D03*
X8921Y70187D02*
D03*
X10890D02*
D03*
X12858D02*
D03*
X14827D02*
D03*
X16795D02*
D03*
X18764D02*
D03*
X42386D02*
D03*
X40417D02*
D03*
X42386Y56013D02*
D03*
X4984Y70187D02*
D03*
X6953D02*
D03*
X-16669D02*
D03*
X-18638D02*
D03*
X-20606D02*
D03*
X-22575D02*
D03*
X-24543D02*
D03*
X-26512D02*
D03*
X3016D02*
D03*
X1047D02*
D03*
X-921D02*
D03*
X-2890D02*
D03*
X-4858D02*
D03*
X-6827D02*
D03*
X-8795D02*
D03*
X-10764D02*
D03*
X-12732D02*
D03*
X-14701D02*
D03*
X-34386D02*
D03*
X-32417D02*
D03*
X-30449D02*
D03*
X-28480D02*
D03*
X6953Y56013D02*
D03*
X4984D02*
D03*
X3016D02*
D03*
X1047D02*
D03*
X-921D02*
D03*
X-2890D02*
D03*
X-4858D02*
D03*
X-6827D02*
D03*
X-8795D02*
D03*
X-10764D02*
D03*
X-12732D02*
D03*
X-14701D02*
D03*
X-16669D02*
D03*
X-18638D02*
D03*
X-20606D02*
D03*
X-22575D02*
D03*
X-24543D02*
D03*
X-26512D02*
D03*
X-34386D02*
D03*
X-32417D02*
D03*
X-30449D02*
D03*
X-28480D02*
D03*
D68*
X-32617Y-27200D02*
D03*
X-34783D02*
D03*
X-50517Y-33200D02*
D03*
X-52683D02*
D03*
X-32717Y-31100D02*
D03*
X-34883D02*
D03*
X-38883D02*
D03*
X-36717D02*
D03*
X-44717Y-37000D02*
D03*
X-46883D02*
D03*
Y-35100D02*
D03*
X-44717D02*
D03*
X-50517D02*
D03*
X-52683D02*
D03*
Y-37000D02*
D03*
X-50517D02*
D03*
X-34783Y-29200D02*
D03*
X-32617D02*
D03*
D69*
X-30812Y-35281D02*
D03*
Y-32919D02*
D03*
X-30788Y-39381D02*
D03*
Y-37019D02*
D03*
X-23412Y-46819D02*
D03*
Y-49181D02*
D03*
X-38788Y-27581D02*
D03*
Y-25219D02*
D03*
X-48512Y12681D02*
D03*
Y10319D02*
D03*
D70*
X-21975Y36300D02*
D03*
X31025D02*
D03*
D71*
X-4975Y39500D02*
D03*
Y38700D02*
D03*
Y37900D02*
D03*
Y37100D02*
D03*
Y36300D02*
D03*
Y35500D02*
D03*
Y34700D02*
D03*
Y33900D02*
D03*
Y33100D02*
D03*
X-38975D02*
D03*
Y33900D02*
D03*
Y34700D02*
D03*
Y35500D02*
D03*
Y36300D02*
D03*
Y37100D02*
D03*
Y37900D02*
D03*
Y38700D02*
D03*
Y39500D02*
D03*
X14025D02*
D03*
Y38700D02*
D03*
Y37900D02*
D03*
Y37100D02*
D03*
Y36300D02*
D03*
Y35500D02*
D03*
Y34700D02*
D03*
Y33900D02*
D03*
Y33100D02*
D03*
X48025D02*
D03*
Y33900D02*
D03*
Y34700D02*
D03*
Y35500D02*
D03*
Y36300D02*
D03*
Y37100D02*
D03*
Y37900D02*
D03*
Y38700D02*
D03*
Y39500D02*
D03*
D72*
X-8775Y26300D02*
D03*
X-9575D02*
D03*
X-10375D02*
D03*
X-11175D02*
D03*
X-11975D02*
D03*
X-12775D02*
D03*
X-13575D02*
D03*
X-14375D02*
D03*
X-15175D02*
D03*
X-15975D02*
D03*
X-16775D02*
D03*
X-17575D02*
D03*
X-18375D02*
D03*
X-19175D02*
D03*
X-19975D02*
D03*
X-20775D02*
D03*
X-21575D02*
D03*
X-22375D02*
D03*
X-23175D02*
D03*
X-23975D02*
D03*
X-24775D02*
D03*
X-25575D02*
D03*
X-26375D02*
D03*
X-27175D02*
D03*
X-27975D02*
D03*
X-28775D02*
D03*
X-29575D02*
D03*
X-30375D02*
D03*
X-31175D02*
D03*
X-31975D02*
D03*
X-32775D02*
D03*
X-33575D02*
D03*
X-34375D02*
D03*
X-35175D02*
D03*
Y46300D02*
D03*
X-34375D02*
D03*
X-33575D02*
D03*
X-32775D02*
D03*
X-31975D02*
D03*
X-31175D02*
D03*
X-30375D02*
D03*
X-29575D02*
D03*
X-28775D02*
D03*
X-27975D02*
D03*
X-27175D02*
D03*
X-26375D02*
D03*
X-25575D02*
D03*
X-24775D02*
D03*
X-23975D02*
D03*
X-23175D02*
D03*
X-22375D02*
D03*
X-21575D02*
D03*
X-20775D02*
D03*
X-19975D02*
D03*
X-19175D02*
D03*
X-18375D02*
D03*
X-17575D02*
D03*
X-16775D02*
D03*
X-15975D02*
D03*
X-15175D02*
D03*
X-14375D02*
D03*
X-13575D02*
D03*
X-12775D02*
D03*
X-11975D02*
D03*
X-11175D02*
D03*
X-10375D02*
D03*
X-9575D02*
D03*
X-8775D02*
D03*
X44225D02*
D03*
X43425D02*
D03*
X42625D02*
D03*
X41825D02*
D03*
X41025D02*
D03*
X40225D02*
D03*
X39425D02*
D03*
X38625D02*
D03*
X37825D02*
D03*
X37025D02*
D03*
X36225D02*
D03*
X35425D02*
D03*
X34625D02*
D03*
X33825D02*
D03*
X33025D02*
D03*
X32225D02*
D03*
X31425D02*
D03*
X30625D02*
D03*
X29825D02*
D03*
X29025D02*
D03*
X28225D02*
D03*
X27425D02*
D03*
X26625D02*
D03*
X25825D02*
D03*
X25025D02*
D03*
X24225D02*
D03*
X23425D02*
D03*
X22625D02*
D03*
X21825D02*
D03*
X21025D02*
D03*
X20225D02*
D03*
X19425D02*
D03*
X18625D02*
D03*
X17825D02*
D03*
Y26300D02*
D03*
X18625D02*
D03*
X19425D02*
D03*
X20225D02*
D03*
X21025D02*
D03*
X21825D02*
D03*
X22625D02*
D03*
X23425D02*
D03*
X24225D02*
D03*
X25025D02*
D03*
X25825D02*
D03*
X26625D02*
D03*
X27425D02*
D03*
X28225D02*
D03*
X29025D02*
D03*
X29825D02*
D03*
X30625D02*
D03*
X31425D02*
D03*
X32225D02*
D03*
X33025D02*
D03*
X33825D02*
D03*
X34625D02*
D03*
X35425D02*
D03*
X36225D02*
D03*
X37025D02*
D03*
X37825D02*
D03*
X38625D02*
D03*
X39425D02*
D03*
X40225D02*
D03*
X41025D02*
D03*
X41825D02*
D03*
X42625D02*
D03*
X43425D02*
D03*
X44225D02*
D03*
D73*
X49275Y9500D02*
D03*
X-41275D02*
D03*
X-41275Y63100D02*
D03*
X49275D02*
D03*
M02*
